%TF.GenerationSoftware,KiCad,Pcbnew,9.0.6*%
%TF.CreationDate,2025-12-07T15:07:03-05:00*%
%TF.ProjectId,IO_board,494f5f62-6f61-4726-942e-6b696361645f,rev?*%
%TF.SameCoordinates,Original*%
%TF.FileFunction,Soldermask,Bot*%
%TF.FilePolarity,Negative*%
%FSLAX46Y46*%
G04 Gerber Fmt 4.6, Leading zero omitted, Abs format (unit mm)*
G04 Created by KiCad (PCBNEW 9.0.6) date 2025-12-07 15:07:03*
%MOMM*%
%LPD*%
G01*
G04 APERTURE LIST*
G04 Aperture macros list*
%AMRoundRect*
0 Rectangle with rounded corners*
0 $1 Rounding radius*
0 $2 $3 $4 $5 $6 $7 $8 $9 X,Y pos of 4 corners*
0 Add a 4 corners polygon primitive as box body*
4,1,4,$2,$3,$4,$5,$6,$7,$8,$9,$2,$3,0*
0 Add four circle primitives for the rounded corners*
1,1,$1+$1,$2,$3*
1,1,$1+$1,$4,$5*
1,1,$1+$1,$6,$7*
1,1,$1+$1,$8,$9*
0 Add four rect primitives between the rounded corners*
20,1,$1+$1,$2,$3,$4,$5,0*
20,1,$1+$1,$4,$5,$6,$7,0*
20,1,$1+$1,$6,$7,$8,$9,0*
20,1,$1+$1,$8,$9,$2,$3,0*%
G04 Aperture macros list end*
%ADD10C,1.700000*%
%ADD11R,1.700000X1.700000*%
%ADD12RoundRect,0.250000X-0.600000X-0.725000X0.600000X-0.725000X0.600000X0.725000X-0.600000X0.725000X0*%
%ADD13O,1.700000X1.950000*%
%ADD14RoundRect,0.300000X1.200000X0.700000X-1.200000X0.700000X-1.200000X-0.700000X1.200000X-0.700000X0*%
%ADD15C,1.800000*%
%ADD16R,1.800000X1.800000*%
%ADD17RoundRect,0.250000X-0.350000X-0.450000X0.350000X-0.450000X0.350000X0.450000X-0.350000X0.450000X0*%
%ADD18RoundRect,0.250000X0.325000X0.450000X-0.325000X0.450000X-0.325000X-0.450000X0.325000X-0.450000X0*%
%ADD19C,2.000000*%
%ADD20RoundRect,0.250000X0.750000X-0.600000X0.750000X0.600000X-0.750000X0.600000X-0.750000X-0.600000X0*%
%ADD21O,2.000000X1.700000*%
G04 APERTURE END LIST*
D10*
%TO.C,J2*%
X105740000Y-66460000D03*
X105740000Y-69000000D03*
X108280000Y-66460000D03*
X108280000Y-69000000D03*
X110820000Y-66460000D03*
X110820000Y-69000000D03*
X113360000Y-66460000D03*
X113360000Y-69000000D03*
X115900000Y-66460000D03*
X115900000Y-69000000D03*
X118440000Y-66460000D03*
X118440000Y-69000000D03*
X120980000Y-66460000D03*
X120980000Y-69000000D03*
X123520000Y-66460000D03*
X123520000Y-69000000D03*
X126060000Y-66460000D03*
X126060000Y-69000000D03*
X128600000Y-66460000D03*
X128600000Y-69000000D03*
X131140000Y-66460000D03*
X131140000Y-69000000D03*
X133680000Y-66460000D03*
X133680000Y-69000000D03*
X136220000Y-66460000D03*
X136220000Y-69000000D03*
X138760000Y-66460000D03*
X138760000Y-69000000D03*
X141300000Y-66460000D03*
X141300000Y-69000000D03*
X143840000Y-66460000D03*
X143840000Y-69000000D03*
X146380000Y-66460000D03*
X146380000Y-69000000D03*
X148920000Y-66460000D03*
X148920000Y-69000000D03*
X151460000Y-66460000D03*
X151460000Y-69000000D03*
X154000000Y-66460000D03*
D11*
X154000000Y-69000000D03*
%TD*%
%TO.C,J7*%
X154040000Y-60500000D03*
D10*
X151500000Y-60500000D03*
X148960000Y-60500000D03*
X146420000Y-60500000D03*
X143880000Y-60500000D03*
X141340000Y-60500000D03*
X138800000Y-60500000D03*
X136260000Y-60500000D03*
%TD*%
D12*
%TO.C,J5*%
X141500000Y-125000000D03*
D13*
X144000000Y-125000000D03*
X146500000Y-125000000D03*
%TD*%
%TO.C,J3*%
X146000000Y-115500000D03*
X143500000Y-115500000D03*
D12*
X141000000Y-115500000D03*
%TD*%
%TO.C,J4*%
X156500000Y-115500000D03*
D13*
X159000000Y-115500000D03*
X161500000Y-115500000D03*
%TD*%
D12*
%TO.C,J6*%
X156500000Y-125000000D03*
D13*
X159000000Y-125000000D03*
X161500000Y-125000000D03*
%TD*%
D14*
%TO.C,SW2*%
X141000000Y-99600000D03*
X141000000Y-104000000D03*
X141000000Y-108400000D03*
%TD*%
D15*
%TO.C,D1*%
X162250000Y-87500000D03*
D16*
X159710000Y-87500000D03*
%TD*%
%TO.C,D2*%
X139710000Y-87500000D03*
D15*
X142250000Y-87500000D03*
%TD*%
D14*
%TO.C,SW1*%
X161000000Y-108400000D03*
X161000000Y-104000000D03*
X161000000Y-99600000D03*
%TD*%
D17*
%TO.C,R2*%
X142000000Y-81500000D03*
X140000000Y-81500000D03*
%TD*%
%TO.C,R1*%
X160000000Y-81500000D03*
X162000000Y-81500000D03*
%TD*%
D18*
%TO.C,D7*%
X103900364Y-91837864D03*
X101850364Y-91837864D03*
%TD*%
%TO.C,D8*%
X94220364Y-87437864D03*
X96270364Y-87437864D03*
%TD*%
D19*
%TO.C,SW3*%
X81198606Y-101269674D03*
X83786864Y-96786864D03*
X88269674Y-94198606D03*
X93446054Y-94198606D03*
X97928864Y-96786864D03*
X100517122Y-101269674D03*
X100517122Y-106446054D03*
X97928864Y-110928864D03*
X93446054Y-113517122D03*
X88269674Y-113517122D03*
X83786864Y-110928864D03*
X81198606Y-106446054D03*
X90857864Y-98857864D03*
X90857864Y-108857864D03*
%TD*%
D18*
%TO.C,D3*%
X96290364Y-120277864D03*
X94240364Y-120277864D03*
%TD*%
%TO.C,D4*%
X103900364Y-115877864D03*
X101850364Y-115877864D03*
%TD*%
%TO.C,D5*%
X108310364Y-108257864D03*
X106260364Y-108257864D03*
%TD*%
%TO.C,D6*%
X108281103Y-99457940D03*
X106231103Y-99457940D03*
%TD*%
D20*
%TO.C,J1*%
X171000000Y-73500000D03*
D21*
X171000000Y-71000000D03*
%TD*%
M02*
