%TF.GenerationSoftware,KiCad,Pcbnew,9.0.6*%
%TF.CreationDate,2025-12-07T15:07:03-05:00*%
%TF.ProjectId,IO_board,494f5f62-6f61-4726-942e-6b696361645f,rev?*%
%TF.SameCoordinates,Original*%
%TF.FileFunction,Copper,L2,Bot*%
%TF.FilePolarity,Positive*%
%FSLAX46Y46*%
G04 Gerber Fmt 4.6, Leading zero omitted, Abs format (unit mm)*
G04 Created by KiCad (PCBNEW 9.0.6) date 2025-12-07 15:07:03*
%MOMM*%
%LPD*%
G01*
G04 APERTURE LIST*
G04 Aperture macros list*
%AMRoundRect*
0 Rectangle with rounded corners*
0 $1 Rounding radius*
0 $2 $3 $4 $5 $6 $7 $8 $9 X,Y pos of 4 corners*
0 Add a 4 corners polygon primitive as box body*
4,1,4,$2,$3,$4,$5,$6,$7,$8,$9,$2,$3,0*
0 Add four circle primitives for the rounded corners*
1,1,$1+$1,$2,$3*
1,1,$1+$1,$4,$5*
1,1,$1+$1,$6,$7*
1,1,$1+$1,$8,$9*
0 Add four rect primitives between the rounded corners*
20,1,$1+$1,$2,$3,$4,$5,0*
20,1,$1+$1,$4,$5,$6,$7,0*
20,1,$1+$1,$6,$7,$8,$9,0*
20,1,$1+$1,$8,$9,$2,$3,0*%
G04 Aperture macros list end*
%TA.AperFunction,ComponentPad*%
%ADD10C,1.700000*%
%TD*%
%TA.AperFunction,ComponentPad*%
%ADD11R,1.700000X1.700000*%
%TD*%
%TA.AperFunction,ComponentPad*%
%ADD12RoundRect,0.250000X-0.600000X-0.725000X0.600000X-0.725000X0.600000X0.725000X-0.600000X0.725000X0*%
%TD*%
%TA.AperFunction,ComponentPad*%
%ADD13O,1.700000X1.950000*%
%TD*%
%TA.AperFunction,ComponentPad*%
%ADD14RoundRect,0.300000X1.200000X0.700000X-1.200000X0.700000X-1.200000X-0.700000X1.200000X-0.700000X0*%
%TD*%
%TA.AperFunction,ComponentPad*%
%ADD15C,1.800000*%
%TD*%
%TA.AperFunction,ComponentPad*%
%ADD16R,1.800000X1.800000*%
%TD*%
%TA.AperFunction,SMDPad,CuDef*%
%ADD17RoundRect,0.250000X-0.350000X-0.450000X0.350000X-0.450000X0.350000X0.450000X-0.350000X0.450000X0*%
%TD*%
%TA.AperFunction,SMDPad,CuDef*%
%ADD18RoundRect,0.250000X0.325000X0.450000X-0.325000X0.450000X-0.325000X-0.450000X0.325000X-0.450000X0*%
%TD*%
%TA.AperFunction,ComponentPad*%
%ADD19C,2.000000*%
%TD*%
%TA.AperFunction,ComponentPad*%
%ADD20RoundRect,0.250000X0.750000X-0.600000X0.750000X0.600000X-0.750000X0.600000X-0.750000X-0.600000X0*%
%TD*%
%TA.AperFunction,ComponentPad*%
%ADD21O,2.000000X1.700000*%
%TD*%
%TA.AperFunction,ViaPad*%
%ADD22C,0.600000*%
%TD*%
%TA.AperFunction,Conductor*%
%ADD23C,0.500000*%
%TD*%
%TA.AperFunction,Conductor*%
%ADD24C,0.200000*%
%TD*%
G04 APERTURE END LIST*
D10*
%TO.P,J2,40,Pin_40*%
%TO.N,Net-(J2-Pin_40)*%
X105740000Y-66460000D03*
%TO.P,J2,39,Pin_39*%
%TO.N,GND*%
X105740000Y-69000000D03*
%TO.P,J2,38,Pin_38*%
%TO.N,Net-(J2-Pin_38)*%
X108280000Y-66460000D03*
%TO.P,J2,37,Pin_37*%
%TO.N,Net-(J2-Pin_37)*%
X108280000Y-69000000D03*
%TO.P,J2,36,Pin_36*%
%TO.N,Net-(J2-Pin_36)*%
X110820000Y-66460000D03*
%TO.P,J2,35,Pin_35*%
%TO.N,Net-(J2-Pin_35)*%
X110820000Y-69000000D03*
%TO.P,J2,34,Pin_34*%
%TO.N,GND*%
X113360000Y-66460000D03*
%TO.P,J2,33,Pin_33*%
%TO.N,/switch_B*%
X113360000Y-69000000D03*
%TO.P,J2,32,Pin_32*%
%TO.N,Net-(J2-Pin_32)*%
X115900000Y-66460000D03*
%TO.P,J2,31,Pin_31*%
%TO.N,/LED6*%
X115900000Y-69000000D03*
%TO.P,J2,30,Pin_30*%
%TO.N,GND*%
X118440000Y-66460000D03*
%TO.P,J2,29,Pin_29*%
%TO.N,/LED1*%
X118440000Y-69000000D03*
%TO.P,J2,28,Pin_28*%
%TO.N,unconnected-(J2-Pin_28-Pad28)*%
X120980000Y-66460000D03*
%TO.P,J2,27,Pin_27*%
%TO.N,unconnected-(J2-Pin_27-Pad27)*%
X120980000Y-69000000D03*
%TO.P,J2,26,Pin_26*%
%TO.N,unconnected-(J2-Pin_26-Pad26)*%
X123520000Y-66460000D03*
%TO.P,J2,25,Pin_25*%
%TO.N,GND*%
X123520000Y-69000000D03*
%TO.P,J2,24,Pin_24*%
%TO.N,unconnected-(J2-Pin_24-Pad24)*%
X126060000Y-66460000D03*
%TO.P,J2,23,Pin_23*%
%TO.N,/button_1*%
X126060000Y-69000000D03*
%TO.P,J2,22,Pin_22*%
%TO.N,unconnected-(J2-Pin_22-Pad22)*%
X128600000Y-66460000D03*
%TO.P,J2,21,Pin_21*%
%TO.N,/LED3*%
X128600000Y-69000000D03*
%TO.P,J2,20,Pin_20*%
%TO.N,GND*%
X131140000Y-66460000D03*
%TO.P,J2,19,Pin_19*%
%TO.N,/button_3*%
X131140000Y-69000000D03*
%TO.P,J2,18,Pin_18*%
%TO.N,/GPIO_24*%
X133680000Y-66460000D03*
%TO.P,J2,17,Pin_17*%
%TO.N,unconnected-(J2-Pin_17-Pad17)*%
X133680000Y-69000000D03*
%TO.P,J2,16,Pin_16*%
%TO.N,/GPIO_23*%
X136220000Y-66460000D03*
%TO.P,J2,15,Pin_15*%
%TO.N,/LED4*%
X136220000Y-69000000D03*
%TO.P,J2,14,Pin_14*%
%TO.N,GND*%
X138760000Y-66460000D03*
%TO.P,J2,13,Pin_13*%
%TO.N,/button_4*%
X138760000Y-69000000D03*
%TO.P,J2,12,Pin_12*%
%TO.N,/GPIO_18*%
X141300000Y-66460000D03*
%TO.P,J2,11,Pin_11*%
%TO.N,/LED2*%
X141300000Y-69000000D03*
%TO.P,J2,10,Pin_10*%
%TO.N,/GPIO_15*%
X143840000Y-66460000D03*
%TO.P,J2,9,Pin_9*%
%TO.N,GND*%
X143840000Y-69000000D03*
%TO.P,J2,8,Pin_8*%
%TO.N,/GPIO_14*%
X146380000Y-66460000D03*
%TO.P,J2,7,Pin_7*%
%TO.N,/button_2*%
X146380000Y-69000000D03*
%TO.P,J2,6,Pin_6*%
%TO.N,GND*%
X148920000Y-66460000D03*
%TO.P,J2,5,Pin_5*%
%TO.N,/switch_W*%
X148920000Y-69000000D03*
%TO.P,J2,4,Pin_4*%
%TO.N,+5V*%
X151460000Y-66460000D03*
%TO.P,J2,3,Pin_3*%
%TO.N,/LED5*%
X151460000Y-69000000D03*
%TO.P,J2,2,Pin_2*%
%TO.N,+5V*%
X154000000Y-66460000D03*
D11*
%TO.P,J2,1,Pin_1*%
%TO.N,+3V3*%
X154000000Y-69000000D03*
%TD*%
%TO.P,J7,1,Pin_1*%
%TO.N,GND*%
X154040000Y-60500000D03*
D10*
%TO.P,J7,2,Pin_2*%
%TO.N,+3V3*%
X151500000Y-60500000D03*
%TO.P,J7,3,Pin_3*%
%TO.N,+5V*%
X148960000Y-60500000D03*
%TO.P,J7,4,Pin_4*%
%TO.N,/GPIO_14*%
X146420000Y-60500000D03*
%TO.P,J7,5,Pin_5*%
%TO.N,/GPIO_15*%
X143880000Y-60500000D03*
%TO.P,J7,6,Pin_6*%
%TO.N,/GPIO_18*%
X141340000Y-60500000D03*
%TO.P,J7,7,Pin_7*%
%TO.N,/GPIO_23*%
X138800000Y-60500000D03*
%TO.P,J7,8,Pin_8*%
%TO.N,/GPIO_24*%
X136260000Y-60500000D03*
%TD*%
D12*
%TO.P,J5,1,Pin_1*%
%TO.N,GND*%
X141500000Y-125000000D03*
D13*
%TO.P,J5,2,Pin_2*%
%TO.N,/LED3*%
X144000000Y-125000000D03*
%TO.P,J5,3,Pin_3*%
%TO.N,/button_3*%
X146500000Y-125000000D03*
%TD*%
%TO.P,J3,3,Pin_3*%
%TO.N,/button_1*%
X146000000Y-115500000D03*
%TO.P,J3,2,Pin_2*%
%TO.N,/LED1*%
X143500000Y-115500000D03*
D12*
%TO.P,J3,1,Pin_1*%
%TO.N,GND*%
X141000000Y-115500000D03*
%TD*%
%TO.P,J4,1,Pin_1*%
%TO.N,GND*%
X156500000Y-115500000D03*
D13*
%TO.P,J4,2,Pin_2*%
%TO.N,/LED2*%
X159000000Y-115500000D03*
%TO.P,J4,3,Pin_3*%
%TO.N,/button_2*%
X161500000Y-115500000D03*
%TD*%
D12*
%TO.P,J6,1,Pin_1*%
%TO.N,GND*%
X156500000Y-125000000D03*
D13*
%TO.P,J6,2,Pin_2*%
%TO.N,/LED4*%
X159000000Y-125000000D03*
%TO.P,J6,3,Pin_3*%
%TO.N,/button_4*%
X161500000Y-125000000D03*
%TD*%
D14*
%TO.P,SW2,1,A*%
%TO.N,/switch_B*%
X141000000Y-99600000D03*
%TO.P,SW2,2,B*%
%TO.N,GND*%
X141000000Y-104000000D03*
%TO.P,SW2,3,C*%
X141000000Y-108400000D03*
%TD*%
D15*
%TO.P,D1,2,A*%
%TO.N,/LED5*%
X162250000Y-87500000D03*
D16*
%TO.P,D1,1,K*%
%TO.N,Net-(D1-K)*%
X159710000Y-87500000D03*
%TD*%
%TO.P,D2,1,K*%
%TO.N,Net-(D2-K)*%
X139710000Y-87500000D03*
D15*
%TO.P,D2,2,A*%
%TO.N,/LED6*%
X142250000Y-87500000D03*
%TD*%
D14*
%TO.P,SW1,3,C*%
%TO.N,GND*%
X161000000Y-108400000D03*
%TO.P,SW1,2,B*%
X161000000Y-104000000D03*
%TO.P,SW1,1,A*%
%TO.N,/switch_W*%
X161000000Y-99600000D03*
%TD*%
D17*
%TO.P,R2,2*%
%TO.N,GND*%
X142000000Y-81500000D03*
%TO.P,R2,1*%
%TO.N,Net-(D2-K)*%
X140000000Y-81500000D03*
%TD*%
%TO.P,R1,1*%
%TO.N,Net-(D1-K)*%
X160000000Y-81500000D03*
%TO.P,R1,2*%
%TO.N,GND*%
X162000000Y-81500000D03*
%TD*%
D18*
%TO.P,D7,1,K*%
%TO.N,Net-(D7-K)*%
X103900364Y-91837864D03*
%TO.P,D7,2,A*%
%TO.N,+5V*%
X101850364Y-91837864D03*
%TD*%
%TO.P,D8,2,A*%
%TO.N,Net-(D12-A)*%
X94220364Y-87437864D03*
%TO.P,D8,1,K*%
%TO.N,Net-(D8-K)*%
X96270364Y-87437864D03*
%TD*%
D19*
%TO.P,SW3,1,1*%
%TO.N,Net-(J2-Pin_32)*%
X81198606Y-101269674D03*
%TO.P,SW3,2,2*%
%TO.N,Net-(J2-Pin_36)*%
X83786864Y-96786864D03*
%TO.P,SW3,3,3*%
%TO.N,Net-(J2-Pin_38)*%
X88269674Y-94198606D03*
%TO.P,SW3,4,4*%
%TO.N,Net-(J2-Pin_40)*%
X93446054Y-94198606D03*
%TO.P,SW3,5,5*%
%TO.N,Net-(J2-Pin_37)*%
X97928864Y-96786864D03*
%TO.P,SW3,6,6*%
%TO.N,Net-(J2-Pin_35)*%
X100517122Y-101269674D03*
%TO.P,SW3,7,7*%
%TO.N,Net-(D12-A)*%
X100517122Y-106446054D03*
%TO.P,SW3,8,8*%
%TO.N,Net-(D11-A)*%
X97928864Y-110928864D03*
%TO.P,SW3,9,9*%
%TO.N,Net-(D10-A)*%
X93446054Y-113517122D03*
%TO.P,SW3,10,10*%
%TO.N,Net-(D10-K)*%
X88269674Y-113517122D03*
%TO.P,SW3,11,11*%
%TO.N,Net-(D9-K)*%
X83786864Y-110928864D03*
%TO.P,SW3,12,12*%
%TO.N,unconnected-(SW3-Pad12)*%
X81198606Y-106446054D03*
%TO.P,SW3,13,13*%
%TO.N,GND*%
X90857864Y-98857864D03*
%TO.P,SW3,14,14*%
%TO.N,+5V*%
X90857864Y-108857864D03*
%TD*%
D18*
%TO.P,D3,1,K*%
%TO.N,Net-(D3-K)*%
X96290364Y-120277864D03*
%TO.P,D3,2,A*%
%TO.N,+5V*%
X94240364Y-120277864D03*
%TD*%
%TO.P,D4,1,K*%
%TO.N,Net-(D4-K)*%
X103900364Y-115877864D03*
%TO.P,D4,2,A*%
%TO.N,+5V*%
X101850364Y-115877864D03*
%TD*%
%TO.P,D5,1,K*%
%TO.N,Net-(D5-K)*%
X108310364Y-108257864D03*
%TO.P,D5,2,A*%
%TO.N,+5V*%
X106260364Y-108257864D03*
%TD*%
%TO.P,D6,1,K*%
%TO.N,Net-(D6-K)*%
X108281103Y-99457940D03*
%TO.P,D6,2,A*%
%TO.N,+5V*%
X106231103Y-99457940D03*
%TD*%
D20*
%TO.P,J1,1,Pin_1*%
%TO.N,GND*%
X171000000Y-73500000D03*
D21*
%TO.P,J1,2,Pin_2*%
%TO.N,+5V*%
X171000000Y-71000000D03*
%TD*%
D22*
%TO.N,GND*%
X94500000Y-82000000D03*
X102500000Y-81000000D03*
X113000000Y-91500000D03*
X121000000Y-105500000D03*
X116500000Y-115000000D03*
X103500000Y-120500000D03*
%TO.N,Net-(D7-K)*%
X104000000Y-90000000D03*
%TO.N,Net-(D5-K)*%
X110500000Y-108000000D03*
%TO.N,Net-(D6-K)*%
X110000000Y-99500000D03*
%TO.N,Net-(D3-K)*%
X98000000Y-120500000D03*
%TO.N,Net-(D8-K)*%
X96500000Y-85500000D03*
%TO.N,Net-(D12-A)*%
X95000000Y-89500000D03*
%TO.N,Net-(D4-K)*%
X105122137Y-116000001D03*
%TD*%
D23*
%TO.N,+5V*%
X148960000Y-60960000D02*
X148960000Y-60500000D01*
X151000000Y-63000000D02*
X104000000Y-63000000D01*
D24*
%TO.N,+3V3*%
X156000000Y-65000000D02*
X151500000Y-60500000D01*
X156000000Y-67040000D02*
X156000000Y-65000000D01*
X154040000Y-69000000D02*
X156000000Y-67040000D01*
D23*
%TO.N,+5V*%
X151000000Y-63000000D02*
X148960000Y-60960000D01*
D24*
%TO.N,Net-(D2-K)*%
X139710000Y-81790000D02*
X140000000Y-81500000D01*
X139710000Y-87500000D02*
X139710000Y-81790000D01*
%TO.N,Net-(D1-K)*%
X159710000Y-81790000D02*
X160000000Y-81500000D01*
X159710000Y-87500000D02*
X159710000Y-81790000D01*
%TO.N,Net-(D7-K)*%
X103900364Y-90099636D02*
X104000000Y-90000000D01*
X103900364Y-91837864D02*
X103900364Y-90099636D01*
%TO.N,Net-(D5-K)*%
X110242136Y-108257864D02*
X110500000Y-108000000D01*
X108310364Y-108257864D02*
X110242136Y-108257864D01*
%TO.N,Net-(D6-K)*%
X109957940Y-99457940D02*
X110000000Y-99500000D01*
X108281103Y-99457940D02*
X109957940Y-99457940D01*
%TO.N,Net-(D3-K)*%
X97777864Y-120277864D02*
X98000000Y-120500000D01*
X96290364Y-120277864D02*
X97777864Y-120277864D01*
%TO.N,Net-(D8-K)*%
X96270364Y-85729636D02*
X96500000Y-85500000D01*
X96270364Y-87437864D02*
X96270364Y-85729636D01*
%TO.N,Net-(D12-A)*%
X94220364Y-88720364D02*
X95000000Y-89500000D01*
X94220364Y-87437864D02*
X94220364Y-88720364D01*
%TO.N,Net-(D4-K)*%
X105000000Y-115877864D02*
X105122137Y-116000001D01*
X103900364Y-115877864D02*
X105000000Y-115877864D01*
%TO.N,+5V*%
X101850364Y-116149636D02*
X101850364Y-115877864D01*
D23*
X99500000Y-118500000D02*
X101850364Y-116149636D01*
X96018228Y-118500000D02*
X99500000Y-118500000D01*
X94240364Y-120277864D02*
X96018228Y-118500000D01*
X101850364Y-94850364D02*
X101850364Y-91837864D01*
D24*
X106231103Y-99457940D02*
X106231103Y-99231103D01*
D23*
X106231103Y-99231103D02*
X101850364Y-94850364D01*
D24*
X106260364Y-107760364D02*
X106231103Y-107731103D01*
X106260364Y-108257864D02*
X106260364Y-107760364D01*
D23*
X106231103Y-107731103D02*
X106231103Y-99457940D01*
X101850364Y-112667864D02*
X106260364Y-108257864D01*
X101850364Y-115877864D02*
X101850364Y-112667864D01*
X90857864Y-116895364D02*
X94240364Y-120277864D01*
X90857864Y-108857864D02*
X90857864Y-116895364D01*
D24*
%TO.N,/LED6*%
X142000000Y-87250000D02*
X142250000Y-87500000D01*
%TO.N,Net-(D2-K)*%
X139500000Y-81500000D02*
X140000000Y-81500000D01*
D23*
%TO.N,+5V*%
X101337864Y-91837864D02*
X101850364Y-91837864D01*
X99000000Y-89500000D02*
X101337864Y-91837864D01*
X99000000Y-68000000D02*
X99000000Y-89500000D01*
X104000000Y-63000000D02*
X99000000Y-68000000D01*
X154040000Y-66040000D02*
X151000000Y-63000000D01*
%TD*%
%TA.AperFunction,Conductor*%
%TO.N,GND*%
G36*
X135250119Y-59301250D02*
G01*
X135317054Y-59321268D01*
X135362545Y-59374300D01*
X135372142Y-59443507D01*
X135342800Y-59506917D01*
X135337176Y-59512928D01*
X135229889Y-59620215D01*
X135104951Y-59792179D01*
X135008444Y-59981585D01*
X134942753Y-60183760D01*
X134941291Y-60192993D01*
X134909500Y-60393713D01*
X134909500Y-60606287D01*
X134942754Y-60816243D01*
X134998998Y-60989344D01*
X135008444Y-61018414D01*
X135104951Y-61207820D01*
X135229890Y-61379786D01*
X135380213Y-61530109D01*
X135552179Y-61655048D01*
X135552181Y-61655049D01*
X135552184Y-61655051D01*
X135741588Y-61751557D01*
X135943757Y-61817246D01*
X136153713Y-61850500D01*
X136153714Y-61850500D01*
X136366286Y-61850500D01*
X136366287Y-61850500D01*
X136576243Y-61817246D01*
X136778412Y-61751557D01*
X136967816Y-61655051D01*
X137054471Y-61592093D01*
X137139786Y-61530109D01*
X137139788Y-61530106D01*
X137139792Y-61530104D01*
X137290104Y-61379792D01*
X137290106Y-61379788D01*
X137290109Y-61379786D01*
X137415048Y-61207820D01*
X137415047Y-61207820D01*
X137415051Y-61207816D01*
X137419514Y-61199054D01*
X137467488Y-61148259D01*
X137535308Y-61131463D01*
X137601444Y-61153999D01*
X137640486Y-61199056D01*
X137644951Y-61207820D01*
X137769890Y-61379786D01*
X137920213Y-61530109D01*
X138092179Y-61655048D01*
X138092181Y-61655049D01*
X138092184Y-61655051D01*
X138281588Y-61751557D01*
X138483757Y-61817246D01*
X138693713Y-61850500D01*
X138693714Y-61850500D01*
X138906286Y-61850500D01*
X138906287Y-61850500D01*
X139116243Y-61817246D01*
X139318412Y-61751557D01*
X139507816Y-61655051D01*
X139594471Y-61592093D01*
X139679786Y-61530109D01*
X139679788Y-61530106D01*
X139679792Y-61530104D01*
X139830104Y-61379792D01*
X139830106Y-61379788D01*
X139830109Y-61379786D01*
X139955048Y-61207820D01*
X139955047Y-61207820D01*
X139955051Y-61207816D01*
X139959514Y-61199054D01*
X140007488Y-61148259D01*
X140075308Y-61131463D01*
X140141444Y-61153999D01*
X140180486Y-61199056D01*
X140184951Y-61207820D01*
X140309890Y-61379786D01*
X140460213Y-61530109D01*
X140632179Y-61655048D01*
X140632181Y-61655049D01*
X140632184Y-61655051D01*
X140821588Y-61751557D01*
X141023757Y-61817246D01*
X141233713Y-61850500D01*
X141233714Y-61850500D01*
X141446286Y-61850500D01*
X141446287Y-61850500D01*
X141656243Y-61817246D01*
X141858412Y-61751557D01*
X142047816Y-61655051D01*
X142134471Y-61592093D01*
X142219786Y-61530109D01*
X142219788Y-61530106D01*
X142219792Y-61530104D01*
X142370104Y-61379792D01*
X142370106Y-61379788D01*
X142370109Y-61379786D01*
X142495048Y-61207820D01*
X142495047Y-61207820D01*
X142495051Y-61207816D01*
X142499514Y-61199054D01*
X142547488Y-61148259D01*
X142615308Y-61131463D01*
X142681444Y-61153999D01*
X142720486Y-61199056D01*
X142724951Y-61207820D01*
X142849890Y-61379786D01*
X143000213Y-61530109D01*
X143172179Y-61655048D01*
X143172181Y-61655049D01*
X143172184Y-61655051D01*
X143361588Y-61751557D01*
X143563757Y-61817246D01*
X143773713Y-61850500D01*
X143773714Y-61850500D01*
X143986286Y-61850500D01*
X143986287Y-61850500D01*
X144196243Y-61817246D01*
X144398412Y-61751557D01*
X144587816Y-61655051D01*
X144674471Y-61592093D01*
X144759786Y-61530109D01*
X144759788Y-61530106D01*
X144759792Y-61530104D01*
X144910104Y-61379792D01*
X144910106Y-61379788D01*
X144910109Y-61379786D01*
X145035048Y-61207820D01*
X145035047Y-61207820D01*
X145035051Y-61207816D01*
X145039514Y-61199054D01*
X145087488Y-61148259D01*
X145155308Y-61131463D01*
X145221444Y-61153999D01*
X145260486Y-61199056D01*
X145264951Y-61207820D01*
X145389890Y-61379786D01*
X145540213Y-61530109D01*
X145712179Y-61655048D01*
X145712181Y-61655049D01*
X145712184Y-61655051D01*
X145901588Y-61751557D01*
X146103757Y-61817246D01*
X146313713Y-61850500D01*
X146313714Y-61850500D01*
X146526286Y-61850500D01*
X146526287Y-61850500D01*
X146736243Y-61817246D01*
X146938412Y-61751557D01*
X147127816Y-61655051D01*
X147214471Y-61592093D01*
X147299786Y-61530109D01*
X147299788Y-61530106D01*
X147299792Y-61530104D01*
X147450104Y-61379792D01*
X147450106Y-61379788D01*
X147450109Y-61379786D01*
X147575048Y-61207820D01*
X147575047Y-61207820D01*
X147575051Y-61207816D01*
X147579514Y-61199054D01*
X147627488Y-61148259D01*
X147695308Y-61131463D01*
X147761444Y-61153999D01*
X147800486Y-61199056D01*
X147804951Y-61207820D01*
X147929890Y-61379786D01*
X148080213Y-61530109D01*
X148252179Y-61655048D01*
X148252181Y-61655049D01*
X148252184Y-61655051D01*
X148337861Y-61698705D01*
X148441583Y-61751555D01*
X148441585Y-61751555D01*
X148441588Y-61751557D01*
X148529206Y-61780026D01*
X148643756Y-61817246D01*
X148694875Y-61825342D01*
X148737183Y-61832043D01*
X148800318Y-61861972D01*
X148805467Y-61866835D01*
X148976451Y-62037819D01*
X149009936Y-62099142D01*
X149004952Y-62168834D01*
X148963080Y-62224767D01*
X148897616Y-62249184D01*
X148888770Y-62249500D01*
X103926080Y-62249500D01*
X103781092Y-62278340D01*
X103781086Y-62278342D01*
X103644508Y-62334914D01*
X103644496Y-62334921D01*
X103595269Y-62367813D01*
X103521588Y-62417044D01*
X103521580Y-62417050D01*
X98417050Y-67521580D01*
X98417044Y-67521588D01*
X98367812Y-67595268D01*
X98367813Y-67595269D01*
X98334921Y-67644496D01*
X98334914Y-67644508D01*
X98278342Y-67781086D01*
X98278340Y-67781092D01*
X98249500Y-67926079D01*
X98249500Y-67926082D01*
X98249500Y-89573918D01*
X98249500Y-89573920D01*
X98249499Y-89573920D01*
X98278340Y-89718907D01*
X98278343Y-89718917D01*
X98334912Y-89855488D01*
X98334915Y-89855494D01*
X98334916Y-89855495D01*
X98343170Y-89867848D01*
X98343171Y-89867851D01*
X98417046Y-89978414D01*
X98417052Y-89978421D01*
X100743484Y-92304852D01*
X100776969Y-92366175D01*
X100779161Y-92379931D01*
X100785365Y-92440661D01*
X100785365Y-92440663D01*
X100825364Y-92561369D01*
X100840550Y-92607198D01*
X100926607Y-92746720D01*
X100932653Y-92756521D01*
X101061815Y-92885683D01*
X101059923Y-92887574D01*
X101093138Y-92934447D01*
X101099864Y-92974731D01*
X101099864Y-94924282D01*
X101099864Y-94924284D01*
X101099863Y-94924284D01*
X101128704Y-95069271D01*
X101128707Y-95069281D01*
X101185278Y-95205856D01*
X101218176Y-95255091D01*
X101218177Y-95255094D01*
X101267410Y-95328778D01*
X101267416Y-95328785D01*
X105119284Y-99180651D01*
X105152769Y-99241974D01*
X105155603Y-99268332D01*
X105155603Y-99957941D01*
X105155604Y-99957959D01*
X105166103Y-100060736D01*
X105166104Y-100060739D01*
X105192627Y-100140778D01*
X105221289Y-100227274D01*
X105307346Y-100366796D01*
X105313392Y-100376597D01*
X105442554Y-100505759D01*
X105440662Y-100507650D01*
X105473877Y-100554523D01*
X105480603Y-100594807D01*
X105480603Y-107149894D01*
X105460918Y-107216933D01*
X105444285Y-107237575D01*
X105342651Y-107339209D01*
X105250551Y-107488527D01*
X105250549Y-107488532D01*
X105235364Y-107534358D01*
X105195365Y-107655067D01*
X105195365Y-107655068D01*
X105195364Y-107655068D01*
X105184864Y-107757847D01*
X105184864Y-108220633D01*
X105165179Y-108287672D01*
X105148545Y-108308314D01*
X101267409Y-112189450D01*
X101237794Y-112233776D01*
X101237792Y-112233779D01*
X101185278Y-112312371D01*
X101128707Y-112448946D01*
X101128704Y-112448956D01*
X101099864Y-112593943D01*
X101099864Y-114740996D01*
X101080179Y-114808035D01*
X101060980Y-114829210D01*
X101061815Y-114830045D01*
X100932653Y-114959206D01*
X100840551Y-115108527D01*
X100840549Y-115108532D01*
X100830613Y-115138518D01*
X100785365Y-115275067D01*
X100785365Y-115275068D01*
X100785364Y-115275068D01*
X100774864Y-115377847D01*
X100774864Y-116112405D01*
X100755179Y-116179444D01*
X100738545Y-116200086D01*
X99225451Y-117713181D01*
X99164128Y-117746666D01*
X99137770Y-117749500D01*
X95944308Y-117749500D01*
X95799320Y-117778340D01*
X95799310Y-117778343D01*
X95662739Y-117834912D01*
X95662726Y-117834919D01*
X95539812Y-117917048D01*
X95539808Y-117917051D01*
X94415815Y-119041045D01*
X94388887Y-119055748D01*
X94363069Y-119072341D01*
X94356868Y-119073232D01*
X94354492Y-119074530D01*
X94328134Y-119077364D01*
X94152593Y-119077364D01*
X94085554Y-119057679D01*
X94064912Y-119041045D01*
X91644683Y-116620815D01*
X91611198Y-116559492D01*
X91608364Y-116533134D01*
X91608364Y-113399024D01*
X91945554Y-113399024D01*
X91945554Y-113635219D01*
X91982500Y-113868490D01*
X92055487Y-114093118D01*
X92162711Y-114303555D01*
X92301537Y-114494632D01*
X92468544Y-114661639D01*
X92659621Y-114800465D01*
X92717675Y-114830045D01*
X92870057Y-114907688D01*
X92870059Y-114907688D01*
X92870062Y-114907690D01*
X92990466Y-114946811D01*
X93094685Y-114980675D01*
X93327957Y-115017622D01*
X93327962Y-115017622D01*
X93564151Y-115017622D01*
X93797422Y-114980675D01*
X93846049Y-114964875D01*
X94022046Y-114907690D01*
X94232487Y-114800465D01*
X94423564Y-114661639D01*
X94590571Y-114494632D01*
X94729397Y-114303555D01*
X94836622Y-114093114D01*
X94909607Y-113868490D01*
X94946554Y-113635219D01*
X94946554Y-113399024D01*
X94909607Y-113165753D01*
X94865528Y-113030093D01*
X94836622Y-112941130D01*
X94836620Y-112941127D01*
X94836620Y-112941125D01*
X94729396Y-112730688D01*
X94590571Y-112539612D01*
X94423564Y-112372605D01*
X94232487Y-112233779D01*
X94190148Y-112212206D01*
X94022050Y-112126555D01*
X93797422Y-112053568D01*
X93564151Y-112016622D01*
X93564146Y-112016622D01*
X93327962Y-112016622D01*
X93327957Y-112016622D01*
X93094685Y-112053568D01*
X92870057Y-112126555D01*
X92659620Y-112233779D01*
X92551451Y-112312369D01*
X92468544Y-112372605D01*
X92468542Y-112372607D01*
X92468541Y-112372607D01*
X92301539Y-112539609D01*
X92301539Y-112539610D01*
X92301537Y-112539612D01*
X92262063Y-112593943D01*
X92162711Y-112730688D01*
X92055487Y-112941125D01*
X91982500Y-113165753D01*
X91945554Y-113399024D01*
X91608364Y-113399024D01*
X91608364Y-110810766D01*
X96428364Y-110810766D01*
X96428364Y-111046961D01*
X96465310Y-111280232D01*
X96538297Y-111504860D01*
X96645521Y-111715297D01*
X96784347Y-111906374D01*
X96951354Y-112073381D01*
X97142431Y-112212207D01*
X97241855Y-112262866D01*
X97352867Y-112319430D01*
X97352869Y-112319430D01*
X97352872Y-112319432D01*
X97473276Y-112358553D01*
X97577495Y-112392417D01*
X97810767Y-112429364D01*
X97810772Y-112429364D01*
X98046961Y-112429364D01*
X98280232Y-112392417D01*
X98504856Y-112319432D01*
X98715297Y-112212207D01*
X98906374Y-112073381D01*
X99073381Y-111906374D01*
X99212207Y-111715297D01*
X99319432Y-111504856D01*
X99392417Y-111280232D01*
X99429364Y-111046961D01*
X99429364Y-110810766D01*
X99392417Y-110577495D01*
X99319430Y-110352867D01*
X99234155Y-110185507D01*
X99212207Y-110142431D01*
X99073381Y-109951354D01*
X98906374Y-109784347D01*
X98715297Y-109645521D01*
X98712895Y-109644297D01*
X98504860Y-109538297D01*
X98280232Y-109465310D01*
X98046961Y-109428364D01*
X98046956Y-109428364D01*
X97810772Y-109428364D01*
X97810767Y-109428364D01*
X97577495Y-109465310D01*
X97352867Y-109538297D01*
X97142430Y-109645521D01*
X97033414Y-109724726D01*
X96951354Y-109784347D01*
X96951352Y-109784349D01*
X96951351Y-109784349D01*
X96784349Y-109951351D01*
X96784349Y-109951352D01*
X96784347Y-109951354D01*
X96747276Y-110002378D01*
X96645521Y-110142430D01*
X96538297Y-110352867D01*
X96465310Y-110577495D01*
X96428364Y-110810766D01*
X91608364Y-110810766D01*
X91608364Y-110230495D01*
X91628049Y-110163456D01*
X91659478Y-110130177D01*
X91835374Y-110002381D01*
X92002381Y-109835374D01*
X92141207Y-109644297D01*
X92248432Y-109433856D01*
X92321417Y-109209232D01*
X92327496Y-109170853D01*
X92358364Y-108975961D01*
X92358364Y-108739766D01*
X92321417Y-108506495D01*
X92265426Y-108334174D01*
X92248432Y-108281872D01*
X92248430Y-108281869D01*
X92248430Y-108281867D01*
X92141206Y-108071430D01*
X92002381Y-107880354D01*
X91835374Y-107713347D01*
X91644297Y-107574521D01*
X91433860Y-107467297D01*
X91209232Y-107394310D01*
X90975961Y-107357364D01*
X90975956Y-107357364D01*
X90739772Y-107357364D01*
X90739767Y-107357364D01*
X90506495Y-107394310D01*
X90281867Y-107467297D01*
X90071430Y-107574521D01*
X89995855Y-107629430D01*
X89880354Y-107713347D01*
X89880352Y-107713349D01*
X89880351Y-107713349D01*
X89713349Y-107880351D01*
X89713349Y-107880352D01*
X89713347Y-107880354D01*
X89683701Y-107921158D01*
X89574521Y-108071430D01*
X89467297Y-108281867D01*
X89394310Y-108506495D01*
X89357364Y-108739766D01*
X89357364Y-108975961D01*
X89394310Y-109209232D01*
X89467297Y-109433860D01*
X89520511Y-109538297D01*
X89574521Y-109644297D01*
X89713347Y-109835374D01*
X89880354Y-110002381D01*
X90056250Y-110130177D01*
X90098915Y-110185507D01*
X90107364Y-110230495D01*
X90107364Y-116969282D01*
X90107364Y-116969284D01*
X90107363Y-116969284D01*
X90136204Y-117114271D01*
X90136207Y-117114281D01*
X90192778Y-117250856D01*
X90225676Y-117300091D01*
X90225677Y-117300094D01*
X90274910Y-117373778D01*
X90274916Y-117373785D01*
X93128545Y-120227412D01*
X93162030Y-120288735D01*
X93164864Y-120315093D01*
X93164864Y-120777865D01*
X93164865Y-120777883D01*
X93175364Y-120880660D01*
X93175365Y-120880663D01*
X93230549Y-121047195D01*
X93230550Y-121047198D01*
X93322652Y-121196520D01*
X93446708Y-121320576D01*
X93596030Y-121412678D01*
X93762567Y-121467863D01*
X93865355Y-121478364D01*
X94615372Y-121478363D01*
X94615380Y-121478362D01*
X94615383Y-121478362D01*
X94671666Y-121472612D01*
X94718161Y-121467863D01*
X94884698Y-121412678D01*
X95034020Y-121320576D01*
X95158076Y-121196520D01*
X95159825Y-121193683D01*
X95161533Y-121192147D01*
X95162557Y-121190853D01*
X95162778Y-121191027D01*
X95211770Y-121146960D01*
X95280732Y-121135736D01*
X95344815Y-121163577D01*
X95370901Y-121193681D01*
X95372652Y-121196520D01*
X95496708Y-121320576D01*
X95646030Y-121412678D01*
X95812567Y-121467863D01*
X95915355Y-121478364D01*
X96665372Y-121478363D01*
X96665380Y-121478362D01*
X96665383Y-121478362D01*
X96721666Y-121472612D01*
X96768161Y-121467863D01*
X96934698Y-121412678D01*
X97084020Y-121320576D01*
X97208076Y-121196520D01*
X97261701Y-121109579D01*
X97313645Y-121062857D01*
X97382607Y-121051634D01*
X97446689Y-121079477D01*
X97454918Y-121086997D01*
X97489707Y-121121786D01*
X97489711Y-121121789D01*
X97620814Y-121209390D01*
X97620827Y-121209397D01*
X97766498Y-121269735D01*
X97766503Y-121269737D01*
X97921153Y-121300499D01*
X97921156Y-121300500D01*
X97921158Y-121300500D01*
X98078844Y-121300500D01*
X98078845Y-121300499D01*
X98233497Y-121269737D01*
X98379179Y-121209394D01*
X98510289Y-121121789D01*
X98621789Y-121010289D01*
X98709394Y-120879179D01*
X98769737Y-120733497D01*
X98800500Y-120578842D01*
X98800500Y-120421158D01*
X98800500Y-120421155D01*
X98800499Y-120421153D01*
X98769738Y-120266510D01*
X98769737Y-120266503D01*
X98753545Y-120227412D01*
X98709397Y-120120827D01*
X98709390Y-120120814D01*
X98621789Y-119989711D01*
X98621786Y-119989707D01*
X98510292Y-119878213D01*
X98510288Y-119878210D01*
X98379185Y-119790609D01*
X98379172Y-119790602D01*
X98233501Y-119730264D01*
X98233489Y-119730261D01*
X98078845Y-119699500D01*
X98078842Y-119699500D01*
X97955862Y-119699500D01*
X97923769Y-119695275D01*
X97897538Y-119688246D01*
X97856921Y-119677363D01*
X97698807Y-119677363D01*
X97691211Y-119677363D01*
X97691195Y-119677364D01*
X97445665Y-119677364D01*
X97378626Y-119657679D01*
X97332871Y-119604875D01*
X97327959Y-119592368D01*
X97300178Y-119508530D01*
X97300174Y-119508523D01*
X97257660Y-119439596D01*
X97239220Y-119372204D01*
X97260143Y-119305540D01*
X97313785Y-119260771D01*
X97363199Y-119250500D01*
X99573920Y-119250500D01*
X99671462Y-119231096D01*
X99718913Y-119221658D01*
X99855495Y-119165084D01*
X99904729Y-119132186D01*
X99978416Y-119082952D01*
X101946684Y-117114681D01*
X102008007Y-117081197D01*
X102034365Y-117078363D01*
X102225366Y-117078363D01*
X102225372Y-117078363D01*
X102328161Y-117067863D01*
X102494698Y-117012678D01*
X102644020Y-116920576D01*
X102768076Y-116796520D01*
X102769825Y-116793683D01*
X102771533Y-116792147D01*
X102772557Y-116790853D01*
X102772778Y-116791027D01*
X102821770Y-116746960D01*
X102890732Y-116735736D01*
X102954815Y-116763577D01*
X102980901Y-116793681D01*
X102982652Y-116796520D01*
X103106708Y-116920576D01*
X103256030Y-117012678D01*
X103422567Y-117067863D01*
X103525355Y-117078364D01*
X104275372Y-117078363D01*
X104275380Y-117078362D01*
X104275383Y-117078362D01*
X104331666Y-117072612D01*
X104378161Y-117067863D01*
X104544698Y-117012678D01*
X104694020Y-116920576D01*
X104805257Y-116809338D01*
X104866576Y-116775856D01*
X104917126Y-116775405D01*
X105043290Y-116800500D01*
X105043293Y-116800501D01*
X105043295Y-116800501D01*
X105200981Y-116800501D01*
X105200982Y-116800500D01*
X105355634Y-116769738D01*
X105501316Y-116709395D01*
X105632426Y-116621790D01*
X105743926Y-116510290D01*
X105831531Y-116379180D01*
X105891874Y-116233498D01*
X105922637Y-116078843D01*
X105922637Y-115921159D01*
X105922637Y-115921156D01*
X105922636Y-115921154D01*
X105891875Y-115766511D01*
X105891874Y-115766504D01*
X105831531Y-115620822D01*
X105831530Y-115620821D01*
X105831527Y-115620815D01*
X105743926Y-115489712D01*
X105743923Y-115489708D01*
X105632429Y-115378214D01*
X105632425Y-115378211D01*
X105501322Y-115290610D01*
X105501309Y-115290603D01*
X105355638Y-115230265D01*
X105355626Y-115230262D01*
X105200982Y-115199501D01*
X105200979Y-115199501D01*
X105043295Y-115199501D01*
X105043292Y-115199501D01*
X105042246Y-115199604D01*
X105041703Y-115199501D01*
X105037204Y-115199501D01*
X105037204Y-115198647D01*
X104973600Y-115186584D01*
X104922891Y-115138518D01*
X104912391Y-115115209D01*
X104910178Y-115108530D01*
X104818076Y-114959208D01*
X104694020Y-114835152D01*
X104680972Y-114827104D01*
X104544704Y-114743053D01*
X104544699Y-114743051D01*
X104544698Y-114743050D01*
X104490266Y-114725013D01*
X139650000Y-114725013D01*
X139650000Y-115250000D01*
X140595854Y-115250000D01*
X140557370Y-115316657D01*
X140525000Y-115437465D01*
X140525000Y-115562535D01*
X140557370Y-115683343D01*
X140595854Y-115750000D01*
X139650001Y-115750000D01*
X139650001Y-116274986D01*
X139660494Y-116377697D01*
X139715641Y-116544119D01*
X139715643Y-116544124D01*
X139807684Y-116693345D01*
X139931654Y-116817315D01*
X140080875Y-116909356D01*
X140080880Y-116909358D01*
X140247302Y-116964505D01*
X140247309Y-116964506D01*
X140350019Y-116974999D01*
X140749999Y-116974999D01*
X140750000Y-116974998D01*
X140750000Y-115904145D01*
X140816657Y-115942630D01*
X140937465Y-115975000D01*
X141062535Y-115975000D01*
X141183343Y-115942630D01*
X141250000Y-115904145D01*
X141250000Y-116974999D01*
X141649972Y-116974999D01*
X141649986Y-116974998D01*
X141752697Y-116964505D01*
X141919119Y-116909358D01*
X141919124Y-116909356D01*
X142068345Y-116817315D01*
X142192317Y-116693343D01*
X142287815Y-116538516D01*
X142339763Y-116491791D01*
X142408725Y-116480568D01*
X142472808Y-116508412D01*
X142481035Y-116515931D01*
X142620213Y-116655109D01*
X142792179Y-116780048D01*
X142792181Y-116780049D01*
X142792184Y-116780051D01*
X142981588Y-116876557D01*
X143183757Y-116942246D01*
X143393713Y-116975500D01*
X143393714Y-116975500D01*
X143606286Y-116975500D01*
X143606287Y-116975500D01*
X143816243Y-116942246D01*
X144018412Y-116876557D01*
X144207816Y-116780051D01*
X144268811Y-116735736D01*
X144379786Y-116655109D01*
X144379788Y-116655106D01*
X144379792Y-116655104D01*
X144530104Y-116504792D01*
X144649683Y-116340204D01*
X144705011Y-116297540D01*
X144774624Y-116291561D01*
X144836420Y-116324166D01*
X144850313Y-116340199D01*
X144878639Y-116379186D01*
X144969896Y-116504792D01*
X145120213Y-116655109D01*
X145292179Y-116780048D01*
X145292181Y-116780049D01*
X145292184Y-116780051D01*
X145481588Y-116876557D01*
X145683757Y-116942246D01*
X145893713Y-116975500D01*
X145893714Y-116975500D01*
X146106286Y-116975500D01*
X146106287Y-116975500D01*
X146316243Y-116942246D01*
X146518412Y-116876557D01*
X146707816Y-116780051D01*
X146768811Y-116735736D01*
X146879786Y-116655109D01*
X146879788Y-116655106D01*
X146879792Y-116655104D01*
X147030104Y-116504792D01*
X147030106Y-116504788D01*
X147030109Y-116504786D01*
X147155048Y-116332820D01*
X147155047Y-116332820D01*
X147155051Y-116332816D01*
X147251557Y-116143412D01*
X147317246Y-115941243D01*
X147350500Y-115731287D01*
X147350500Y-115268713D01*
X147317246Y-115058757D01*
X147251557Y-114856588D01*
X147250000Y-114853532D01*
X147211597Y-114778160D01*
X147211596Y-114778159D01*
X147184516Y-114725013D01*
X155150000Y-114725013D01*
X155150000Y-115250000D01*
X156095854Y-115250000D01*
X156057370Y-115316657D01*
X156025000Y-115437465D01*
X156025000Y-115562535D01*
X156057370Y-115683343D01*
X156095854Y-115750000D01*
X155150001Y-115750000D01*
X155150001Y-116274986D01*
X155160494Y-116377697D01*
X155215641Y-116544119D01*
X155215643Y-116544124D01*
X155307684Y-116693345D01*
X155431654Y-116817315D01*
X155580875Y-116909356D01*
X155580880Y-116909358D01*
X155747302Y-116964505D01*
X155747309Y-116964506D01*
X155850019Y-116974999D01*
X156249999Y-116974999D01*
X156250000Y-116974998D01*
X156250000Y-115904145D01*
X156316657Y-115942630D01*
X156437465Y-115975000D01*
X156562535Y-115975000D01*
X156683343Y-115942630D01*
X156750000Y-115904145D01*
X156750000Y-116974999D01*
X157149972Y-116974999D01*
X157149986Y-116974998D01*
X157252697Y-116964505D01*
X157419119Y-116909358D01*
X157419124Y-116909356D01*
X157568345Y-116817315D01*
X157692317Y-116693343D01*
X157787815Y-116538516D01*
X157839763Y-116491791D01*
X157908725Y-116480568D01*
X157972808Y-116508412D01*
X157981035Y-116515931D01*
X158120213Y-116655109D01*
X158292179Y-116780048D01*
X158292181Y-116780049D01*
X158292184Y-116780051D01*
X158481588Y-116876557D01*
X158683757Y-116942246D01*
X158893713Y-116975500D01*
X158893714Y-116975500D01*
X159106286Y-116975500D01*
X159106287Y-116975500D01*
X159316243Y-116942246D01*
X159518412Y-116876557D01*
X159707816Y-116780051D01*
X159768811Y-116735736D01*
X159879786Y-116655109D01*
X159879788Y-116655106D01*
X159879792Y-116655104D01*
X160030104Y-116504792D01*
X160149683Y-116340204D01*
X160205011Y-116297540D01*
X160274624Y-116291561D01*
X160336420Y-116324166D01*
X160350313Y-116340199D01*
X160378639Y-116379186D01*
X160469896Y-116504792D01*
X160620213Y-116655109D01*
X160792179Y-116780048D01*
X160792181Y-116780049D01*
X160792184Y-116780051D01*
X160981588Y-116876557D01*
X161183757Y-116942246D01*
X161393713Y-116975500D01*
X161393714Y-116975500D01*
X161606286Y-116975500D01*
X161606287Y-116975500D01*
X161816243Y-116942246D01*
X162018412Y-116876557D01*
X162207816Y-116780051D01*
X162268811Y-116735736D01*
X162379786Y-116655109D01*
X162379788Y-116655106D01*
X162379792Y-116655104D01*
X162530104Y-116504792D01*
X162530106Y-116504788D01*
X162530109Y-116504786D01*
X162655048Y-116332820D01*
X162655047Y-116332820D01*
X162655051Y-116332816D01*
X162751557Y-116143412D01*
X162817246Y-115941243D01*
X162850500Y-115731287D01*
X162850500Y-115268713D01*
X162817246Y-115058757D01*
X162751557Y-114856588D01*
X162655051Y-114667184D01*
X162655049Y-114667181D01*
X162655048Y-114667179D01*
X162530109Y-114495213D01*
X162379786Y-114344890D01*
X162207820Y-114219951D01*
X162018414Y-114123444D01*
X162018413Y-114123443D01*
X162018412Y-114123443D01*
X161816243Y-114057754D01*
X161816241Y-114057753D01*
X161816240Y-114057753D01*
X161654957Y-114032208D01*
X161606287Y-114024500D01*
X161393713Y-114024500D01*
X161345042Y-114032208D01*
X161183760Y-114057753D01*
X160981585Y-114123444D01*
X160792179Y-114219951D01*
X160620213Y-114344890D01*
X160469894Y-114495209D01*
X160469890Y-114495214D01*
X160350318Y-114659793D01*
X160294989Y-114702459D01*
X160225375Y-114708438D01*
X160163580Y-114675833D01*
X160149682Y-114659793D01*
X160030109Y-114495214D01*
X160030105Y-114495209D01*
X159879786Y-114344890D01*
X159707820Y-114219951D01*
X159518414Y-114123444D01*
X159518413Y-114123443D01*
X159518412Y-114123443D01*
X159316243Y-114057754D01*
X159316241Y-114057753D01*
X159316240Y-114057753D01*
X159154957Y-114032208D01*
X159106287Y-114024500D01*
X158893713Y-114024500D01*
X158845042Y-114032208D01*
X158683760Y-114057753D01*
X158481585Y-114123444D01*
X158292179Y-114219951D01*
X158120215Y-114344889D01*
X157981035Y-114484069D01*
X157919712Y-114517553D01*
X157850020Y-114512569D01*
X157794087Y-114470697D01*
X157787815Y-114461484D01*
X157692315Y-114306654D01*
X157568345Y-114182684D01*
X157419124Y-114090643D01*
X157419119Y-114090641D01*
X157252697Y-114035494D01*
X157252690Y-114035493D01*
X157149986Y-114025000D01*
X156750000Y-114025000D01*
X156750000Y-115095854D01*
X156683343Y-115057370D01*
X156562535Y-115025000D01*
X156437465Y-115025000D01*
X156316657Y-115057370D01*
X156250000Y-115095854D01*
X156250000Y-114025000D01*
X155850028Y-114025000D01*
X155850012Y-114025001D01*
X155747302Y-114035494D01*
X155580880Y-114090641D01*
X155580875Y-114090643D01*
X155431654Y-114182684D01*
X155307684Y-114306654D01*
X155215643Y-114455875D01*
X155215641Y-114455880D01*
X155160494Y-114622302D01*
X155160493Y-114622309D01*
X155150000Y-114725013D01*
X147184516Y-114725013D01*
X147165588Y-114687865D01*
X147155051Y-114667184D01*
X147122443Y-114622302D01*
X147030109Y-114495213D01*
X146879786Y-114344890D01*
X146707820Y-114219951D01*
X146518414Y-114123444D01*
X146518413Y-114123443D01*
X146518412Y-114123443D01*
X146316243Y-114057754D01*
X146316241Y-114057753D01*
X146316240Y-114057753D01*
X146154957Y-114032208D01*
X146106287Y-114024500D01*
X145893713Y-114024500D01*
X145845042Y-114032208D01*
X145683760Y-114057753D01*
X145481585Y-114123444D01*
X145292179Y-114219951D01*
X145120213Y-114344890D01*
X144969894Y-114495209D01*
X144969890Y-114495214D01*
X144850318Y-114659793D01*
X144794989Y-114702459D01*
X144725375Y-114708438D01*
X144663580Y-114675833D01*
X144649682Y-114659793D01*
X144530109Y-114495214D01*
X144530105Y-114495209D01*
X144379786Y-114344890D01*
X144207820Y-114219951D01*
X144018414Y-114123444D01*
X144018413Y-114123443D01*
X144018412Y-114123443D01*
X143816243Y-114057754D01*
X143816241Y-114057753D01*
X143816240Y-114057753D01*
X143654957Y-114032208D01*
X143606287Y-114024500D01*
X143393713Y-114024500D01*
X143345042Y-114032208D01*
X143183760Y-114057753D01*
X142981585Y-114123444D01*
X142792179Y-114219951D01*
X142620215Y-114344889D01*
X142481035Y-114484069D01*
X142419712Y-114517553D01*
X142350020Y-114512569D01*
X142294087Y-114470697D01*
X142287815Y-114461484D01*
X142192315Y-114306654D01*
X142068345Y-114182684D01*
X141919124Y-114090643D01*
X141919119Y-114090641D01*
X141752697Y-114035494D01*
X141752690Y-114035493D01*
X141649986Y-114025000D01*
X141250000Y-114025000D01*
X141250000Y-115095854D01*
X141183343Y-115057370D01*
X141062535Y-115025000D01*
X140937465Y-115025000D01*
X140816657Y-115057370D01*
X140750000Y-115095854D01*
X140750000Y-114025000D01*
X140350028Y-114025000D01*
X140350012Y-114025001D01*
X140247302Y-114035494D01*
X140080880Y-114090641D01*
X140080875Y-114090643D01*
X139931654Y-114182684D01*
X139807684Y-114306654D01*
X139715643Y-114455875D01*
X139715641Y-114455880D01*
X139660494Y-114622302D01*
X139660493Y-114622309D01*
X139650000Y-114725013D01*
X104490266Y-114725013D01*
X104378161Y-114687865D01*
X104378159Y-114687864D01*
X104275374Y-114677364D01*
X103525362Y-114677364D01*
X103525344Y-114677365D01*
X103422567Y-114687864D01*
X103422564Y-114687865D01*
X103256032Y-114743049D01*
X103256027Y-114743051D01*
X103106706Y-114835153D01*
X102982649Y-114959210D01*
X102980901Y-114962046D01*
X102979193Y-114963581D01*
X102978171Y-114964875D01*
X102977949Y-114964700D01*
X102928953Y-115008769D01*
X102859990Y-115019990D01*
X102795908Y-114992146D01*
X102786137Y-114983055D01*
X102776847Y-114973429D01*
X102768076Y-114959208D01*
X102644020Y-114835152D01*
X102642497Y-114834212D01*
X102635637Y-114827104D01*
X102623145Y-114803227D01*
X102607576Y-114781239D01*
X102605673Y-114769830D01*
X102603248Y-114765195D01*
X102603824Y-114758746D01*
X102600864Y-114740996D01*
X102600864Y-113030093D01*
X102620549Y-112963054D01*
X102637178Y-112942417D01*
X106084913Y-109494681D01*
X106146236Y-109461197D01*
X106172594Y-109458363D01*
X106635366Y-109458363D01*
X106635372Y-109458363D01*
X106738161Y-109447863D01*
X106904698Y-109392678D01*
X107054020Y-109300576D01*
X107178076Y-109176520D01*
X107179825Y-109173683D01*
X107181533Y-109172147D01*
X107182557Y-109170853D01*
X107182778Y-109171027D01*
X107231770Y-109126960D01*
X107300732Y-109115736D01*
X107364815Y-109143577D01*
X107390901Y-109173681D01*
X107392652Y-109176520D01*
X107516708Y-109300576D01*
X107666030Y-109392678D01*
X107832567Y-109447863D01*
X107935355Y-109458364D01*
X108685372Y-109458363D01*
X108685380Y-109458362D01*
X108685383Y-109458362D01*
X108741666Y-109452612D01*
X108788161Y-109447863D01*
X108954698Y-109392678D01*
X109104020Y-109300576D01*
X109228076Y-109176520D01*
X109320178Y-109027198D01*
X109347959Y-108943359D01*
X109387732Y-108885915D01*
X109452248Y-108859092D01*
X109465665Y-108858364D01*
X110155467Y-108858364D01*
X110155483Y-108858365D01*
X110163079Y-108858365D01*
X110321190Y-108858365D01*
X110321193Y-108858365D01*
X110473921Y-108817441D01*
X110474493Y-108817110D01*
X110475128Y-108816940D01*
X110481425Y-108814332D01*
X110481768Y-108815161D01*
X110536489Y-108800500D01*
X110578844Y-108800500D01*
X110578845Y-108800499D01*
X110733497Y-108769737D01*
X110879179Y-108709394D01*
X111010289Y-108621789D01*
X111121789Y-108510289D01*
X111209394Y-108379179D01*
X111269737Y-108233497D01*
X111300500Y-108078842D01*
X111300500Y-107921158D01*
X111300500Y-107921155D01*
X111300499Y-107921153D01*
X111296291Y-107900000D01*
X111269737Y-107766503D01*
X111228968Y-107668078D01*
X111223580Y-107655069D01*
X139000000Y-107655069D01*
X139000000Y-109144930D01*
X139015122Y-109279141D01*
X139074663Y-109449301D01*
X139170577Y-109601948D01*
X139298049Y-109729420D01*
X139298053Y-109729423D01*
X139309702Y-109736743D01*
X139309704Y-109736743D01*
X140226819Y-108819628D01*
X140307007Y-108865925D01*
X140434174Y-108900000D01*
X140853552Y-108900000D01*
X139853551Y-109899999D01*
X139853552Y-109900000D01*
X142146448Y-109900000D01*
X142146448Y-109899999D01*
X141146448Y-108900000D01*
X141565826Y-108900000D01*
X141692993Y-108865925D01*
X141773180Y-108819628D01*
X142690294Y-109736743D01*
X142701947Y-109729423D01*
X142701950Y-109729420D01*
X142829423Y-109601946D01*
X142925336Y-109449301D01*
X142984877Y-109279141D01*
X142999999Y-109144930D01*
X143000000Y-109144930D01*
X143000000Y-107655070D01*
X142999999Y-107655069D01*
X159000000Y-107655069D01*
X159000000Y-109144930D01*
X159015122Y-109279141D01*
X159074663Y-109449301D01*
X159170577Y-109601948D01*
X159298049Y-109729420D01*
X159298053Y-109729423D01*
X159309702Y-109736743D01*
X159309704Y-109736743D01*
X160226819Y-108819628D01*
X160307007Y-108865925D01*
X160434174Y-108900000D01*
X160853552Y-108900000D01*
X159853551Y-109899999D01*
X159853552Y-109900000D01*
X162146448Y-109900000D01*
X162146448Y-109899999D01*
X161146448Y-108900000D01*
X161565826Y-108900000D01*
X161692993Y-108865925D01*
X161773180Y-108819628D01*
X162690294Y-109736743D01*
X162701947Y-109729423D01*
X162701950Y-109729420D01*
X162829423Y-109601946D01*
X162925336Y-109449301D01*
X162984877Y-109279141D01*
X162999999Y-109144930D01*
X163000000Y-109144930D01*
X163000000Y-107655070D01*
X162999999Y-107655069D01*
X162984877Y-107520858D01*
X162925336Y-107350698D01*
X162829423Y-107198053D01*
X162701948Y-107070577D01*
X162690296Y-107063255D01*
X162690295Y-107063255D01*
X161773179Y-107980370D01*
X161692993Y-107934075D01*
X161565826Y-107900000D01*
X161146448Y-107900000D01*
X162146448Y-106900000D01*
X159853551Y-106900000D01*
X160853552Y-107900000D01*
X160434174Y-107900000D01*
X160307007Y-107934075D01*
X160226819Y-107980371D01*
X159309703Y-107063255D01*
X159309702Y-107063255D01*
X159298052Y-107070576D01*
X159170576Y-107198053D01*
X159074663Y-107350698D01*
X159015122Y-107520858D01*
X159000000Y-107655069D01*
X142999999Y-107655069D01*
X142984877Y-107520858D01*
X142925336Y-107350698D01*
X142829423Y-107198053D01*
X142701948Y-107070577D01*
X142690296Y-107063255D01*
X142690295Y-107063255D01*
X141773179Y-107980370D01*
X141692993Y-107934075D01*
X141565826Y-107900000D01*
X141146448Y-107900000D01*
X142146448Y-106900000D01*
X139853551Y-106900000D01*
X140853552Y-107900000D01*
X140434174Y-107900000D01*
X140307007Y-107934075D01*
X140226819Y-107980371D01*
X139309703Y-107063255D01*
X139309702Y-107063255D01*
X139298052Y-107070576D01*
X139170576Y-107198053D01*
X139074663Y-107350698D01*
X139015122Y-107520858D01*
X139000000Y-107655069D01*
X111223580Y-107655069D01*
X111209397Y-107620826D01*
X111209390Y-107620814D01*
X111121789Y-107489711D01*
X111121786Y-107489707D01*
X111010292Y-107378213D01*
X111010288Y-107378210D01*
X110879185Y-107290609D01*
X110879172Y-107290602D01*
X110733501Y-107230264D01*
X110733489Y-107230261D01*
X110578845Y-107199500D01*
X110578842Y-107199500D01*
X110421158Y-107199500D01*
X110421155Y-107199500D01*
X110266510Y-107230261D01*
X110266498Y-107230264D01*
X110120827Y-107290602D01*
X110120814Y-107290609D01*
X109989711Y-107378210D01*
X109989707Y-107378213D01*
X109878213Y-107489707D01*
X109878210Y-107489711D01*
X109803011Y-107602255D01*
X109796919Y-107607345D01*
X109793622Y-107614567D01*
X109770494Y-107629430D01*
X109749399Y-107647060D01*
X109740024Y-107649011D01*
X109734844Y-107652341D01*
X109699909Y-107657364D01*
X109465665Y-107657364D01*
X109398626Y-107637679D01*
X109352871Y-107584875D01*
X109347959Y-107572368D01*
X109320569Y-107489711D01*
X109320178Y-107488530D01*
X109228076Y-107339208D01*
X109104020Y-107215152D01*
X108954698Y-107123050D01*
X108788161Y-107067865D01*
X108788159Y-107067864D01*
X108685374Y-107057364D01*
X107935362Y-107057364D01*
X107935344Y-107057365D01*
X107832567Y-107067864D01*
X107832564Y-107067865D01*
X107666032Y-107123049D01*
X107666027Y-107123051D01*
X107516706Y-107215153D01*
X107392649Y-107339210D01*
X107390901Y-107342046D01*
X107389193Y-107343581D01*
X107388171Y-107344875D01*
X107387949Y-107344700D01*
X107338953Y-107388769D01*
X107269990Y-107399990D01*
X107205908Y-107372146D01*
X107179827Y-107342046D01*
X107178078Y-107339210D01*
X107054020Y-107215152D01*
X107054017Y-107215150D01*
X107040502Y-107206813D01*
X107033680Y-107199228D01*
X107024400Y-107194990D01*
X107010710Y-107173688D01*
X106993780Y-107154864D01*
X106991136Y-107143230D01*
X106986626Y-107136212D01*
X106981603Y-107101277D01*
X106981603Y-103255069D01*
X139000000Y-103255069D01*
X139000000Y-104744930D01*
X139015122Y-104879141D01*
X139074663Y-105049301D01*
X139170577Y-105201948D01*
X139298049Y-105329420D01*
X139298053Y-105329423D01*
X139309702Y-105336743D01*
X139309704Y-105336743D01*
X140226819Y-104419628D01*
X140307007Y-104465925D01*
X140434174Y-104500000D01*
X140853552Y-104500000D01*
X139853551Y-105499999D01*
X139853552Y-105500000D01*
X142146448Y-105500000D01*
X142146448Y-105499999D01*
X141146448Y-104500000D01*
X141565826Y-104500000D01*
X141692993Y-104465925D01*
X141773180Y-104419628D01*
X142690294Y-105336743D01*
X142701947Y-105329423D01*
X142701950Y-105329420D01*
X142829423Y-105201946D01*
X142925336Y-105049301D01*
X142984877Y-104879141D01*
X142999999Y-104744930D01*
X143000000Y-104744930D01*
X143000000Y-103255070D01*
X142999999Y-103255069D01*
X159000000Y-103255069D01*
X159000000Y-104744930D01*
X159015122Y-104879141D01*
X159074663Y-105049301D01*
X159170577Y-105201948D01*
X159298049Y-105329420D01*
X159298053Y-105329423D01*
X159309702Y-105336743D01*
X159309704Y-105336743D01*
X160226819Y-104419628D01*
X160307007Y-104465925D01*
X160434174Y-104500000D01*
X160853552Y-104500000D01*
X159853551Y-105499999D01*
X159853552Y-105500000D01*
X162146448Y-105500000D01*
X162146448Y-105499999D01*
X161146448Y-104500000D01*
X161565826Y-104500000D01*
X161692993Y-104465925D01*
X161773180Y-104419628D01*
X162690294Y-105336743D01*
X162701947Y-105329423D01*
X162701950Y-105329420D01*
X162829423Y-105201946D01*
X162925336Y-105049301D01*
X162984877Y-104879141D01*
X162999999Y-104744930D01*
X163000000Y-104744930D01*
X163000000Y-103255070D01*
X162999999Y-103255069D01*
X162984877Y-103120858D01*
X162925336Y-102950698D01*
X162829423Y-102798053D01*
X162701948Y-102670577D01*
X162690296Y-102663255D01*
X162690295Y-102663255D01*
X161773179Y-103580370D01*
X161692993Y-103534075D01*
X161565826Y-103500000D01*
X161146448Y-103500000D01*
X162146448Y-102500000D01*
X159853551Y-102500000D01*
X160853552Y-103500000D01*
X160434174Y-103500000D01*
X160307007Y-103534075D01*
X160226819Y-103580371D01*
X159309703Y-102663255D01*
X159309702Y-102663255D01*
X159298052Y-102670576D01*
X159170576Y-102798053D01*
X159074663Y-102950698D01*
X159015122Y-103120858D01*
X159000000Y-103255069D01*
X142999999Y-103255069D01*
X142984877Y-103120858D01*
X142925336Y-102950698D01*
X142829423Y-102798053D01*
X142701948Y-102670577D01*
X142690296Y-102663255D01*
X142690295Y-102663255D01*
X141773179Y-103580370D01*
X141692993Y-103534075D01*
X141565826Y-103500000D01*
X141146448Y-103500000D01*
X142146448Y-102500000D01*
X139853551Y-102500000D01*
X140853552Y-103500000D01*
X140434174Y-103500000D01*
X140307007Y-103534075D01*
X140226819Y-103580371D01*
X139309703Y-102663255D01*
X139309702Y-102663255D01*
X139298052Y-102670576D01*
X139170576Y-102798053D01*
X139074663Y-102950698D01*
X139015122Y-103120858D01*
X139000000Y-103255069D01*
X106981603Y-103255069D01*
X106981603Y-100594807D01*
X106989948Y-100566384D01*
X106995731Y-100537325D01*
X106999991Y-100532184D01*
X107001288Y-100527768D01*
X107016376Y-100508699D01*
X107023234Y-100501592D01*
X107024759Y-100500652D01*
X107148815Y-100376596D01*
X107157588Y-100362372D01*
X107166876Y-100352748D01*
X107186078Y-100341814D01*
X107202509Y-100327036D01*
X107215849Y-100324864D01*
X107227594Y-100318178D01*
X107249658Y-100319362D01*
X107271471Y-100315812D01*
X107283867Y-100321197D01*
X107297363Y-100321922D01*
X107315284Y-100334846D01*
X107335554Y-100343653D01*
X107348981Y-100359148D01*
X107354033Y-100362792D01*
X107355608Y-100366796D01*
X107361640Y-100373757D01*
X107363391Y-100376596D01*
X107487447Y-100500652D01*
X107636769Y-100592754D01*
X107803306Y-100647939D01*
X107906094Y-100658440D01*
X108656111Y-100658439D01*
X108656119Y-100658438D01*
X108656122Y-100658438D01*
X108712405Y-100652688D01*
X108758900Y-100647939D01*
X108925437Y-100592754D01*
X109074759Y-100500652D01*
X109198815Y-100376596D01*
X109290917Y-100227274D01*
X109304357Y-100186714D01*
X109344126Y-100129273D01*
X109408642Y-100102449D01*
X109477418Y-100114763D01*
X109490952Y-100122619D01*
X109620814Y-100209390D01*
X109620827Y-100209397D01*
X109766498Y-100269735D01*
X109766503Y-100269737D01*
X109921153Y-100300499D01*
X109921156Y-100300500D01*
X109921158Y-100300500D01*
X110078844Y-100300500D01*
X110078845Y-100300499D01*
X110233497Y-100269737D01*
X110379179Y-100209394D01*
X110510289Y-100121789D01*
X110621789Y-100010289D01*
X110709394Y-99879179D01*
X110769737Y-99733497D01*
X110800500Y-99578842D01*
X110800500Y-99421158D01*
X110800500Y-99421155D01*
X110800499Y-99421153D01*
X110781132Y-99323789D01*
X110769737Y-99266503D01*
X110745965Y-99209111D01*
X110709397Y-99120827D01*
X110709390Y-99120814D01*
X110621789Y-98989711D01*
X110621786Y-98989707D01*
X110510292Y-98878213D01*
X110510288Y-98878210D01*
X110475610Y-98855039D01*
X138999500Y-98855039D01*
X138999500Y-100344960D01*
X139014630Y-100479249D01*
X139014631Y-100479254D01*
X139074211Y-100649523D01*
X139170184Y-100802262D01*
X139297738Y-100929816D01*
X139450478Y-101025789D01*
X139620745Y-101085368D01*
X139620750Y-101085369D01*
X139711246Y-101095565D01*
X139755040Y-101100499D01*
X139755043Y-101100500D01*
X139755046Y-101100500D01*
X142244957Y-101100500D01*
X142244958Y-101100499D01*
X142312104Y-101092934D01*
X142379249Y-101085369D01*
X142379252Y-101085368D01*
X142379255Y-101085368D01*
X142549522Y-101025789D01*
X142702262Y-100929816D01*
X142829816Y-100802262D01*
X142925789Y-100649522D01*
X142985368Y-100479255D01*
X143000500Y-100344954D01*
X143000500Y-98855046D01*
X143000499Y-98855039D01*
X158999500Y-98855039D01*
X158999500Y-100344960D01*
X159014630Y-100479249D01*
X159014631Y-100479254D01*
X159074211Y-100649523D01*
X159170184Y-100802262D01*
X159297738Y-100929816D01*
X159450478Y-101025789D01*
X159620745Y-101085368D01*
X159620750Y-101085369D01*
X159711246Y-101095565D01*
X159755040Y-101100499D01*
X159755043Y-101100500D01*
X159755046Y-101100500D01*
X162244957Y-101100500D01*
X162244958Y-101100499D01*
X162312104Y-101092934D01*
X162379249Y-101085369D01*
X162379252Y-101085368D01*
X162379255Y-101085368D01*
X162549522Y-101025789D01*
X162702262Y-100929816D01*
X162829816Y-100802262D01*
X162925789Y-100649522D01*
X162985368Y-100479255D01*
X163000500Y-100344954D01*
X163000500Y-98855046D01*
X162991193Y-98772444D01*
X162985369Y-98720750D01*
X162985368Y-98720745D01*
X162965817Y-98664871D01*
X162925789Y-98550478D01*
X162918755Y-98539284D01*
X162886582Y-98488080D01*
X162829816Y-98397738D01*
X162702262Y-98270184D01*
X162624179Y-98221121D01*
X162549523Y-98174211D01*
X162379254Y-98114631D01*
X162379249Y-98114630D01*
X162244960Y-98099500D01*
X162244954Y-98099500D01*
X159755046Y-98099500D01*
X159755039Y-98099500D01*
X159620750Y-98114630D01*
X159620745Y-98114631D01*
X159450476Y-98174211D01*
X159297737Y-98270184D01*
X159170184Y-98397737D01*
X159074211Y-98550476D01*
X159014631Y-98720745D01*
X159014630Y-98720750D01*
X158999500Y-98855039D01*
X143000499Y-98855039D01*
X142991193Y-98772444D01*
X142985369Y-98720750D01*
X142985368Y-98720745D01*
X142965817Y-98664871D01*
X142925789Y-98550478D01*
X142918755Y-98539284D01*
X142886582Y-98488080D01*
X142829816Y-98397738D01*
X142702262Y-98270184D01*
X142624179Y-98221121D01*
X142549523Y-98174211D01*
X142379254Y-98114631D01*
X142379249Y-98114630D01*
X142244960Y-98099500D01*
X142244954Y-98099500D01*
X139755046Y-98099500D01*
X139755039Y-98099500D01*
X139620750Y-98114630D01*
X139620745Y-98114631D01*
X139450476Y-98174211D01*
X139297737Y-98270184D01*
X139170184Y-98397737D01*
X139074211Y-98550476D01*
X139014631Y-98720745D01*
X139014630Y-98720750D01*
X138999500Y-98855039D01*
X110475610Y-98855039D01*
X110379185Y-98790609D01*
X110379172Y-98790602D01*
X110233501Y-98730264D01*
X110233489Y-98730261D01*
X110078845Y-98699500D01*
X110078842Y-98699500D01*
X109921158Y-98699500D01*
X109921155Y-98699500D01*
X109766510Y-98730261D01*
X109766498Y-98730264D01*
X109620827Y-98790602D01*
X109620815Y-98790609D01*
X109552073Y-98836542D01*
X109534026Y-98842192D01*
X109518117Y-98852417D01*
X109487157Y-98856868D01*
X109485396Y-98857420D01*
X109483182Y-98857440D01*
X109436404Y-98857440D01*
X109369365Y-98837755D01*
X109323610Y-98784951D01*
X109318698Y-98772444D01*
X109290917Y-98688606D01*
X109198815Y-98539284D01*
X109074759Y-98415228D01*
X108925437Y-98323126D01*
X108758900Y-98267941D01*
X108758898Y-98267940D01*
X108656113Y-98257440D01*
X107906101Y-98257440D01*
X107906083Y-98257441D01*
X107803306Y-98267940D01*
X107803303Y-98267941D01*
X107636771Y-98323125D01*
X107636766Y-98323127D01*
X107487445Y-98415229D01*
X107363388Y-98539286D01*
X107361640Y-98542122D01*
X107359932Y-98543657D01*
X107358910Y-98544951D01*
X107358688Y-98544776D01*
X107309692Y-98588845D01*
X107240729Y-98600066D01*
X107176647Y-98572222D01*
X107150566Y-98542122D01*
X107148817Y-98539286D01*
X107024760Y-98415229D01*
X107024759Y-98415228D01*
X106875437Y-98323126D01*
X106708900Y-98267941D01*
X106708898Y-98267940D01*
X106606119Y-98257440D01*
X106606112Y-98257440D01*
X106370169Y-98257440D01*
X106303130Y-98237755D01*
X106282488Y-98221121D01*
X102637183Y-94575815D01*
X102603698Y-94514492D01*
X102600864Y-94488134D01*
X102600864Y-92974731D01*
X102609209Y-92946308D01*
X102614992Y-92917249D01*
X102619252Y-92912108D01*
X102620549Y-92907692D01*
X102635637Y-92888623D01*
X102642495Y-92881516D01*
X102644020Y-92880576D01*
X102768076Y-92756520D01*
X102776849Y-92742296D01*
X102786137Y-92732672D01*
X102805339Y-92721738D01*
X102821770Y-92706960D01*
X102835110Y-92704788D01*
X102846855Y-92698102D01*
X102868919Y-92699286D01*
X102890732Y-92695736D01*
X102903128Y-92701121D01*
X102916624Y-92701846D01*
X102934545Y-92714770D01*
X102954815Y-92723577D01*
X102968242Y-92739072D01*
X102973294Y-92742716D01*
X102974869Y-92746720D01*
X102980901Y-92753681D01*
X102982652Y-92756520D01*
X103106708Y-92880576D01*
X103256030Y-92972678D01*
X103422567Y-93027863D01*
X103525355Y-93038364D01*
X104275372Y-93038363D01*
X104275380Y-93038362D01*
X104275383Y-93038362D01*
X104331666Y-93032612D01*
X104378161Y-93027863D01*
X104544698Y-92972678D01*
X104694020Y-92880576D01*
X104818076Y-92756520D01*
X104910178Y-92607198D01*
X104965363Y-92440661D01*
X104975864Y-92337873D01*
X104975863Y-91337856D01*
X104965363Y-91235067D01*
X104910178Y-91068530D01*
X104818076Y-90919208D01*
X104694020Y-90795152D01*
X104694019Y-90795151D01*
X104606632Y-90741251D01*
X104559907Y-90689303D01*
X104548684Y-90620341D01*
X104576528Y-90556258D01*
X104584048Y-90548030D01*
X104621786Y-90510292D01*
X104621789Y-90510289D01*
X104709394Y-90379179D01*
X104769737Y-90233497D01*
X104800500Y-90078842D01*
X104800500Y-89921158D01*
X104800500Y-89921155D01*
X104800499Y-89921153D01*
X104792148Y-89879172D01*
X104769737Y-89766503D01*
X104756062Y-89733489D01*
X104709397Y-89620827D01*
X104709390Y-89620814D01*
X104621789Y-89489711D01*
X104621786Y-89489707D01*
X104510292Y-89378213D01*
X104510288Y-89378210D01*
X104379185Y-89290609D01*
X104379172Y-89290602D01*
X104233501Y-89230264D01*
X104233489Y-89230261D01*
X104078845Y-89199500D01*
X104078842Y-89199500D01*
X103921158Y-89199500D01*
X103921155Y-89199500D01*
X103766510Y-89230261D01*
X103766498Y-89230264D01*
X103620827Y-89290602D01*
X103620814Y-89290609D01*
X103489711Y-89378210D01*
X103489707Y-89378213D01*
X103378213Y-89489707D01*
X103378210Y-89489711D01*
X103290609Y-89620814D01*
X103290602Y-89620827D01*
X103230264Y-89766498D01*
X103230261Y-89766510D01*
X103199500Y-89921153D01*
X103199500Y-90078846D01*
X103230261Y-90233489D01*
X103230264Y-90233501D01*
X103290425Y-90378743D01*
X103292051Y-90386919D01*
X103294841Y-90391260D01*
X103299864Y-90426195D01*
X103299864Y-90606806D01*
X103280179Y-90673845D01*
X103240962Y-90712343D01*
X103194096Y-90741251D01*
X103106706Y-90795153D01*
X102982649Y-90919210D01*
X102980901Y-90922046D01*
X102979193Y-90923581D01*
X102978171Y-90924875D01*
X102977949Y-90924700D01*
X102928953Y-90968769D01*
X102859990Y-90979990D01*
X102795908Y-90952146D01*
X102769827Y-90922046D01*
X102768078Y-90919210D01*
X102644021Y-90795153D01*
X102644020Y-90795152D01*
X102494698Y-90703050D01*
X102328161Y-90647865D01*
X102328159Y-90647864D01*
X102225374Y-90637364D01*
X101475362Y-90637364D01*
X101475344Y-90637365D01*
X101372567Y-90647864D01*
X101372560Y-90647866D01*
X101322486Y-90664459D01*
X101252657Y-90666860D01*
X101195802Y-90634434D01*
X99786819Y-89225451D01*
X99753334Y-89164128D01*
X99750500Y-89137770D01*
X99750500Y-86552135D01*
X138309500Y-86552135D01*
X138309500Y-88447870D01*
X138309501Y-88447876D01*
X138315908Y-88507483D01*
X138366202Y-88642328D01*
X138366206Y-88642335D01*
X138452452Y-88757544D01*
X138452455Y-88757547D01*
X138567664Y-88843793D01*
X138567671Y-88843797D01*
X138702517Y-88894091D01*
X138702516Y-88894091D01*
X138709444Y-88894835D01*
X138762127Y-88900500D01*
X140657872Y-88900499D01*
X140717483Y-88894091D01*
X140852331Y-88843796D01*
X140967546Y-88757546D01*
X141053796Y-88642331D01*
X141054178Y-88641307D01*
X141083601Y-88562420D01*
X141125471Y-88506486D01*
X141190936Y-88482068D01*
X141259209Y-88496919D01*
X141287464Y-88518071D01*
X141337636Y-88568243D01*
X141337641Y-88568247D01*
X141493192Y-88681260D01*
X141515978Y-88697815D01*
X141644375Y-88763237D01*
X141712393Y-88797895D01*
X141712396Y-88797896D01*
X141817221Y-88831955D01*
X141922049Y-88866015D01*
X142139778Y-88900500D01*
X142139779Y-88900500D01*
X142360221Y-88900500D01*
X142360222Y-88900500D01*
X142577951Y-88866015D01*
X142787606Y-88797895D01*
X142984022Y-88697815D01*
X143162365Y-88568242D01*
X143318242Y-88412365D01*
X143447815Y-88234022D01*
X143547895Y-88037606D01*
X143616015Y-87827951D01*
X143650500Y-87610222D01*
X143650500Y-87389778D01*
X143616015Y-87172049D01*
X143547895Y-86962394D01*
X143547895Y-86962393D01*
X143483016Y-86835064D01*
X143447815Y-86765978D01*
X143377017Y-86668532D01*
X143342986Y-86621691D01*
X143318247Y-86587641D01*
X143318243Y-86587636D01*
X143282742Y-86552135D01*
X158309500Y-86552135D01*
X158309500Y-88447870D01*
X158309501Y-88447876D01*
X158315908Y-88507483D01*
X158366202Y-88642328D01*
X158366206Y-88642335D01*
X158452452Y-88757544D01*
X158452455Y-88757547D01*
X158567664Y-88843793D01*
X158567671Y-88843797D01*
X158702517Y-88894091D01*
X158702516Y-88894091D01*
X158709444Y-88894835D01*
X158762127Y-88900500D01*
X160657872Y-88900499D01*
X160717483Y-88894091D01*
X160852331Y-88843796D01*
X160967546Y-88757546D01*
X161053796Y-88642331D01*
X161054178Y-88641307D01*
X161083601Y-88562420D01*
X161125471Y-88506486D01*
X161190936Y-88482068D01*
X161259209Y-88496919D01*
X161287464Y-88518071D01*
X161337636Y-88568243D01*
X161337641Y-88568247D01*
X161493192Y-88681260D01*
X161515978Y-88697815D01*
X161644375Y-88763237D01*
X161712393Y-88797895D01*
X161712396Y-88797896D01*
X161817221Y-88831955D01*
X161922049Y-88866015D01*
X162139778Y-88900500D01*
X162139779Y-88900500D01*
X162360221Y-88900500D01*
X162360222Y-88900500D01*
X162577951Y-88866015D01*
X162787606Y-88797895D01*
X162984022Y-88697815D01*
X163162365Y-88568242D01*
X163318242Y-88412365D01*
X163447815Y-88234022D01*
X163547895Y-88037606D01*
X163616015Y-87827951D01*
X163650500Y-87610222D01*
X163650500Y-87389778D01*
X163616015Y-87172049D01*
X163547895Y-86962394D01*
X163547895Y-86962393D01*
X163483016Y-86835064D01*
X163447815Y-86765978D01*
X163377017Y-86668532D01*
X163318247Y-86587641D01*
X163318243Y-86587636D01*
X163162363Y-86431756D01*
X163162358Y-86431752D01*
X162984025Y-86302187D01*
X162984024Y-86302186D01*
X162984022Y-86302185D01*
X162921096Y-86270122D01*
X162787606Y-86202104D01*
X162787603Y-86202103D01*
X162577952Y-86133985D01*
X162469086Y-86116742D01*
X162360222Y-86099500D01*
X162139778Y-86099500D01*
X162067201Y-86110995D01*
X161922047Y-86133985D01*
X161712396Y-86202103D01*
X161712393Y-86202104D01*
X161515974Y-86302187D01*
X161337641Y-86431752D01*
X161337636Y-86431756D01*
X161287463Y-86481929D01*
X161226140Y-86515413D01*
X161156448Y-86510428D01*
X161100515Y-86468557D01*
X161083601Y-86437580D01*
X161053797Y-86357671D01*
X161053793Y-86357664D01*
X160967547Y-86242455D01*
X160967544Y-86242452D01*
X160852335Y-86156206D01*
X160852328Y-86156202D01*
X160717482Y-86105908D01*
X160717483Y-86105908D01*
X160657883Y-86099501D01*
X160657881Y-86099500D01*
X160657873Y-86099500D01*
X160657865Y-86099500D01*
X160434500Y-86099500D01*
X160367461Y-86079815D01*
X160321706Y-86027011D01*
X160310500Y-85975500D01*
X160310500Y-82821621D01*
X160330185Y-82754582D01*
X160382989Y-82708827D01*
X160421899Y-82698263D01*
X160474288Y-82692911D01*
X160502797Y-82689999D01*
X160669334Y-82634814D01*
X160818656Y-82542712D01*
X160912675Y-82448692D01*
X160973994Y-82415210D01*
X161043686Y-82420194D01*
X161088034Y-82448695D01*
X161181654Y-82542315D01*
X161330875Y-82634356D01*
X161330880Y-82634358D01*
X161497302Y-82689505D01*
X161497309Y-82689506D01*
X161600019Y-82699999D01*
X161749999Y-82699999D01*
X162250000Y-82699999D01*
X162399972Y-82699999D01*
X162399986Y-82699998D01*
X162502697Y-82689505D01*
X162669119Y-82634358D01*
X162669124Y-82634356D01*
X162818345Y-82542315D01*
X162942315Y-82418345D01*
X163034356Y-82269124D01*
X163034358Y-82269119D01*
X163089505Y-82102697D01*
X163089506Y-82102690D01*
X163099999Y-81999986D01*
X163100000Y-81999973D01*
X163100000Y-81750000D01*
X162250000Y-81750000D01*
X162250000Y-82699999D01*
X161749999Y-82699999D01*
X161750000Y-82699998D01*
X161750000Y-81250000D01*
X162250000Y-81250000D01*
X163099999Y-81250000D01*
X163099999Y-81000028D01*
X163099998Y-81000013D01*
X163089505Y-80897302D01*
X163034358Y-80730880D01*
X163034356Y-80730875D01*
X162942315Y-80581654D01*
X162818345Y-80457684D01*
X162669124Y-80365643D01*
X162669119Y-80365641D01*
X162502697Y-80310494D01*
X162502690Y-80310493D01*
X162399986Y-80300000D01*
X162250000Y-80300000D01*
X162250000Y-81250000D01*
X161750000Y-81250000D01*
X161750000Y-80300000D01*
X161600027Y-80300000D01*
X161600012Y-80300001D01*
X161497302Y-80310494D01*
X161330880Y-80365641D01*
X161330875Y-80365643D01*
X161181657Y-80457682D01*
X161088034Y-80551305D01*
X161026710Y-80584789D01*
X160957019Y-80579805D01*
X160912672Y-80551304D01*
X160818657Y-80457289D01*
X160818656Y-80457288D01*
X160669334Y-80365186D01*
X160502797Y-80310001D01*
X160502795Y-80310000D01*
X160400010Y-80299500D01*
X159599998Y-80299500D01*
X159599980Y-80299501D01*
X159497203Y-80310000D01*
X159497200Y-80310001D01*
X159330668Y-80365185D01*
X159330663Y-80365187D01*
X159181342Y-80457289D01*
X159057289Y-80581342D01*
X158965187Y-80730663D01*
X158965185Y-80730668D01*
X158965115Y-80730880D01*
X158910001Y-80897203D01*
X158910001Y-80897204D01*
X158910000Y-80897204D01*
X158899500Y-80999983D01*
X158899500Y-82000001D01*
X158899501Y-82000019D01*
X158910000Y-82102796D01*
X158910001Y-82102799D01*
X158965115Y-82269119D01*
X158965186Y-82269334D01*
X159057096Y-82418345D01*
X159057289Y-82418657D01*
X159073181Y-82434549D01*
X159106666Y-82495872D01*
X159109500Y-82522230D01*
X159109500Y-85975500D01*
X159089815Y-86042539D01*
X159037011Y-86088294D01*
X158985501Y-86099500D01*
X158762130Y-86099500D01*
X158762123Y-86099501D01*
X158702516Y-86105908D01*
X158567671Y-86156202D01*
X158567664Y-86156206D01*
X158452455Y-86242452D01*
X158452452Y-86242455D01*
X158366206Y-86357664D01*
X158366202Y-86357671D01*
X158315908Y-86492517D01*
X158309501Y-86552116D01*
X158309500Y-86552135D01*
X143282742Y-86552135D01*
X143162363Y-86431756D01*
X143162358Y-86431752D01*
X142984025Y-86302187D01*
X142984024Y-86302186D01*
X142984022Y-86302185D01*
X142921096Y-86270122D01*
X142787606Y-86202104D01*
X142787603Y-86202103D01*
X142577952Y-86133985D01*
X142469086Y-86116742D01*
X142360222Y-86099500D01*
X142139778Y-86099500D01*
X142067201Y-86110995D01*
X141922047Y-86133985D01*
X141712396Y-86202103D01*
X141712393Y-86202104D01*
X141515974Y-86302187D01*
X141337641Y-86431752D01*
X141337636Y-86431756D01*
X141287463Y-86481929D01*
X141226140Y-86515413D01*
X141156448Y-86510428D01*
X141100515Y-86468557D01*
X141083601Y-86437580D01*
X141053797Y-86357671D01*
X141053793Y-86357664D01*
X140967547Y-86242455D01*
X140967544Y-86242452D01*
X140852335Y-86156206D01*
X140852328Y-86156202D01*
X140717482Y-86105908D01*
X140717483Y-86105908D01*
X140657883Y-86099501D01*
X140657881Y-86099500D01*
X140657873Y-86099500D01*
X140657865Y-86099500D01*
X140434500Y-86099500D01*
X140367461Y-86079815D01*
X140321706Y-86027011D01*
X140310500Y-85975500D01*
X140310500Y-82821621D01*
X140330185Y-82754582D01*
X140382989Y-82708827D01*
X140421899Y-82698263D01*
X140474288Y-82692911D01*
X140502797Y-82689999D01*
X140669334Y-82634814D01*
X140818656Y-82542712D01*
X140912675Y-82448692D01*
X140973994Y-82415210D01*
X141043686Y-82420194D01*
X141088034Y-82448695D01*
X141181654Y-82542315D01*
X141330875Y-82634356D01*
X141330880Y-82634358D01*
X141497302Y-82689505D01*
X141497309Y-82689506D01*
X141600019Y-82699999D01*
X141749999Y-82699999D01*
X142250000Y-82699999D01*
X142399972Y-82699999D01*
X142399986Y-82699998D01*
X142502697Y-82689505D01*
X142669119Y-82634358D01*
X142669124Y-82634356D01*
X142818345Y-82542315D01*
X142942315Y-82418345D01*
X143034356Y-82269124D01*
X143034358Y-82269119D01*
X143089505Y-82102697D01*
X143089506Y-82102690D01*
X143099999Y-81999986D01*
X143100000Y-81999973D01*
X143100000Y-81750000D01*
X142250000Y-81750000D01*
X142250000Y-82699999D01*
X141749999Y-82699999D01*
X141750000Y-82699998D01*
X141750000Y-81250000D01*
X142250000Y-81250000D01*
X143099999Y-81250000D01*
X143099999Y-81000028D01*
X143099998Y-81000013D01*
X143089505Y-80897302D01*
X143034358Y-80730880D01*
X143034356Y-80730875D01*
X142942315Y-80581654D01*
X142818345Y-80457684D01*
X142669124Y-80365643D01*
X142669119Y-80365641D01*
X142502697Y-80310494D01*
X142502690Y-80310493D01*
X142399986Y-80300000D01*
X142250000Y-80300000D01*
X142250000Y-81250000D01*
X141750000Y-81250000D01*
X141750000Y-80300000D01*
X141600027Y-80300000D01*
X141600012Y-80300001D01*
X141497302Y-80310494D01*
X141330880Y-80365641D01*
X141330875Y-80365643D01*
X141181657Y-80457682D01*
X141088034Y-80551305D01*
X141026710Y-80584789D01*
X140957019Y-80579805D01*
X140912672Y-80551304D01*
X140818657Y-80457289D01*
X140818656Y-80457288D01*
X140669334Y-80365186D01*
X140502797Y-80310001D01*
X140502795Y-80310000D01*
X140400010Y-80299500D01*
X139599998Y-80299500D01*
X139599980Y-80299501D01*
X139497203Y-80310000D01*
X139497200Y-80310001D01*
X139330668Y-80365185D01*
X139330663Y-80365187D01*
X139181342Y-80457289D01*
X139057289Y-80581342D01*
X138965187Y-80730663D01*
X138965185Y-80730668D01*
X138965115Y-80730880D01*
X138910001Y-80897203D01*
X138910001Y-80897204D01*
X138910000Y-80897204D01*
X138899500Y-80999983D01*
X138899500Y-82000001D01*
X138899501Y-82000019D01*
X138910000Y-82102796D01*
X138910001Y-82102799D01*
X138965115Y-82269119D01*
X138965186Y-82269334D01*
X139057096Y-82418345D01*
X139057289Y-82418657D01*
X139073181Y-82434549D01*
X139106666Y-82495872D01*
X139109500Y-82522230D01*
X139109500Y-85975500D01*
X139089815Y-86042539D01*
X139037011Y-86088294D01*
X138985501Y-86099500D01*
X138762130Y-86099500D01*
X138762123Y-86099501D01*
X138702516Y-86105908D01*
X138567671Y-86156202D01*
X138567664Y-86156206D01*
X138452455Y-86242452D01*
X138452452Y-86242455D01*
X138366206Y-86357664D01*
X138366202Y-86357671D01*
X138315908Y-86492517D01*
X138309501Y-86552116D01*
X138309500Y-86552135D01*
X99750500Y-86552135D01*
X99750500Y-70893713D01*
X169499500Y-70893713D01*
X169499500Y-71106286D01*
X169532753Y-71316239D01*
X169598444Y-71518414D01*
X169694951Y-71707820D01*
X169819890Y-71879786D01*
X169959068Y-72018964D01*
X169992553Y-72080287D01*
X169987569Y-72149979D01*
X169945697Y-72205912D01*
X169936484Y-72212183D01*
X169781659Y-72307680D01*
X169781655Y-72307683D01*
X169657684Y-72431654D01*
X169565643Y-72580875D01*
X169565641Y-72580880D01*
X169510494Y-72747302D01*
X169510493Y-72747309D01*
X169500000Y-72850013D01*
X169500000Y-73250000D01*
X170566988Y-73250000D01*
X170534075Y-73307007D01*
X170500000Y-73434174D01*
X170500000Y-73565826D01*
X170534075Y-73692993D01*
X170566988Y-73750000D01*
X169500001Y-73750000D01*
X169500001Y-74149986D01*
X169510494Y-74252697D01*
X169565641Y-74419119D01*
X169565643Y-74419124D01*
X169657684Y-74568345D01*
X169781654Y-74692315D01*
X169930875Y-74784356D01*
X169930880Y-74784358D01*
X170097302Y-74839505D01*
X170097309Y-74839506D01*
X170200019Y-74849999D01*
X170749999Y-74849999D01*
X170750000Y-74849998D01*
X170750000Y-73933012D01*
X170807007Y-73965925D01*
X170934174Y-74000000D01*
X171065826Y-74000000D01*
X171192993Y-73965925D01*
X171250000Y-73933012D01*
X171250000Y-74849999D01*
X171799972Y-74849999D01*
X171799986Y-74849998D01*
X171902697Y-74839505D01*
X172069119Y-74784358D01*
X172069124Y-74784356D01*
X172218345Y-74692315D01*
X172342315Y-74568345D01*
X172434356Y-74419124D01*
X172434358Y-74419119D01*
X172489505Y-74252697D01*
X172489506Y-74252690D01*
X172499999Y-74149986D01*
X172500000Y-74149973D01*
X172500000Y-73750000D01*
X171433012Y-73750000D01*
X171465925Y-73692993D01*
X171500000Y-73565826D01*
X171500000Y-73434174D01*
X171465925Y-73307007D01*
X171433012Y-73250000D01*
X172499999Y-73250000D01*
X172499999Y-72850028D01*
X172499998Y-72850013D01*
X172489505Y-72747302D01*
X172434358Y-72580880D01*
X172434356Y-72580875D01*
X172342315Y-72431654D01*
X172218345Y-72307684D01*
X172063515Y-72212184D01*
X172016791Y-72160236D01*
X172005568Y-72091273D01*
X172033412Y-72027191D01*
X172040909Y-72018986D01*
X172180104Y-71879792D01*
X172305051Y-71707816D01*
X172401557Y-71518412D01*
X172467246Y-71316243D01*
X172500500Y-71106287D01*
X172500500Y-70893713D01*
X172467246Y-70683757D01*
X172401557Y-70481588D01*
X172305051Y-70292184D01*
X172305049Y-70292181D01*
X172305048Y-70292179D01*
X172180109Y-70120213D01*
X172029786Y-69969890D01*
X171857820Y-69844951D01*
X171668414Y-69748444D01*
X171668413Y-69748443D01*
X171668412Y-69748443D01*
X171466243Y-69682754D01*
X171466241Y-69682753D01*
X171466240Y-69682753D01*
X171281207Y-69653447D01*
X171256287Y-69649500D01*
X170743713Y-69649500D01*
X170718793Y-69653447D01*
X170533760Y-69682753D01*
X170331585Y-69748444D01*
X170142179Y-69844951D01*
X169970213Y-69969890D01*
X169819890Y-70120213D01*
X169694951Y-70292179D01*
X169598444Y-70481585D01*
X169532753Y-70683760D01*
X169499500Y-70893713D01*
X99750500Y-70893713D01*
X99750500Y-68362230D01*
X99770185Y-68295191D01*
X99786819Y-68274549D01*
X104274549Y-63786819D01*
X104335872Y-63753334D01*
X104362230Y-63750500D01*
X150637770Y-63750500D01*
X150704809Y-63770185D01*
X150725451Y-63786819D01*
X151706847Y-64768215D01*
X151868957Y-64930324D01*
X151902442Y-64991647D01*
X151897458Y-65061339D01*
X151855586Y-65117272D01*
X151790122Y-65141689D01*
X151761879Y-65140478D01*
X151566287Y-65109500D01*
X151353713Y-65109500D01*
X151305042Y-65117208D01*
X151143760Y-65142753D01*
X150941585Y-65208444D01*
X150752179Y-65304951D01*
X150580213Y-65429890D01*
X150429890Y-65580213D01*
X150304949Y-65752182D01*
X150300202Y-65761499D01*
X150252227Y-65812293D01*
X150184405Y-65829087D01*
X150118271Y-65806548D01*
X150079234Y-65761495D01*
X150074626Y-65752452D01*
X150035270Y-65698282D01*
X150035269Y-65698282D01*
X149402962Y-66330590D01*
X149385925Y-66267007D01*
X149320099Y-66152993D01*
X149227007Y-66059901D01*
X149112993Y-65994075D01*
X149049409Y-65977037D01*
X149681716Y-65344728D01*
X149627550Y-65305375D01*
X149438217Y-65208904D01*
X149236129Y-65143242D01*
X149026246Y-65110000D01*
X148813754Y-65110000D01*
X148603872Y-65143242D01*
X148603869Y-65143242D01*
X148401782Y-65208904D01*
X148212439Y-65305380D01*
X148158282Y-65344727D01*
X148158282Y-65344728D01*
X148790591Y-65977037D01*
X148727007Y-65994075D01*
X148612993Y-66059901D01*
X148519901Y-66152993D01*
X148454075Y-66267007D01*
X148437037Y-66330591D01*
X147804728Y-65698282D01*
X147804727Y-65698282D01*
X147765380Y-65752440D01*
X147765376Y-65752446D01*
X147760760Y-65761505D01*
X147712781Y-65812297D01*
X147644959Y-65829087D01*
X147578826Y-65806543D01*
X147539794Y-65761493D01*
X147535051Y-65752184D01*
X147535049Y-65752181D01*
X147535048Y-65752179D01*
X147410109Y-65580213D01*
X147259786Y-65429890D01*
X147087820Y-65304951D01*
X146898414Y-65208444D01*
X146898413Y-65208443D01*
X146898412Y-65208443D01*
X146696243Y-65142754D01*
X146696241Y-65142753D01*
X146696240Y-65142753D01*
X146534957Y-65117208D01*
X146486287Y-65109500D01*
X146273713Y-65109500D01*
X146225042Y-65117208D01*
X146063760Y-65142753D01*
X145861585Y-65208444D01*
X145672179Y-65304951D01*
X145500213Y-65429890D01*
X145349890Y-65580213D01*
X145224949Y-65752182D01*
X145220484Y-65760946D01*
X145172509Y-65811742D01*
X145104688Y-65828536D01*
X145038553Y-65805998D01*
X144999516Y-65760946D01*
X144995050Y-65752182D01*
X144870109Y-65580213D01*
X144719786Y-65429890D01*
X144547820Y-65304951D01*
X144358414Y-65208444D01*
X144358413Y-65208443D01*
X144358412Y-65208443D01*
X144156243Y-65142754D01*
X144156241Y-65142753D01*
X144156240Y-65142753D01*
X143994957Y-65117208D01*
X143946287Y-65109500D01*
X143733713Y-65109500D01*
X143685042Y-65117208D01*
X143523760Y-65142753D01*
X143321585Y-65208444D01*
X143132179Y-65304951D01*
X142960213Y-65429890D01*
X142809890Y-65580213D01*
X142684949Y-65752182D01*
X142680484Y-65760946D01*
X142632509Y-65811742D01*
X142564688Y-65828536D01*
X142498553Y-65805998D01*
X142459516Y-65760946D01*
X142455050Y-65752182D01*
X142330109Y-65580213D01*
X142179786Y-65429890D01*
X142007820Y-65304951D01*
X141818414Y-65208444D01*
X141818413Y-65208443D01*
X141818412Y-65208443D01*
X141616243Y-65142754D01*
X141616241Y-65142753D01*
X141616240Y-65142753D01*
X141454957Y-65117208D01*
X141406287Y-65109500D01*
X141193713Y-65109500D01*
X141145042Y-65117208D01*
X140983760Y-65142753D01*
X140781585Y-65208444D01*
X140592179Y-65304951D01*
X140420213Y-65429890D01*
X140269890Y-65580213D01*
X140144949Y-65752182D01*
X140140202Y-65761499D01*
X140092227Y-65812293D01*
X140024405Y-65829087D01*
X139958271Y-65806548D01*
X139919234Y-65761495D01*
X139914626Y-65752452D01*
X139875270Y-65698282D01*
X139875269Y-65698282D01*
X139242962Y-66330590D01*
X139225925Y-66267007D01*
X139160099Y-66152993D01*
X139067007Y-66059901D01*
X138952993Y-65994075D01*
X138889409Y-65977037D01*
X139521716Y-65344728D01*
X139467550Y-65305375D01*
X139278217Y-65208904D01*
X139076129Y-65143242D01*
X138866246Y-65110000D01*
X138653754Y-65110000D01*
X138443872Y-65143242D01*
X138443869Y-65143242D01*
X138241782Y-65208904D01*
X138052439Y-65305380D01*
X137998282Y-65344727D01*
X137998282Y-65344728D01*
X138630591Y-65977037D01*
X138567007Y-65994075D01*
X138452993Y-66059901D01*
X138359901Y-66152993D01*
X138294075Y-66267007D01*
X138277037Y-66330591D01*
X137644728Y-65698282D01*
X137644727Y-65698282D01*
X137605380Y-65752440D01*
X137605376Y-65752446D01*
X137600760Y-65761505D01*
X137552781Y-65812297D01*
X137484959Y-65829087D01*
X137418826Y-65806543D01*
X137379794Y-65761493D01*
X137375051Y-65752184D01*
X137375049Y-65752181D01*
X137375048Y-65752179D01*
X137250109Y-65580213D01*
X137099786Y-65429890D01*
X136927820Y-65304951D01*
X136738414Y-65208444D01*
X136738413Y-65208443D01*
X136738412Y-65208443D01*
X136536243Y-65142754D01*
X136536241Y-65142753D01*
X136536240Y-65142753D01*
X136374957Y-65117208D01*
X136326287Y-65109500D01*
X136113713Y-65109500D01*
X136065042Y-65117208D01*
X135903760Y-65142753D01*
X135701585Y-65208444D01*
X135512179Y-65304951D01*
X135340213Y-65429890D01*
X135189890Y-65580213D01*
X135064949Y-65752182D01*
X135060484Y-65760946D01*
X135012509Y-65811742D01*
X134944688Y-65828536D01*
X134878553Y-65805998D01*
X134839516Y-65760946D01*
X134835050Y-65752182D01*
X134710109Y-65580213D01*
X134559786Y-65429890D01*
X134387820Y-65304951D01*
X134198414Y-65208444D01*
X134198413Y-65208443D01*
X134198412Y-65208443D01*
X133996243Y-65142754D01*
X133996241Y-65142753D01*
X133996240Y-65142753D01*
X133834957Y-65117208D01*
X133786287Y-65109500D01*
X133573713Y-65109500D01*
X133525042Y-65117208D01*
X133363760Y-65142753D01*
X133161585Y-65208444D01*
X132972179Y-65304951D01*
X132800213Y-65429890D01*
X132649890Y-65580213D01*
X132524949Y-65752182D01*
X132520202Y-65761499D01*
X132472227Y-65812293D01*
X132404405Y-65829087D01*
X132338271Y-65806548D01*
X132299234Y-65761495D01*
X132294626Y-65752452D01*
X132255270Y-65698282D01*
X132255269Y-65698282D01*
X131622962Y-66330590D01*
X131605925Y-66267007D01*
X131540099Y-66152993D01*
X131447007Y-66059901D01*
X131332993Y-65994075D01*
X131269409Y-65977037D01*
X131901716Y-65344728D01*
X131847550Y-65305375D01*
X131658217Y-65208904D01*
X131456129Y-65143242D01*
X131246246Y-65110000D01*
X131033754Y-65110000D01*
X130823872Y-65143242D01*
X130823869Y-65143242D01*
X130621782Y-65208904D01*
X130432439Y-65305380D01*
X130378282Y-65344727D01*
X130378282Y-65344728D01*
X131010591Y-65977037D01*
X130947007Y-65994075D01*
X130832993Y-66059901D01*
X130739901Y-66152993D01*
X130674075Y-66267007D01*
X130657037Y-66330591D01*
X130024728Y-65698282D01*
X130024727Y-65698282D01*
X129985380Y-65752440D01*
X129985376Y-65752446D01*
X129980760Y-65761505D01*
X129932781Y-65812297D01*
X129864959Y-65829087D01*
X129798826Y-65806543D01*
X129759794Y-65761493D01*
X129755051Y-65752184D01*
X129755049Y-65752181D01*
X129755048Y-65752179D01*
X129630109Y-65580213D01*
X129479786Y-65429890D01*
X129307820Y-65304951D01*
X129118414Y-65208444D01*
X129118413Y-65208443D01*
X129118412Y-65208443D01*
X128916243Y-65142754D01*
X128916241Y-65142753D01*
X128916240Y-65142753D01*
X128754957Y-65117208D01*
X128706287Y-65109500D01*
X128493713Y-65109500D01*
X128445042Y-65117208D01*
X128283760Y-65142753D01*
X128081585Y-65208444D01*
X127892179Y-65304951D01*
X127720213Y-65429890D01*
X127569890Y-65580213D01*
X127444949Y-65752182D01*
X127440484Y-65760946D01*
X127392509Y-65811742D01*
X127324688Y-65828536D01*
X127258553Y-65805998D01*
X127219516Y-65760946D01*
X127215050Y-65752182D01*
X127090109Y-65580213D01*
X126939786Y-65429890D01*
X126767820Y-65304951D01*
X126578414Y-65208444D01*
X126578413Y-65208443D01*
X126578412Y-65208443D01*
X126376243Y-65142754D01*
X126376241Y-65142753D01*
X126376240Y-65142753D01*
X126214957Y-65117208D01*
X126166287Y-65109500D01*
X125953713Y-65109500D01*
X125905042Y-65117208D01*
X125743760Y-65142753D01*
X125541585Y-65208444D01*
X125352179Y-65304951D01*
X125180213Y-65429890D01*
X125029890Y-65580213D01*
X124904949Y-65752182D01*
X124900484Y-65760946D01*
X124852509Y-65811742D01*
X124784688Y-65828536D01*
X124718553Y-65805998D01*
X124679516Y-65760946D01*
X124675050Y-65752182D01*
X124550109Y-65580213D01*
X124399786Y-65429890D01*
X124227820Y-65304951D01*
X124038414Y-65208444D01*
X124038413Y-65208443D01*
X124038412Y-65208443D01*
X123836243Y-65142754D01*
X123836241Y-65142753D01*
X123836240Y-65142753D01*
X123674957Y-65117208D01*
X123626287Y-65109500D01*
X123413713Y-65109500D01*
X123365042Y-65117208D01*
X123203760Y-65142753D01*
X123001585Y-65208444D01*
X122812179Y-65304951D01*
X122640213Y-65429890D01*
X122489890Y-65580213D01*
X122364949Y-65752182D01*
X122360484Y-65760946D01*
X122312509Y-65811742D01*
X122244688Y-65828536D01*
X122178553Y-65805998D01*
X122139516Y-65760946D01*
X122135050Y-65752182D01*
X122010109Y-65580213D01*
X121859786Y-65429890D01*
X121687820Y-65304951D01*
X121498414Y-65208444D01*
X121498413Y-65208443D01*
X121498412Y-65208443D01*
X121296243Y-65142754D01*
X121296241Y-65142753D01*
X121296240Y-65142753D01*
X121134957Y-65117208D01*
X121086287Y-65109500D01*
X120873713Y-65109500D01*
X120825042Y-65117208D01*
X120663760Y-65142753D01*
X120461585Y-65208444D01*
X120272179Y-65304951D01*
X120100213Y-65429890D01*
X119949890Y-65580213D01*
X119824949Y-65752182D01*
X119820202Y-65761499D01*
X119772227Y-65812293D01*
X119704405Y-65829087D01*
X119638271Y-65806548D01*
X119599234Y-65761495D01*
X119594626Y-65752452D01*
X119555270Y-65698282D01*
X119555269Y-65698282D01*
X118922962Y-66330590D01*
X118905925Y-66267007D01*
X118840099Y-66152993D01*
X118747007Y-66059901D01*
X118632993Y-65994075D01*
X118569409Y-65977037D01*
X119201716Y-65344728D01*
X119147550Y-65305375D01*
X118958217Y-65208904D01*
X118756129Y-65143242D01*
X118546246Y-65110000D01*
X118333754Y-65110000D01*
X118123872Y-65143242D01*
X118123869Y-65143242D01*
X117921782Y-65208904D01*
X117732439Y-65305380D01*
X117678282Y-65344727D01*
X117678282Y-65344728D01*
X118310591Y-65977037D01*
X118247007Y-65994075D01*
X118132993Y-66059901D01*
X118039901Y-66152993D01*
X117974075Y-66267007D01*
X117957037Y-66330591D01*
X117324728Y-65698282D01*
X117324727Y-65698282D01*
X117285380Y-65752440D01*
X117285376Y-65752446D01*
X117280760Y-65761505D01*
X117232781Y-65812297D01*
X117164959Y-65829087D01*
X117098826Y-65806543D01*
X117059794Y-65761493D01*
X117055051Y-65752184D01*
X117055049Y-65752181D01*
X117055048Y-65752179D01*
X116930109Y-65580213D01*
X116779786Y-65429890D01*
X116607820Y-65304951D01*
X116418414Y-65208444D01*
X116418413Y-65208443D01*
X116418412Y-65208443D01*
X116216243Y-65142754D01*
X116216241Y-65142753D01*
X116216240Y-65142753D01*
X116054957Y-65117208D01*
X116006287Y-65109500D01*
X115793713Y-65109500D01*
X115745042Y-65117208D01*
X115583760Y-65142753D01*
X115381585Y-65208444D01*
X115192179Y-65304951D01*
X115020213Y-65429890D01*
X114869890Y-65580213D01*
X114744949Y-65752182D01*
X114740202Y-65761499D01*
X114692227Y-65812293D01*
X114624405Y-65829087D01*
X114558271Y-65806548D01*
X114519234Y-65761495D01*
X114514626Y-65752452D01*
X114475270Y-65698282D01*
X114475269Y-65698282D01*
X113842962Y-66330590D01*
X113825925Y-66267007D01*
X113760099Y-66152993D01*
X113667007Y-66059901D01*
X113552993Y-65994075D01*
X113489409Y-65977037D01*
X114121716Y-65344728D01*
X114067550Y-65305375D01*
X113878217Y-65208904D01*
X113676129Y-65143242D01*
X113466246Y-65110000D01*
X113253754Y-65110000D01*
X113043872Y-65143242D01*
X113043869Y-65143242D01*
X112841782Y-65208904D01*
X112652439Y-65305380D01*
X112598282Y-65344727D01*
X112598282Y-65344728D01*
X113230591Y-65977037D01*
X113167007Y-65994075D01*
X113052993Y-66059901D01*
X112959901Y-66152993D01*
X112894075Y-66267007D01*
X112877037Y-66330591D01*
X112244728Y-65698282D01*
X112244727Y-65698282D01*
X112205380Y-65752440D01*
X112205376Y-65752446D01*
X112200760Y-65761505D01*
X112152781Y-65812297D01*
X112084959Y-65829087D01*
X112018826Y-65806543D01*
X111979794Y-65761493D01*
X111975051Y-65752184D01*
X111975049Y-65752181D01*
X111975048Y-65752179D01*
X111850109Y-65580213D01*
X111699786Y-65429890D01*
X111527820Y-65304951D01*
X111338414Y-65208444D01*
X111338413Y-65208443D01*
X111338412Y-65208443D01*
X111136243Y-65142754D01*
X111136241Y-65142753D01*
X111136240Y-65142753D01*
X110974957Y-65117208D01*
X110926287Y-65109500D01*
X110713713Y-65109500D01*
X110665042Y-65117208D01*
X110503760Y-65142753D01*
X110301585Y-65208444D01*
X110112179Y-65304951D01*
X109940213Y-65429890D01*
X109789890Y-65580213D01*
X109664949Y-65752182D01*
X109660484Y-65760946D01*
X109612509Y-65811742D01*
X109544688Y-65828536D01*
X109478553Y-65805998D01*
X109439516Y-65760946D01*
X109435050Y-65752182D01*
X109310109Y-65580213D01*
X109159786Y-65429890D01*
X108987820Y-65304951D01*
X108798414Y-65208444D01*
X108798413Y-65208443D01*
X108798412Y-65208443D01*
X108596243Y-65142754D01*
X108596241Y-65142753D01*
X108596240Y-65142753D01*
X108434957Y-65117208D01*
X108386287Y-65109500D01*
X108173713Y-65109500D01*
X108125042Y-65117208D01*
X107963760Y-65142753D01*
X107761585Y-65208444D01*
X107572179Y-65304951D01*
X107400213Y-65429890D01*
X107249890Y-65580213D01*
X107124949Y-65752182D01*
X107120484Y-65760946D01*
X107072509Y-65811742D01*
X107004688Y-65828536D01*
X106938553Y-65805998D01*
X106899516Y-65760946D01*
X106895050Y-65752182D01*
X106770109Y-65580213D01*
X106619786Y-65429890D01*
X106447820Y-65304951D01*
X106258414Y-65208444D01*
X106258413Y-65208443D01*
X106258412Y-65208443D01*
X106056243Y-65142754D01*
X106056241Y-65142753D01*
X106056240Y-65142753D01*
X105894957Y-65117208D01*
X105846287Y-65109500D01*
X105633713Y-65109500D01*
X105585042Y-65117208D01*
X105423760Y-65142753D01*
X105221585Y-65208444D01*
X105032179Y-65304951D01*
X104860213Y-65429890D01*
X104709890Y-65580213D01*
X104584951Y-65752179D01*
X104488444Y-65941585D01*
X104422753Y-66143760D01*
X104421291Y-66152993D01*
X104389500Y-66353713D01*
X104389500Y-66566287D01*
X104422754Y-66776243D01*
X104482765Y-66960938D01*
X104488444Y-66978414D01*
X104584951Y-67167820D01*
X104709890Y-67339786D01*
X104860213Y-67490109D01*
X105032179Y-67615048D01*
X105032181Y-67615049D01*
X105032184Y-67615051D01*
X105041493Y-67619794D01*
X105092290Y-67667766D01*
X105109087Y-67735587D01*
X105086552Y-67801722D01*
X105041505Y-67840760D01*
X105032446Y-67845376D01*
X105032440Y-67845380D01*
X104978282Y-67884727D01*
X104978282Y-67884728D01*
X105610591Y-68517037D01*
X105547007Y-68534075D01*
X105432993Y-68599901D01*
X105339901Y-68692993D01*
X105274075Y-68807007D01*
X105257037Y-68870591D01*
X104624728Y-68238282D01*
X104624727Y-68238282D01*
X104585380Y-68292439D01*
X104488904Y-68481782D01*
X104423242Y-68683869D01*
X104423242Y-68683872D01*
X104390000Y-68893753D01*
X104390000Y-69106246D01*
X104423242Y-69316127D01*
X104423242Y-69316130D01*
X104488904Y-69518217D01*
X104585375Y-69707550D01*
X104624728Y-69761716D01*
X105257037Y-69129408D01*
X105274075Y-69192993D01*
X105339901Y-69307007D01*
X105432993Y-69400099D01*
X105547007Y-69465925D01*
X105610590Y-69482962D01*
X104978282Y-70115269D01*
X104978282Y-70115270D01*
X105032449Y-70154624D01*
X105221782Y-70251095D01*
X105423870Y-70316757D01*
X105633754Y-70350000D01*
X105846246Y-70350000D01*
X106056127Y-70316757D01*
X106056130Y-70316757D01*
X106258217Y-70251095D01*
X106447554Y-70154622D01*
X106501716Y-70115270D01*
X106501717Y-70115270D01*
X105869408Y-69482962D01*
X105932993Y-69465925D01*
X106047007Y-69400099D01*
X106140099Y-69307007D01*
X106205925Y-69192993D01*
X106222962Y-69129409D01*
X106855270Y-69761717D01*
X106855270Y-69761716D01*
X106894622Y-69707555D01*
X106899232Y-69698507D01*
X106947205Y-69647709D01*
X107015025Y-69630912D01*
X107081161Y-69653447D01*
X107120204Y-69698504D01*
X107124949Y-69707817D01*
X107249890Y-69879786D01*
X107400213Y-70030109D01*
X107572179Y-70155048D01*
X107572181Y-70155049D01*
X107572184Y-70155051D01*
X107761588Y-70251557D01*
X107963757Y-70317246D01*
X108173713Y-70350500D01*
X108173714Y-70350500D01*
X108386286Y-70350500D01*
X108386287Y-70350500D01*
X108596243Y-70317246D01*
X108798412Y-70251557D01*
X108987816Y-70155051D01*
X109074138Y-70092335D01*
X109159786Y-70030109D01*
X109159788Y-70030106D01*
X109159792Y-70030104D01*
X109310104Y-69879792D01*
X109310106Y-69879788D01*
X109310109Y-69879786D01*
X109435048Y-69707820D01*
X109435047Y-69707820D01*
X109435051Y-69707816D01*
X109439514Y-69699054D01*
X109487488Y-69648259D01*
X109555308Y-69631463D01*
X109621444Y-69653999D01*
X109660486Y-69699056D01*
X109664951Y-69707820D01*
X109789890Y-69879786D01*
X109940213Y-70030109D01*
X110112179Y-70155048D01*
X110112181Y-70155049D01*
X110112184Y-70155051D01*
X110301588Y-70251557D01*
X110503757Y-70317246D01*
X110713713Y-70350500D01*
X110713714Y-70350500D01*
X110926286Y-70350500D01*
X110926287Y-70350500D01*
X111136243Y-70317246D01*
X111338412Y-70251557D01*
X111527816Y-70155051D01*
X111614138Y-70092335D01*
X111699786Y-70030109D01*
X111699788Y-70030106D01*
X111699792Y-70030104D01*
X111850104Y-69879792D01*
X111850106Y-69879788D01*
X111850109Y-69879786D01*
X111975048Y-69707820D01*
X111975047Y-69707820D01*
X111975051Y-69707816D01*
X111979514Y-69699054D01*
X112027488Y-69648259D01*
X112095308Y-69631463D01*
X112161444Y-69653999D01*
X112200486Y-69699056D01*
X112204951Y-69707820D01*
X112329890Y-69879786D01*
X112480213Y-70030109D01*
X112652179Y-70155048D01*
X112652181Y-70155049D01*
X112652184Y-70155051D01*
X112841588Y-70251557D01*
X113043757Y-70317246D01*
X113253713Y-70350500D01*
X113253714Y-70350500D01*
X113466286Y-70350500D01*
X113466287Y-70350500D01*
X113676243Y-70317246D01*
X113878412Y-70251557D01*
X114067816Y-70155051D01*
X114154138Y-70092335D01*
X114239786Y-70030109D01*
X114239788Y-70030106D01*
X114239792Y-70030104D01*
X114390104Y-69879792D01*
X114390106Y-69879788D01*
X114390109Y-69879786D01*
X114515048Y-69707820D01*
X114515047Y-69707820D01*
X114515051Y-69707816D01*
X114519514Y-69699054D01*
X114567488Y-69648259D01*
X114635308Y-69631463D01*
X114701444Y-69653999D01*
X114740486Y-69699056D01*
X114744951Y-69707820D01*
X114869890Y-69879786D01*
X115020213Y-70030109D01*
X115192179Y-70155048D01*
X115192181Y-70155049D01*
X115192184Y-70155051D01*
X115381588Y-70251557D01*
X115583757Y-70317246D01*
X115793713Y-70350500D01*
X115793714Y-70350500D01*
X116006286Y-70350500D01*
X116006287Y-70350500D01*
X116216243Y-70317246D01*
X116418412Y-70251557D01*
X116607816Y-70155051D01*
X116694138Y-70092335D01*
X116779786Y-70030109D01*
X116779788Y-70030106D01*
X116779792Y-70030104D01*
X116930104Y-69879792D01*
X116930106Y-69879788D01*
X116930109Y-69879786D01*
X117055048Y-69707820D01*
X117055047Y-69707820D01*
X117055051Y-69707816D01*
X117059514Y-69699054D01*
X117107488Y-69648259D01*
X117175308Y-69631463D01*
X117241444Y-69653999D01*
X117280486Y-69699056D01*
X117284951Y-69707820D01*
X117409890Y-69879786D01*
X117560213Y-70030109D01*
X117732179Y-70155048D01*
X117732181Y-70155049D01*
X117732184Y-70155051D01*
X117921588Y-70251557D01*
X118123757Y-70317246D01*
X118333713Y-70350500D01*
X118333714Y-70350500D01*
X118546286Y-70350500D01*
X118546287Y-70350500D01*
X118756243Y-70317246D01*
X118958412Y-70251557D01*
X119147816Y-70155051D01*
X119234138Y-70092335D01*
X119319786Y-70030109D01*
X119319788Y-70030106D01*
X119319792Y-70030104D01*
X119470104Y-69879792D01*
X119470106Y-69879788D01*
X119470109Y-69879786D01*
X119595048Y-69707820D01*
X119595047Y-69707820D01*
X119595051Y-69707816D01*
X119599514Y-69699054D01*
X119647488Y-69648259D01*
X119715308Y-69631463D01*
X119781444Y-69653999D01*
X119820486Y-69699056D01*
X119824951Y-69707820D01*
X119949890Y-69879786D01*
X120100213Y-70030109D01*
X120272179Y-70155048D01*
X120272181Y-70155049D01*
X120272184Y-70155051D01*
X120461588Y-70251557D01*
X120663757Y-70317246D01*
X120873713Y-70350500D01*
X120873714Y-70350500D01*
X121086286Y-70350500D01*
X121086287Y-70350500D01*
X121296243Y-70317246D01*
X121498412Y-70251557D01*
X121687816Y-70155051D01*
X121774138Y-70092335D01*
X121859786Y-70030109D01*
X121859788Y-70030106D01*
X121859792Y-70030104D01*
X122010104Y-69879792D01*
X122010106Y-69879788D01*
X122010109Y-69879786D01*
X122095890Y-69761717D01*
X122135051Y-69707816D01*
X122139793Y-69698508D01*
X122187763Y-69647711D01*
X122255583Y-69630911D01*
X122321719Y-69653445D01*
X122360763Y-69698500D01*
X122365373Y-69707547D01*
X122404728Y-69761716D01*
X123037037Y-69129408D01*
X123054075Y-69192993D01*
X123119901Y-69307007D01*
X123212993Y-69400099D01*
X123327007Y-69465925D01*
X123390590Y-69482962D01*
X122758282Y-70115269D01*
X122758282Y-70115270D01*
X122812449Y-70154624D01*
X123001782Y-70251095D01*
X123203870Y-70316757D01*
X123413754Y-70350000D01*
X123626246Y-70350000D01*
X123836127Y-70316757D01*
X123836130Y-70316757D01*
X124038217Y-70251095D01*
X124227554Y-70154622D01*
X124281716Y-70115270D01*
X124281717Y-70115270D01*
X123649408Y-69482962D01*
X123712993Y-69465925D01*
X123827007Y-69400099D01*
X123920099Y-69307007D01*
X123985925Y-69192993D01*
X124002962Y-69129409D01*
X124635270Y-69761717D01*
X124635270Y-69761716D01*
X124674622Y-69707555D01*
X124679232Y-69698507D01*
X124727205Y-69647709D01*
X124795025Y-69630912D01*
X124861161Y-69653447D01*
X124900204Y-69698504D01*
X124904949Y-69707817D01*
X125029890Y-69879786D01*
X125180213Y-70030109D01*
X125352179Y-70155048D01*
X125352181Y-70155049D01*
X125352184Y-70155051D01*
X125541588Y-70251557D01*
X125743757Y-70317246D01*
X125953713Y-70350500D01*
X125953714Y-70350500D01*
X126166286Y-70350500D01*
X126166287Y-70350500D01*
X126376243Y-70317246D01*
X126578412Y-70251557D01*
X126767816Y-70155051D01*
X126854138Y-70092335D01*
X126939786Y-70030109D01*
X126939788Y-70030106D01*
X126939792Y-70030104D01*
X127090104Y-69879792D01*
X127090106Y-69879788D01*
X127090109Y-69879786D01*
X127215048Y-69707820D01*
X127215047Y-69707820D01*
X127215051Y-69707816D01*
X127219514Y-69699054D01*
X127267488Y-69648259D01*
X127335308Y-69631463D01*
X127401444Y-69653999D01*
X127440486Y-69699056D01*
X127444951Y-69707820D01*
X127569890Y-69879786D01*
X127720213Y-70030109D01*
X127892179Y-70155048D01*
X127892181Y-70155049D01*
X127892184Y-70155051D01*
X128081588Y-70251557D01*
X128283757Y-70317246D01*
X128493713Y-70350500D01*
X128493714Y-70350500D01*
X128706286Y-70350500D01*
X128706287Y-70350500D01*
X128916243Y-70317246D01*
X129118412Y-70251557D01*
X129307816Y-70155051D01*
X129394138Y-70092335D01*
X129479786Y-70030109D01*
X129479788Y-70030106D01*
X129479792Y-70030104D01*
X129630104Y-69879792D01*
X129630106Y-69879788D01*
X129630109Y-69879786D01*
X129755048Y-69707820D01*
X129755047Y-69707820D01*
X129755051Y-69707816D01*
X129759514Y-69699054D01*
X129807488Y-69648259D01*
X129875308Y-69631463D01*
X129941444Y-69653999D01*
X129980486Y-69699056D01*
X129984951Y-69707820D01*
X130109890Y-69879786D01*
X130260213Y-70030109D01*
X130432179Y-70155048D01*
X130432181Y-70155049D01*
X130432184Y-70155051D01*
X130621588Y-70251557D01*
X130823757Y-70317246D01*
X131033713Y-70350500D01*
X131033714Y-70350500D01*
X131246286Y-70350500D01*
X131246287Y-70350500D01*
X131456243Y-70317246D01*
X131658412Y-70251557D01*
X131847816Y-70155051D01*
X131934138Y-70092335D01*
X132019786Y-70030109D01*
X132019788Y-70030106D01*
X132019792Y-70030104D01*
X132170104Y-69879792D01*
X132170106Y-69879788D01*
X132170109Y-69879786D01*
X132295048Y-69707820D01*
X132295047Y-69707820D01*
X132295051Y-69707816D01*
X132299514Y-69699054D01*
X132347488Y-69648259D01*
X132415308Y-69631463D01*
X132481444Y-69653999D01*
X132520486Y-69699056D01*
X132524951Y-69707820D01*
X132649890Y-69879786D01*
X132800213Y-70030109D01*
X132972179Y-70155048D01*
X132972181Y-70155049D01*
X132972184Y-70155051D01*
X133161588Y-70251557D01*
X133363757Y-70317246D01*
X133573713Y-70350500D01*
X133573714Y-70350500D01*
X133786286Y-70350500D01*
X133786287Y-70350500D01*
X133996243Y-70317246D01*
X134198412Y-70251557D01*
X134387816Y-70155051D01*
X134474138Y-70092335D01*
X134559786Y-70030109D01*
X134559788Y-70030106D01*
X134559792Y-70030104D01*
X134710104Y-69879792D01*
X134710106Y-69879788D01*
X134710109Y-69879786D01*
X134835048Y-69707820D01*
X134835047Y-69707820D01*
X134835051Y-69707816D01*
X134839514Y-69699054D01*
X134887488Y-69648259D01*
X134955308Y-69631463D01*
X135021444Y-69653999D01*
X135060486Y-69699056D01*
X135064951Y-69707820D01*
X135189890Y-69879786D01*
X135340213Y-70030109D01*
X135512179Y-70155048D01*
X135512181Y-70155049D01*
X135512184Y-70155051D01*
X135701588Y-70251557D01*
X135903757Y-70317246D01*
X136113713Y-70350500D01*
X136113714Y-70350500D01*
X136326286Y-70350500D01*
X136326287Y-70350500D01*
X136536243Y-70317246D01*
X136738412Y-70251557D01*
X136927816Y-70155051D01*
X137014138Y-70092335D01*
X137099786Y-70030109D01*
X137099788Y-70030106D01*
X137099792Y-70030104D01*
X137250104Y-69879792D01*
X137250106Y-69879788D01*
X137250109Y-69879786D01*
X137375048Y-69707820D01*
X137375047Y-69707820D01*
X137375051Y-69707816D01*
X137379514Y-69699054D01*
X137427488Y-69648259D01*
X137495308Y-69631463D01*
X137561444Y-69653999D01*
X137600486Y-69699056D01*
X137604951Y-69707820D01*
X137729890Y-69879786D01*
X137880213Y-70030109D01*
X138052179Y-70155048D01*
X138052181Y-70155049D01*
X138052184Y-70155051D01*
X138241588Y-70251557D01*
X138443757Y-70317246D01*
X138653713Y-70350500D01*
X138653714Y-70350500D01*
X138866286Y-70350500D01*
X138866287Y-70350500D01*
X139076243Y-70317246D01*
X139278412Y-70251557D01*
X139467816Y-70155051D01*
X139554138Y-70092335D01*
X139639786Y-70030109D01*
X139639788Y-70030106D01*
X139639792Y-70030104D01*
X139790104Y-69879792D01*
X139790106Y-69879788D01*
X139790109Y-69879786D01*
X139915048Y-69707820D01*
X139915047Y-69707820D01*
X139915051Y-69707816D01*
X139919514Y-69699054D01*
X139967488Y-69648259D01*
X140035308Y-69631463D01*
X140101444Y-69653999D01*
X140140486Y-69699056D01*
X140144951Y-69707820D01*
X140269890Y-69879786D01*
X140420213Y-70030109D01*
X140592179Y-70155048D01*
X140592181Y-70155049D01*
X140592184Y-70155051D01*
X140781588Y-70251557D01*
X140983757Y-70317246D01*
X141193713Y-70350500D01*
X141193714Y-70350500D01*
X141406286Y-70350500D01*
X141406287Y-70350500D01*
X141616243Y-70317246D01*
X141818412Y-70251557D01*
X142007816Y-70155051D01*
X142094138Y-70092335D01*
X142179786Y-70030109D01*
X142179788Y-70030106D01*
X142179792Y-70030104D01*
X142330104Y-69879792D01*
X142330106Y-69879788D01*
X142330109Y-69879786D01*
X142415890Y-69761717D01*
X142455051Y-69707816D01*
X142459793Y-69698508D01*
X142507763Y-69647711D01*
X142575583Y-69630911D01*
X142641719Y-69653445D01*
X142680763Y-69698500D01*
X142685373Y-69707547D01*
X142724728Y-69761716D01*
X143357037Y-69129408D01*
X143374075Y-69192993D01*
X143439901Y-69307007D01*
X143532993Y-69400099D01*
X143647007Y-69465925D01*
X143710590Y-69482962D01*
X143078282Y-70115269D01*
X143078282Y-70115270D01*
X143132449Y-70154624D01*
X143321782Y-70251095D01*
X143523870Y-70316757D01*
X143733754Y-70350000D01*
X143946246Y-70350000D01*
X144156127Y-70316757D01*
X144156130Y-70316757D01*
X144358217Y-70251095D01*
X144547554Y-70154622D01*
X144601716Y-70115270D01*
X144601717Y-70115270D01*
X143969408Y-69482962D01*
X144032993Y-69465925D01*
X144147007Y-69400099D01*
X144240099Y-69307007D01*
X144305925Y-69192993D01*
X144322962Y-69129408D01*
X144955270Y-69761717D01*
X144955270Y-69761716D01*
X144994622Y-69707555D01*
X144999232Y-69698507D01*
X145047205Y-69647709D01*
X145115025Y-69630912D01*
X145181161Y-69653447D01*
X145220204Y-69698504D01*
X145224949Y-69707817D01*
X145349890Y-69879786D01*
X145500213Y-70030109D01*
X145672179Y-70155048D01*
X145672181Y-70155049D01*
X145672184Y-70155051D01*
X145861588Y-70251557D01*
X146063757Y-70317246D01*
X146273713Y-70350500D01*
X146273714Y-70350500D01*
X146486286Y-70350500D01*
X146486287Y-70350500D01*
X146696243Y-70317246D01*
X146898412Y-70251557D01*
X147087816Y-70155051D01*
X147174138Y-70092335D01*
X147259786Y-70030109D01*
X147259788Y-70030106D01*
X147259792Y-70030104D01*
X147410104Y-69879792D01*
X147410106Y-69879788D01*
X147410109Y-69879786D01*
X147535048Y-69707820D01*
X147535047Y-69707820D01*
X147535051Y-69707816D01*
X147539514Y-69699054D01*
X147587488Y-69648259D01*
X147655308Y-69631463D01*
X147721444Y-69653999D01*
X147760486Y-69699056D01*
X147764951Y-69707820D01*
X147889890Y-69879786D01*
X148040213Y-70030109D01*
X148212179Y-70155048D01*
X148212181Y-70155049D01*
X148212184Y-70155051D01*
X148401588Y-70251557D01*
X148603757Y-70317246D01*
X148813713Y-70350500D01*
X148813714Y-70350500D01*
X149026286Y-70350500D01*
X149026287Y-70350500D01*
X149236243Y-70317246D01*
X149438412Y-70251557D01*
X149627816Y-70155051D01*
X149714138Y-70092335D01*
X149799786Y-70030109D01*
X149799788Y-70030106D01*
X149799792Y-70030104D01*
X149950104Y-69879792D01*
X149950106Y-69879788D01*
X149950109Y-69879786D01*
X150075048Y-69707820D01*
X150075047Y-69707820D01*
X150075051Y-69707816D01*
X150079514Y-69699054D01*
X150127488Y-69648259D01*
X150195308Y-69631463D01*
X150261444Y-69653999D01*
X150300486Y-69699056D01*
X150304951Y-69707820D01*
X150429890Y-69879786D01*
X150580213Y-70030109D01*
X150752179Y-70155048D01*
X150752181Y-70155049D01*
X150752184Y-70155051D01*
X150941588Y-70251557D01*
X151143757Y-70317246D01*
X151353713Y-70350500D01*
X151353714Y-70350500D01*
X151566286Y-70350500D01*
X151566287Y-70350500D01*
X151776243Y-70317246D01*
X151978412Y-70251557D01*
X152167816Y-70155051D01*
X152339792Y-70030104D01*
X152453329Y-69916566D01*
X152514648Y-69883084D01*
X152584340Y-69888068D01*
X152640274Y-69929939D01*
X152657189Y-69960917D01*
X152706202Y-70092328D01*
X152706206Y-70092335D01*
X152792452Y-70207544D01*
X152792455Y-70207547D01*
X152907664Y-70293793D01*
X152907671Y-70293797D01*
X153042517Y-70344091D01*
X153042516Y-70344091D01*
X153049444Y-70344835D01*
X153102127Y-70350500D01*
X154897872Y-70350499D01*
X154957483Y-70344091D01*
X155092331Y-70293796D01*
X155207546Y-70207546D01*
X155293796Y-70092331D01*
X155344091Y-69957483D01*
X155350500Y-69897873D01*
X155350499Y-68590096D01*
X155370184Y-68523058D01*
X155386813Y-68502421D01*
X156480520Y-67408716D01*
X156559577Y-67271784D01*
X156600501Y-67119057D01*
X156600501Y-66960942D01*
X156600501Y-66953347D01*
X156600500Y-66953329D01*
X156600500Y-65089059D01*
X156600501Y-65089046D01*
X156600501Y-64920945D01*
X156600501Y-64920943D01*
X156559577Y-64768215D01*
X156530639Y-64718095D01*
X156480520Y-64631284D01*
X156368716Y-64519480D01*
X156368715Y-64519479D01*
X156364385Y-64515149D01*
X156364374Y-64515139D01*
X153826319Y-61977084D01*
X153792834Y-61915761D01*
X153790000Y-61889403D01*
X153790000Y-60933012D01*
X153847007Y-60965925D01*
X153974174Y-61000000D01*
X154105826Y-61000000D01*
X154232993Y-60965925D01*
X154290000Y-60933012D01*
X154290000Y-61850000D01*
X154937828Y-61850000D01*
X154937844Y-61849999D01*
X154997372Y-61843598D01*
X154997379Y-61843596D01*
X155132086Y-61793354D01*
X155132093Y-61793350D01*
X155247187Y-61707190D01*
X155247190Y-61707187D01*
X155333350Y-61592093D01*
X155333354Y-61592086D01*
X155383596Y-61457379D01*
X155383598Y-61457372D01*
X155389999Y-61397844D01*
X155390000Y-61397827D01*
X155390000Y-60750000D01*
X154473012Y-60750000D01*
X154505925Y-60692993D01*
X154540000Y-60565826D01*
X154540000Y-60434174D01*
X154505925Y-60307007D01*
X154473012Y-60250000D01*
X155390000Y-60250000D01*
X155390000Y-59602172D01*
X155389999Y-59602158D01*
X155383293Y-59539790D01*
X155395697Y-59471030D01*
X155443307Y-59419892D01*
X155507198Y-59402535D01*
X170689101Y-59478445D01*
X170756040Y-59498464D01*
X170801531Y-59551496D01*
X170811128Y-59620704D01*
X170781786Y-59684113D01*
X170763966Y-59700819D01*
X170612073Y-59817370D01*
X170612066Y-59817376D01*
X170417376Y-60012066D01*
X170417370Y-60012073D01*
X170249754Y-60230516D01*
X170112080Y-60468971D01*
X170112075Y-60468982D01*
X170006704Y-60723369D01*
X169984294Y-60807007D01*
X169941713Y-60965925D01*
X169935441Y-60989331D01*
X169935438Y-60989344D01*
X169899501Y-61262315D01*
X169899500Y-61262332D01*
X169899500Y-61537667D01*
X169899501Y-61537684D01*
X169935438Y-61810655D01*
X169935439Y-61810660D01*
X169935440Y-61810666D01*
X169959018Y-61898660D01*
X170006704Y-62076630D01*
X170112075Y-62331017D01*
X170112080Y-62331028D01*
X170161746Y-62417050D01*
X170249751Y-62569479D01*
X170249753Y-62569482D01*
X170249754Y-62569483D01*
X170417370Y-62787926D01*
X170417376Y-62787933D01*
X170612066Y-62982623D01*
X170612072Y-62982628D01*
X170830521Y-63150249D01*
X170983778Y-63238732D01*
X171068971Y-63287919D01*
X171068976Y-63287921D01*
X171068979Y-63287923D01*
X171323368Y-63393295D01*
X171589334Y-63464560D01*
X171862326Y-63500500D01*
X171862333Y-63500500D01*
X172137667Y-63500500D01*
X172137674Y-63500500D01*
X172410666Y-63464560D01*
X172676632Y-63393295D01*
X172931021Y-63287923D01*
X173169479Y-63150249D01*
X173387928Y-62982628D01*
X173582628Y-62787928D01*
X173750249Y-62569479D01*
X173887923Y-62331021D01*
X173993295Y-62076632D01*
X174064560Y-61810666D01*
X174100500Y-61537674D01*
X174100500Y-61262326D01*
X174064560Y-60989334D01*
X173993295Y-60723368D01*
X173887923Y-60468979D01*
X173887921Y-60468976D01*
X173887919Y-60468971D01*
X173833087Y-60374000D01*
X173750249Y-60230521D01*
X173602791Y-60038349D01*
X173582629Y-60012073D01*
X173582623Y-60012066D01*
X173387933Y-59817376D01*
X173387926Y-59817370D01*
X173253237Y-59714020D01*
X173212034Y-59657592D01*
X173207879Y-59587846D01*
X173242091Y-59526926D01*
X173303808Y-59494173D01*
X173329336Y-59491646D01*
X174376122Y-59496880D01*
X174443060Y-59516899D01*
X174488551Y-59569931D01*
X174499500Y-59620878D01*
X174499500Y-127775500D01*
X174479815Y-127842539D01*
X174427011Y-127888294D01*
X174375500Y-127899500D01*
X75624500Y-127899500D01*
X75557461Y-127879815D01*
X75511706Y-127827011D01*
X75500500Y-127775500D01*
X75500500Y-125262332D01*
X75899500Y-125262332D01*
X75899500Y-125537667D01*
X75899501Y-125537684D01*
X75935438Y-125810655D01*
X75935439Y-125810660D01*
X75935440Y-125810666D01*
X75953401Y-125877697D01*
X76006704Y-126076630D01*
X76112075Y-126331017D01*
X76112080Y-126331028D01*
X76176293Y-126442246D01*
X76249751Y-126569479D01*
X76249753Y-126569482D01*
X76249754Y-126569483D01*
X76417370Y-126787926D01*
X76417376Y-126787933D01*
X76612066Y-126982623D01*
X76612072Y-126982628D01*
X76830521Y-127150249D01*
X76983778Y-127238732D01*
X77068971Y-127287919D01*
X77068976Y-127287921D01*
X77068979Y-127287923D01*
X77323368Y-127393295D01*
X77589334Y-127464560D01*
X77862326Y-127500500D01*
X77862333Y-127500500D01*
X78137667Y-127500500D01*
X78137674Y-127500500D01*
X78410666Y-127464560D01*
X78676632Y-127393295D01*
X78931021Y-127287923D01*
X79169479Y-127150249D01*
X79387928Y-126982628D01*
X79582628Y-126787928D01*
X79750249Y-126569479D01*
X79887923Y-126331021D01*
X79993295Y-126076632D01*
X80064560Y-125810666D01*
X80100500Y-125537674D01*
X80100500Y-125262326D01*
X80064560Y-124989334D01*
X79993295Y-124723368D01*
X79887923Y-124468979D01*
X79750249Y-124230521D01*
X79746023Y-124225013D01*
X140150000Y-124225013D01*
X140150000Y-124750000D01*
X141095854Y-124750000D01*
X141057370Y-124816657D01*
X141025000Y-124937465D01*
X141025000Y-125062535D01*
X141057370Y-125183343D01*
X141095854Y-125250000D01*
X140150001Y-125250000D01*
X140150001Y-125774986D01*
X140160494Y-125877697D01*
X140215641Y-126044119D01*
X140215643Y-126044124D01*
X140307684Y-126193345D01*
X140431654Y-126317315D01*
X140580875Y-126409356D01*
X140580880Y-126409358D01*
X140747302Y-126464505D01*
X140747309Y-126464506D01*
X140850019Y-126474999D01*
X141249999Y-126474999D01*
X141250000Y-126474998D01*
X141250000Y-125404145D01*
X141316657Y-125442630D01*
X141437465Y-125475000D01*
X141562535Y-125475000D01*
X141683343Y-125442630D01*
X141750000Y-125404145D01*
X141750000Y-126474999D01*
X142149972Y-126474999D01*
X142149986Y-126474998D01*
X142252697Y-126464505D01*
X142419119Y-126409358D01*
X142419124Y-126409356D01*
X142568345Y-126317315D01*
X142692317Y-126193343D01*
X142787815Y-126038516D01*
X142839763Y-125991791D01*
X142908725Y-125980568D01*
X142972808Y-126008412D01*
X142981035Y-126015931D01*
X143120213Y-126155109D01*
X143292179Y-126280048D01*
X143292181Y-126280049D01*
X143292184Y-126280051D01*
X143481588Y-126376557D01*
X143683757Y-126442246D01*
X143893713Y-126475500D01*
X143893714Y-126475500D01*
X144106286Y-126475500D01*
X144106287Y-126475500D01*
X144316243Y-126442246D01*
X144518412Y-126376557D01*
X144707816Y-126280051D01*
X144768357Y-126236066D01*
X144879786Y-126155109D01*
X144879788Y-126155106D01*
X144879792Y-126155104D01*
X145030104Y-126004792D01*
X145149683Y-125840204D01*
X145205011Y-125797540D01*
X145274624Y-125791561D01*
X145336420Y-125824166D01*
X145350313Y-125840199D01*
X145377557Y-125877697D01*
X145469896Y-126004792D01*
X145620213Y-126155109D01*
X145792179Y-126280048D01*
X145792181Y-126280049D01*
X145792184Y-126280051D01*
X145981588Y-126376557D01*
X146183757Y-126442246D01*
X146393713Y-126475500D01*
X146393714Y-126475500D01*
X146606286Y-126475500D01*
X146606287Y-126475500D01*
X146816243Y-126442246D01*
X147018412Y-126376557D01*
X147207816Y-126280051D01*
X147268357Y-126236066D01*
X147379786Y-126155109D01*
X147379788Y-126155106D01*
X147379792Y-126155104D01*
X147530104Y-126004792D01*
X147530106Y-126004788D01*
X147530109Y-126004786D01*
X147655048Y-125832820D01*
X147655047Y-125832820D01*
X147655051Y-125832816D01*
X147751557Y-125643412D01*
X147817246Y-125441243D01*
X147850500Y-125231287D01*
X147850500Y-124768713D01*
X147817246Y-124558757D01*
X147751557Y-124356588D01*
X147724706Y-124303889D01*
X147711597Y-124278160D01*
X147711596Y-124278159D01*
X147684516Y-124225013D01*
X155150000Y-124225013D01*
X155150000Y-124750000D01*
X156095854Y-124750000D01*
X156057370Y-124816657D01*
X156025000Y-124937465D01*
X156025000Y-125062535D01*
X156057370Y-125183343D01*
X156095854Y-125250000D01*
X155150001Y-125250000D01*
X155150001Y-125774986D01*
X155160494Y-125877697D01*
X155215641Y-126044119D01*
X155215643Y-126044124D01*
X155307684Y-126193345D01*
X155431654Y-126317315D01*
X155580875Y-126409356D01*
X155580880Y-126409358D01*
X155747302Y-126464505D01*
X155747309Y-126464506D01*
X155850019Y-126474999D01*
X156249999Y-126474999D01*
X156250000Y-126474998D01*
X156250000Y-125404145D01*
X156316657Y-125442630D01*
X156437465Y-125475000D01*
X156562535Y-125475000D01*
X156683343Y-125442630D01*
X156750000Y-125404145D01*
X156750000Y-126474999D01*
X157149972Y-126474999D01*
X157149986Y-126474998D01*
X157252697Y-126464505D01*
X157419119Y-126409358D01*
X157419124Y-126409356D01*
X157568345Y-126317315D01*
X157692317Y-126193343D01*
X157787815Y-126038516D01*
X157839763Y-125991791D01*
X157908725Y-125980568D01*
X157972808Y-126008412D01*
X157981035Y-126015931D01*
X158120213Y-126155109D01*
X158292179Y-126280048D01*
X158292181Y-126280049D01*
X158292184Y-126280051D01*
X158481588Y-126376557D01*
X158683757Y-126442246D01*
X158893713Y-126475500D01*
X158893714Y-126475500D01*
X159106286Y-126475500D01*
X159106287Y-126475500D01*
X159316243Y-126442246D01*
X159518412Y-126376557D01*
X159707816Y-126280051D01*
X159768357Y-126236066D01*
X159879786Y-126155109D01*
X159879788Y-126155106D01*
X159879792Y-126155104D01*
X160030104Y-126004792D01*
X160149683Y-125840204D01*
X160205011Y-125797540D01*
X160274624Y-125791561D01*
X160336420Y-125824166D01*
X160350313Y-125840199D01*
X160377557Y-125877697D01*
X160469896Y-126004792D01*
X160620213Y-126155109D01*
X160792179Y-126280048D01*
X160792181Y-126280049D01*
X160792184Y-126280051D01*
X160981588Y-126376557D01*
X161183757Y-126442246D01*
X161393713Y-126475500D01*
X161393714Y-126475500D01*
X161606286Y-126475500D01*
X161606287Y-126475500D01*
X161816243Y-126442246D01*
X162018412Y-126376557D01*
X162207816Y-126280051D01*
X162268357Y-126236066D01*
X162379786Y-126155109D01*
X162379788Y-126155106D01*
X162379792Y-126155104D01*
X162530104Y-126004792D01*
X162530106Y-126004788D01*
X162530109Y-126004786D01*
X162655048Y-125832820D01*
X162655047Y-125832820D01*
X162655051Y-125832816D01*
X162751557Y-125643412D01*
X162817246Y-125441243D01*
X162845583Y-125262332D01*
X169899500Y-125262332D01*
X169899500Y-125537667D01*
X169899501Y-125537684D01*
X169935438Y-125810655D01*
X169935439Y-125810660D01*
X169935440Y-125810666D01*
X169953401Y-125877697D01*
X170006704Y-126076630D01*
X170112075Y-126331017D01*
X170112080Y-126331028D01*
X170176293Y-126442246D01*
X170249751Y-126569479D01*
X170249753Y-126569482D01*
X170249754Y-126569483D01*
X170417370Y-126787926D01*
X170417376Y-126787933D01*
X170612066Y-126982623D01*
X170612072Y-126982628D01*
X170830521Y-127150249D01*
X170983778Y-127238732D01*
X171068971Y-127287919D01*
X171068976Y-127287921D01*
X171068979Y-127287923D01*
X171323368Y-127393295D01*
X171589334Y-127464560D01*
X171862326Y-127500500D01*
X171862333Y-127500500D01*
X172137667Y-127500500D01*
X172137674Y-127500500D01*
X172410666Y-127464560D01*
X172676632Y-127393295D01*
X172931021Y-127287923D01*
X173169479Y-127150249D01*
X173387928Y-126982628D01*
X173582628Y-126787928D01*
X173750249Y-126569479D01*
X173887923Y-126331021D01*
X173993295Y-126076632D01*
X174064560Y-125810666D01*
X174100500Y-125537674D01*
X174100500Y-125262326D01*
X174064560Y-124989334D01*
X173993295Y-124723368D01*
X173887923Y-124468979D01*
X173887921Y-124468976D01*
X173887919Y-124468971D01*
X173823030Y-124356582D01*
X173750249Y-124230521D01*
X173586834Y-124017553D01*
X173582629Y-124012073D01*
X173582623Y-124012066D01*
X173387933Y-123817376D01*
X173387926Y-123817370D01*
X173169483Y-123649754D01*
X173169482Y-123649753D01*
X173169479Y-123649751D01*
X173067098Y-123590641D01*
X172931028Y-123512080D01*
X172931017Y-123512075D01*
X172676630Y-123406704D01*
X172543649Y-123371072D01*
X172410666Y-123335440D01*
X172410660Y-123335439D01*
X172410655Y-123335438D01*
X172137684Y-123299501D01*
X172137679Y-123299500D01*
X172137674Y-123299500D01*
X171862326Y-123299500D01*
X171862320Y-123299500D01*
X171862315Y-123299501D01*
X171589344Y-123335438D01*
X171589337Y-123335439D01*
X171589334Y-123335440D01*
X171533125Y-123350500D01*
X171323369Y-123406704D01*
X171068982Y-123512075D01*
X171068971Y-123512080D01*
X170830516Y-123649754D01*
X170612073Y-123817370D01*
X170612066Y-123817376D01*
X170417376Y-124012066D01*
X170417370Y-124012073D01*
X170249754Y-124230516D01*
X170112080Y-124468971D01*
X170112075Y-124468982D01*
X170006704Y-124723369D01*
X169935441Y-124989331D01*
X169935438Y-124989344D01*
X169899501Y-125262315D01*
X169899500Y-125262332D01*
X162845583Y-125262332D01*
X162850500Y-125231287D01*
X162850500Y-124768713D01*
X162817246Y-124558757D01*
X162751557Y-124356588D01*
X162655051Y-124167184D01*
X162655049Y-124167181D01*
X162655048Y-124167179D01*
X162530109Y-123995213D01*
X162379786Y-123844890D01*
X162207820Y-123719951D01*
X162018414Y-123623444D01*
X162018413Y-123623443D01*
X162018412Y-123623443D01*
X161816243Y-123557754D01*
X161816241Y-123557753D01*
X161816240Y-123557753D01*
X161654957Y-123532208D01*
X161606287Y-123524500D01*
X161393713Y-123524500D01*
X161345042Y-123532208D01*
X161183760Y-123557753D01*
X160981585Y-123623444D01*
X160792179Y-123719951D01*
X160620213Y-123844890D01*
X160469894Y-123995209D01*
X160469890Y-123995214D01*
X160350318Y-124159793D01*
X160294989Y-124202459D01*
X160225375Y-124208438D01*
X160163580Y-124175833D01*
X160149682Y-124159793D01*
X160030109Y-123995214D01*
X160030105Y-123995209D01*
X159879786Y-123844890D01*
X159707820Y-123719951D01*
X159518414Y-123623444D01*
X159518413Y-123623443D01*
X159518412Y-123623443D01*
X159316243Y-123557754D01*
X159316241Y-123557753D01*
X159316240Y-123557753D01*
X159154957Y-123532208D01*
X159106287Y-123524500D01*
X158893713Y-123524500D01*
X158845042Y-123532208D01*
X158683760Y-123557753D01*
X158481585Y-123623444D01*
X158292179Y-123719951D01*
X158120215Y-123844889D01*
X157981035Y-123984069D01*
X157919712Y-124017553D01*
X157850020Y-124012569D01*
X157794087Y-123970697D01*
X157787815Y-123961484D01*
X157692315Y-123806654D01*
X157568345Y-123682684D01*
X157419124Y-123590643D01*
X157419119Y-123590641D01*
X157252697Y-123535494D01*
X157252690Y-123535493D01*
X157149986Y-123525000D01*
X156750000Y-123525000D01*
X156750000Y-124595854D01*
X156683343Y-124557370D01*
X156562535Y-124525000D01*
X156437465Y-124525000D01*
X156316657Y-124557370D01*
X156250000Y-124595854D01*
X156250000Y-123525000D01*
X155850028Y-123525000D01*
X155850012Y-123525001D01*
X155747302Y-123535494D01*
X155580880Y-123590641D01*
X155580875Y-123590643D01*
X155431654Y-123682684D01*
X155307684Y-123806654D01*
X155215643Y-123955875D01*
X155215641Y-123955880D01*
X155160494Y-124122302D01*
X155160493Y-124122309D01*
X155150000Y-124225013D01*
X147684516Y-124225013D01*
X147673024Y-124202459D01*
X147655051Y-124167184D01*
X147622443Y-124122302D01*
X147530109Y-123995213D01*
X147379786Y-123844890D01*
X147207820Y-123719951D01*
X147018414Y-123623444D01*
X147018413Y-123623443D01*
X147018412Y-123623443D01*
X146816243Y-123557754D01*
X146816241Y-123557753D01*
X146816240Y-123557753D01*
X146654957Y-123532208D01*
X146606287Y-123524500D01*
X146393713Y-123524500D01*
X146345042Y-123532208D01*
X146183760Y-123557753D01*
X145981585Y-123623444D01*
X145792179Y-123719951D01*
X145620213Y-123844890D01*
X145469894Y-123995209D01*
X145469890Y-123995214D01*
X145350318Y-124159793D01*
X145294989Y-124202459D01*
X145225375Y-124208438D01*
X145163580Y-124175833D01*
X145149682Y-124159793D01*
X145030109Y-123995214D01*
X145030105Y-123995209D01*
X144879786Y-123844890D01*
X144707820Y-123719951D01*
X144518414Y-123623444D01*
X144518413Y-123623443D01*
X144518412Y-123623443D01*
X144316243Y-123557754D01*
X144316241Y-123557753D01*
X144316240Y-123557753D01*
X144154957Y-123532208D01*
X144106287Y-123524500D01*
X143893713Y-123524500D01*
X143845042Y-123532208D01*
X143683760Y-123557753D01*
X143481585Y-123623444D01*
X143292179Y-123719951D01*
X143120215Y-123844889D01*
X142981035Y-123984069D01*
X142919712Y-124017553D01*
X142850020Y-124012569D01*
X142794087Y-123970697D01*
X142787815Y-123961484D01*
X142692315Y-123806654D01*
X142568345Y-123682684D01*
X142419124Y-123590643D01*
X142419119Y-123590641D01*
X142252697Y-123535494D01*
X142252690Y-123535493D01*
X142149986Y-123525000D01*
X141750000Y-123525000D01*
X141750000Y-124595854D01*
X141683343Y-124557370D01*
X141562535Y-124525000D01*
X141437465Y-124525000D01*
X141316657Y-124557370D01*
X141250000Y-124595854D01*
X141250000Y-123525000D01*
X140850028Y-123525000D01*
X140850012Y-123525001D01*
X140747302Y-123535494D01*
X140580880Y-123590641D01*
X140580875Y-123590643D01*
X140431654Y-123682684D01*
X140307684Y-123806654D01*
X140215643Y-123955875D01*
X140215641Y-123955880D01*
X140160494Y-124122302D01*
X140160493Y-124122309D01*
X140150000Y-124225013D01*
X79746023Y-124225013D01*
X79586834Y-124017553D01*
X79582629Y-124012073D01*
X79582623Y-124012066D01*
X79387933Y-123817376D01*
X79387926Y-123817370D01*
X79169483Y-123649754D01*
X79169482Y-123649753D01*
X79169479Y-123649751D01*
X79067098Y-123590641D01*
X78931028Y-123512080D01*
X78931017Y-123512075D01*
X78676630Y-123406704D01*
X78543649Y-123371072D01*
X78410666Y-123335440D01*
X78410660Y-123335439D01*
X78410655Y-123335438D01*
X78137684Y-123299501D01*
X78137679Y-123299500D01*
X78137674Y-123299500D01*
X77862326Y-123299500D01*
X77862320Y-123299500D01*
X77862315Y-123299501D01*
X77589344Y-123335438D01*
X77589337Y-123335439D01*
X77589334Y-123335440D01*
X77533125Y-123350500D01*
X77323369Y-123406704D01*
X77068982Y-123512075D01*
X77068971Y-123512080D01*
X76830516Y-123649754D01*
X76612073Y-123817370D01*
X76612066Y-123817376D01*
X76417376Y-124012066D01*
X76417370Y-124012073D01*
X76249754Y-124230516D01*
X76112080Y-124468971D01*
X76112075Y-124468982D01*
X76006704Y-124723369D01*
X75935441Y-124989331D01*
X75935438Y-124989344D01*
X75899501Y-125262315D01*
X75899500Y-125262332D01*
X75500500Y-125262332D01*
X75500500Y-113399024D01*
X86769174Y-113399024D01*
X86769174Y-113635219D01*
X86806120Y-113868490D01*
X86879107Y-114093118D01*
X86986331Y-114303555D01*
X87125157Y-114494632D01*
X87292164Y-114661639D01*
X87483241Y-114800465D01*
X87541295Y-114830045D01*
X87693677Y-114907688D01*
X87693679Y-114907688D01*
X87693682Y-114907690D01*
X87814086Y-114946811D01*
X87918305Y-114980675D01*
X88151577Y-115017622D01*
X88151582Y-115017622D01*
X88387771Y-115017622D01*
X88621042Y-114980675D01*
X88669669Y-114964875D01*
X88845666Y-114907690D01*
X89056107Y-114800465D01*
X89247184Y-114661639D01*
X89414191Y-114494632D01*
X89553017Y-114303555D01*
X89660242Y-114093114D01*
X89733227Y-113868490D01*
X89770174Y-113635219D01*
X89770174Y-113399024D01*
X89733227Y-113165753D01*
X89689148Y-113030093D01*
X89660242Y-112941130D01*
X89660240Y-112941127D01*
X89660240Y-112941125D01*
X89553016Y-112730688D01*
X89414191Y-112539612D01*
X89247184Y-112372605D01*
X89056107Y-112233779D01*
X89013768Y-112212206D01*
X88845670Y-112126555D01*
X88621042Y-112053568D01*
X88387771Y-112016622D01*
X88387766Y-112016622D01*
X88151582Y-112016622D01*
X88151577Y-112016622D01*
X87918305Y-112053568D01*
X87693677Y-112126555D01*
X87483240Y-112233779D01*
X87375071Y-112312369D01*
X87292164Y-112372605D01*
X87292162Y-112372607D01*
X87292161Y-112372607D01*
X87125159Y-112539609D01*
X87125159Y-112539610D01*
X87125157Y-112539612D01*
X87085683Y-112593943D01*
X86986331Y-112730688D01*
X86879107Y-112941125D01*
X86806120Y-113165753D01*
X86769174Y-113399024D01*
X75500500Y-113399024D01*
X75500500Y-110810766D01*
X82286364Y-110810766D01*
X82286364Y-111046961D01*
X82323310Y-111280232D01*
X82396297Y-111504860D01*
X82503521Y-111715297D01*
X82642347Y-111906374D01*
X82809354Y-112073381D01*
X83000431Y-112212207D01*
X83099855Y-112262866D01*
X83210867Y-112319430D01*
X83210869Y-112319430D01*
X83210872Y-112319432D01*
X83331276Y-112358553D01*
X83435495Y-112392417D01*
X83668767Y-112429364D01*
X83668772Y-112429364D01*
X83904961Y-112429364D01*
X84138232Y-112392417D01*
X84362856Y-112319432D01*
X84573297Y-112212207D01*
X84764374Y-112073381D01*
X84931381Y-111906374D01*
X85070207Y-111715297D01*
X85177432Y-111504856D01*
X85250417Y-111280232D01*
X85287364Y-111046961D01*
X85287364Y-110810766D01*
X85250417Y-110577495D01*
X85177430Y-110352867D01*
X85092155Y-110185507D01*
X85070207Y-110142431D01*
X84931381Y-109951354D01*
X84764374Y-109784347D01*
X84573297Y-109645521D01*
X84570895Y-109644297D01*
X84362860Y-109538297D01*
X84138232Y-109465310D01*
X83904961Y-109428364D01*
X83904956Y-109428364D01*
X83668772Y-109428364D01*
X83668767Y-109428364D01*
X83435495Y-109465310D01*
X83210867Y-109538297D01*
X83000430Y-109645521D01*
X82891414Y-109724726D01*
X82809354Y-109784347D01*
X82809352Y-109784349D01*
X82809351Y-109784349D01*
X82642349Y-109951351D01*
X82642349Y-109951352D01*
X82642347Y-109951354D01*
X82605276Y-110002378D01*
X82503521Y-110142430D01*
X82396297Y-110352867D01*
X82323310Y-110577495D01*
X82286364Y-110810766D01*
X75500500Y-110810766D01*
X75500500Y-106327956D01*
X79698106Y-106327956D01*
X79698106Y-106564151D01*
X79735052Y-106797422D01*
X79808039Y-107022050D01*
X79875712Y-107154864D01*
X79915263Y-107232487D01*
X80054089Y-107423564D01*
X80221096Y-107590571D01*
X80412173Y-107729397D01*
X80511597Y-107780056D01*
X80622609Y-107836620D01*
X80622611Y-107836620D01*
X80622614Y-107836622D01*
X80743018Y-107875743D01*
X80847237Y-107909607D01*
X81080509Y-107946554D01*
X81080514Y-107946554D01*
X81316703Y-107946554D01*
X81549974Y-107909607D01*
X81579541Y-107900000D01*
X81774598Y-107836622D01*
X81985039Y-107729397D01*
X82176116Y-107590571D01*
X82343123Y-107423564D01*
X82481949Y-107232487D01*
X82589174Y-107022046D01*
X82662159Y-106797422D01*
X82699106Y-106564151D01*
X82699106Y-106327956D01*
X99016622Y-106327956D01*
X99016622Y-106564151D01*
X99053568Y-106797422D01*
X99126555Y-107022050D01*
X99194228Y-107154864D01*
X99233779Y-107232487D01*
X99372605Y-107423564D01*
X99539612Y-107590571D01*
X99730689Y-107729397D01*
X99830113Y-107780056D01*
X99941125Y-107836620D01*
X99941127Y-107836620D01*
X99941130Y-107836622D01*
X100061534Y-107875743D01*
X100165753Y-107909607D01*
X100399025Y-107946554D01*
X100399030Y-107946554D01*
X100635219Y-107946554D01*
X100868490Y-107909607D01*
X100898057Y-107900000D01*
X101093114Y-107836622D01*
X101303555Y-107729397D01*
X101494632Y-107590571D01*
X101661639Y-107423564D01*
X101800465Y-107232487D01*
X101907690Y-107022046D01*
X101980675Y-106797422D01*
X102017622Y-106564151D01*
X102017622Y-106327956D01*
X101980675Y-106094685D01*
X101907688Y-105870057D01*
X101800464Y-105659620D01*
X101661639Y-105468544D01*
X101494632Y-105301537D01*
X101303555Y-105162711D01*
X101093118Y-105055487D01*
X100868490Y-104982500D01*
X100635219Y-104945554D01*
X100635214Y-104945554D01*
X100399030Y-104945554D01*
X100399025Y-104945554D01*
X100165753Y-104982500D01*
X99941125Y-105055487D01*
X99730688Y-105162711D01*
X99676684Y-105201948D01*
X99539612Y-105301537D01*
X99539610Y-105301539D01*
X99539609Y-105301539D01*
X99372607Y-105468541D01*
X99372607Y-105468542D01*
X99372605Y-105468544D01*
X99349752Y-105499999D01*
X99233779Y-105659620D01*
X99126555Y-105870057D01*
X99053568Y-106094685D01*
X99016622Y-106327956D01*
X82699106Y-106327956D01*
X82662159Y-106094685D01*
X82589172Y-105870057D01*
X82481948Y-105659620D01*
X82343123Y-105468544D01*
X82176116Y-105301537D01*
X81985039Y-105162711D01*
X81774602Y-105055487D01*
X81549974Y-104982500D01*
X81316703Y-104945554D01*
X81316698Y-104945554D01*
X81080514Y-104945554D01*
X81080509Y-104945554D01*
X80847237Y-104982500D01*
X80622609Y-105055487D01*
X80412172Y-105162711D01*
X80358168Y-105201948D01*
X80221096Y-105301537D01*
X80221094Y-105301539D01*
X80221093Y-105301539D01*
X80054091Y-105468541D01*
X80054091Y-105468542D01*
X80054089Y-105468544D01*
X80031236Y-105499999D01*
X79915263Y-105659620D01*
X79808039Y-105870057D01*
X79735052Y-106094685D01*
X79698106Y-106327956D01*
X75500500Y-106327956D01*
X75500500Y-101151576D01*
X79698106Y-101151576D01*
X79698106Y-101387771D01*
X79735052Y-101621042D01*
X79808039Y-101845670D01*
X79915263Y-102056107D01*
X80054089Y-102247184D01*
X80221096Y-102414191D01*
X80412173Y-102553017D01*
X80511597Y-102603676D01*
X80622609Y-102660240D01*
X80622611Y-102660240D01*
X80622614Y-102660242D01*
X80743018Y-102699363D01*
X80847237Y-102733227D01*
X81080509Y-102770174D01*
X81080514Y-102770174D01*
X81316703Y-102770174D01*
X81549974Y-102733227D01*
X81774598Y-102660242D01*
X81985039Y-102553017D01*
X82176116Y-102414191D01*
X82343123Y-102247184D01*
X82481949Y-102056107D01*
X82589174Y-101845666D01*
X82662159Y-101621042D01*
X82699106Y-101387771D01*
X82699106Y-101151576D01*
X99016622Y-101151576D01*
X99016622Y-101387771D01*
X99053568Y-101621042D01*
X99126555Y-101845670D01*
X99233779Y-102056107D01*
X99372605Y-102247184D01*
X99539612Y-102414191D01*
X99730689Y-102553017D01*
X99830113Y-102603676D01*
X99941125Y-102660240D01*
X99941127Y-102660240D01*
X99941130Y-102660242D01*
X100061534Y-102699363D01*
X100165753Y-102733227D01*
X100399025Y-102770174D01*
X100399030Y-102770174D01*
X100635219Y-102770174D01*
X100868490Y-102733227D01*
X101093114Y-102660242D01*
X101303555Y-102553017D01*
X101494632Y-102414191D01*
X101661639Y-102247184D01*
X101800465Y-102056107D01*
X101907690Y-101845666D01*
X101980675Y-101621042D01*
X102017622Y-101387771D01*
X102017622Y-101151576D01*
X101980675Y-100918305D01*
X101907688Y-100693677D01*
X101828022Y-100537325D01*
X101800465Y-100483241D01*
X101661639Y-100292164D01*
X101494632Y-100125157D01*
X101303555Y-99986331D01*
X101247872Y-99957959D01*
X101093118Y-99879107D01*
X100868490Y-99806120D01*
X100635219Y-99769174D01*
X100635214Y-99769174D01*
X100399030Y-99769174D01*
X100399025Y-99769174D01*
X100165753Y-99806120D01*
X99941125Y-99879107D01*
X99730688Y-99986331D01*
X99631440Y-100058440D01*
X99539612Y-100125157D01*
X99539610Y-100125159D01*
X99539609Y-100125159D01*
X99372607Y-100292161D01*
X99372607Y-100292162D01*
X99372605Y-100292164D01*
X99328588Y-100352748D01*
X99233779Y-100483240D01*
X99126555Y-100693677D01*
X99053568Y-100918305D01*
X99016622Y-101151576D01*
X82699106Y-101151576D01*
X82662159Y-100918305D01*
X82589172Y-100693677D01*
X82509506Y-100537325D01*
X82481949Y-100483241D01*
X82343123Y-100292164D01*
X82176116Y-100125157D01*
X81985039Y-99986331D01*
X81929356Y-99957959D01*
X81774602Y-99879107D01*
X81549974Y-99806120D01*
X81316703Y-99769174D01*
X81316698Y-99769174D01*
X81080514Y-99769174D01*
X81080509Y-99769174D01*
X80847237Y-99806120D01*
X80622609Y-99879107D01*
X80412172Y-99986331D01*
X80312924Y-100058440D01*
X80221096Y-100125157D01*
X80221094Y-100125159D01*
X80221093Y-100125159D01*
X80054091Y-100292161D01*
X80054091Y-100292162D01*
X80054089Y-100292164D01*
X80010072Y-100352748D01*
X79915263Y-100483240D01*
X79808039Y-100693677D01*
X79735052Y-100918305D01*
X79698106Y-101151576D01*
X75500500Y-101151576D01*
X75500500Y-98739811D01*
X89357864Y-98739811D01*
X89357864Y-98975916D01*
X89394798Y-99209111D01*
X89467761Y-99433666D01*
X89574951Y-99644038D01*
X89635202Y-99726968D01*
X89635204Y-99726969D01*
X90374901Y-98987272D01*
X90391939Y-99050857D01*
X90457765Y-99164871D01*
X90550857Y-99257963D01*
X90664871Y-99323789D01*
X90728454Y-99340826D01*
X89988757Y-100080522D01*
X90071692Y-100140778D01*
X90282061Y-100247966D01*
X90506616Y-100320929D01*
X90506615Y-100320929D01*
X90739812Y-100357864D01*
X90975916Y-100357864D01*
X91209111Y-100320929D01*
X91433666Y-100247966D01*
X91644027Y-100140782D01*
X91644033Y-100140778D01*
X91726968Y-100080522D01*
X91726969Y-100080522D01*
X90987272Y-99340826D01*
X91050857Y-99323789D01*
X91164871Y-99257963D01*
X91257963Y-99164871D01*
X91323789Y-99050857D01*
X91340826Y-98987273D01*
X92080522Y-99726969D01*
X92080522Y-99726968D01*
X92140778Y-99644033D01*
X92140782Y-99644027D01*
X92247966Y-99433666D01*
X92320929Y-99209111D01*
X92357864Y-98975916D01*
X92357864Y-98739811D01*
X92320929Y-98506616D01*
X92247966Y-98282061D01*
X92140778Y-98071692D01*
X92080522Y-97988758D01*
X92080522Y-97988757D01*
X91340826Y-98728454D01*
X91323789Y-98664871D01*
X91257963Y-98550857D01*
X91164871Y-98457765D01*
X91050857Y-98391939D01*
X90987273Y-98374901D01*
X91726969Y-97635204D01*
X91726968Y-97635202D01*
X91644038Y-97574951D01*
X91433666Y-97467761D01*
X91209111Y-97394798D01*
X91209112Y-97394798D01*
X90975916Y-97357864D01*
X90739812Y-97357864D01*
X90506616Y-97394798D01*
X90282061Y-97467761D01*
X90071694Y-97574948D01*
X89988758Y-97635204D01*
X90728455Y-98374901D01*
X90664871Y-98391939D01*
X90550857Y-98457765D01*
X90457765Y-98550857D01*
X90391939Y-98664871D01*
X90374901Y-98728455D01*
X89635204Y-97988758D01*
X89574948Y-98071694D01*
X89467761Y-98282061D01*
X89394798Y-98506616D01*
X89357864Y-98739811D01*
X75500500Y-98739811D01*
X75500500Y-96668766D01*
X82286364Y-96668766D01*
X82286364Y-96904961D01*
X82323310Y-97138232D01*
X82396297Y-97362860D01*
X82503521Y-97573297D01*
X82642347Y-97764374D01*
X82809354Y-97931381D01*
X83000431Y-98070207D01*
X83057922Y-98099500D01*
X83210867Y-98177430D01*
X83210869Y-98177430D01*
X83210872Y-98177432D01*
X83331276Y-98216553D01*
X83435495Y-98250417D01*
X83668767Y-98287364D01*
X83668772Y-98287364D01*
X83904961Y-98287364D01*
X84138232Y-98250417D01*
X84362856Y-98177432D01*
X84573297Y-98070207D01*
X84764374Y-97931381D01*
X84931381Y-97764374D01*
X85070207Y-97573297D01*
X85177432Y-97362856D01*
X85250417Y-97138232D01*
X85287364Y-96904961D01*
X85287364Y-96668766D01*
X96428364Y-96668766D01*
X96428364Y-96904961D01*
X96465310Y-97138232D01*
X96538297Y-97362860D01*
X96645521Y-97573297D01*
X96784347Y-97764374D01*
X96951354Y-97931381D01*
X97142431Y-98070207D01*
X97199922Y-98099500D01*
X97352867Y-98177430D01*
X97352869Y-98177430D01*
X97352872Y-98177432D01*
X97473276Y-98216553D01*
X97577495Y-98250417D01*
X97810767Y-98287364D01*
X97810772Y-98287364D01*
X98046961Y-98287364D01*
X98280232Y-98250417D01*
X98504856Y-98177432D01*
X98715297Y-98070207D01*
X98906374Y-97931381D01*
X99073381Y-97764374D01*
X99212207Y-97573297D01*
X99319432Y-97362856D01*
X99392417Y-97138232D01*
X99429364Y-96904961D01*
X99429364Y-96668766D01*
X99392417Y-96435495D01*
X99319430Y-96210867D01*
X99212206Y-96000430D01*
X99073381Y-95809354D01*
X98906374Y-95642347D01*
X98715297Y-95503521D01*
X98672958Y-95481948D01*
X98504860Y-95396297D01*
X98280232Y-95323310D01*
X98046961Y-95286364D01*
X98046956Y-95286364D01*
X97810772Y-95286364D01*
X97810767Y-95286364D01*
X97577495Y-95323310D01*
X97352867Y-95396297D01*
X97142430Y-95503521D01*
X97033414Y-95582726D01*
X96951354Y-95642347D01*
X96951352Y-95642349D01*
X96951351Y-95642349D01*
X96784349Y-95809351D01*
X96784349Y-95809352D01*
X96784347Y-95809354D01*
X96724726Y-95891414D01*
X96645521Y-96000430D01*
X96538297Y-96210867D01*
X96465310Y-96435495D01*
X96428364Y-96668766D01*
X85287364Y-96668766D01*
X85250417Y-96435495D01*
X85177430Y-96210867D01*
X85070206Y-96000430D01*
X84931381Y-95809354D01*
X84764374Y-95642347D01*
X84573297Y-95503521D01*
X84530958Y-95481948D01*
X84362860Y-95396297D01*
X84138232Y-95323310D01*
X83904961Y-95286364D01*
X83904956Y-95286364D01*
X83668772Y-95286364D01*
X83668767Y-95286364D01*
X83435495Y-95323310D01*
X83210867Y-95396297D01*
X83000430Y-95503521D01*
X82891414Y-95582726D01*
X82809354Y-95642347D01*
X82809352Y-95642349D01*
X82809351Y-95642349D01*
X82642349Y-95809351D01*
X82642349Y-95809352D01*
X82642347Y-95809354D01*
X82582726Y-95891414D01*
X82503521Y-96000430D01*
X82396297Y-96210867D01*
X82323310Y-96435495D01*
X82286364Y-96668766D01*
X75500500Y-96668766D01*
X75500500Y-94080508D01*
X86769174Y-94080508D01*
X86769174Y-94316703D01*
X86806120Y-94549974D01*
X86879107Y-94774602D01*
X86986331Y-94985039D01*
X87125157Y-95176116D01*
X87292164Y-95343123D01*
X87483241Y-95481949D01*
X87582665Y-95532608D01*
X87693677Y-95589172D01*
X87693679Y-95589172D01*
X87693682Y-95589174D01*
X87814086Y-95628295D01*
X87918305Y-95662159D01*
X88151577Y-95699106D01*
X88151582Y-95699106D01*
X88387771Y-95699106D01*
X88621042Y-95662159D01*
X88845666Y-95589174D01*
X89056107Y-95481949D01*
X89247184Y-95343123D01*
X89414191Y-95176116D01*
X89553017Y-94985039D01*
X89660242Y-94774598D01*
X89733227Y-94549974D01*
X89738847Y-94514492D01*
X89770174Y-94316703D01*
X89770174Y-94080508D01*
X91945554Y-94080508D01*
X91945554Y-94316703D01*
X91982500Y-94549974D01*
X92055487Y-94774602D01*
X92162711Y-94985039D01*
X92301537Y-95176116D01*
X92468544Y-95343123D01*
X92659621Y-95481949D01*
X92759045Y-95532608D01*
X92870057Y-95589172D01*
X92870059Y-95589172D01*
X92870062Y-95589174D01*
X92990466Y-95628295D01*
X93094685Y-95662159D01*
X93327957Y-95699106D01*
X93327962Y-95699106D01*
X93564151Y-95699106D01*
X93797422Y-95662159D01*
X94022046Y-95589174D01*
X94232487Y-95481949D01*
X94423564Y-95343123D01*
X94590571Y-95176116D01*
X94729397Y-94985039D01*
X94836622Y-94774598D01*
X94909607Y-94549974D01*
X94915227Y-94514492D01*
X94946554Y-94316703D01*
X94946554Y-94080508D01*
X94909607Y-93847237D01*
X94836620Y-93622609D01*
X94729396Y-93412172D01*
X94590571Y-93221096D01*
X94423564Y-93054089D01*
X94232487Y-92915263D01*
X94216651Y-92907194D01*
X94022050Y-92808039D01*
X93797422Y-92735052D01*
X93564151Y-92698106D01*
X93564146Y-92698106D01*
X93327962Y-92698106D01*
X93327957Y-92698106D01*
X93094685Y-92735052D01*
X92870057Y-92808039D01*
X92659620Y-92915263D01*
X92550604Y-92994468D01*
X92468544Y-93054089D01*
X92468542Y-93054091D01*
X92468541Y-93054091D01*
X92301539Y-93221093D01*
X92301539Y-93221094D01*
X92301537Y-93221096D01*
X92241916Y-93303156D01*
X92162711Y-93412172D01*
X92055487Y-93622609D01*
X91982500Y-93847237D01*
X91945554Y-94080508D01*
X89770174Y-94080508D01*
X89733227Y-93847237D01*
X89660240Y-93622609D01*
X89553016Y-93412172D01*
X89414191Y-93221096D01*
X89247184Y-93054089D01*
X89056107Y-92915263D01*
X89040271Y-92907194D01*
X88845670Y-92808039D01*
X88621042Y-92735052D01*
X88387771Y-92698106D01*
X88387766Y-92698106D01*
X88151582Y-92698106D01*
X88151577Y-92698106D01*
X87918305Y-92735052D01*
X87693677Y-92808039D01*
X87483240Y-92915263D01*
X87374224Y-92994468D01*
X87292164Y-93054089D01*
X87292162Y-93054091D01*
X87292161Y-93054091D01*
X87125159Y-93221093D01*
X87125159Y-93221094D01*
X87125157Y-93221096D01*
X87065536Y-93303156D01*
X86986331Y-93412172D01*
X86879107Y-93622609D01*
X86806120Y-93847237D01*
X86769174Y-94080508D01*
X75500500Y-94080508D01*
X75500500Y-86937847D01*
X93144864Y-86937847D01*
X93144864Y-87937865D01*
X93144865Y-87937883D01*
X93155364Y-88040660D01*
X93155365Y-88040663D01*
X93195364Y-88161369D01*
X93210550Y-88207198D01*
X93302652Y-88356520D01*
X93426708Y-88480576D01*
X93487497Y-88518071D01*
X93560959Y-88563382D01*
X93607684Y-88615330D01*
X93619863Y-88668921D01*
X93619863Y-88799418D01*
X93619862Y-88799418D01*
X93645230Y-88894091D01*
X93660787Y-88952149D01*
X93682474Y-88989711D01*
X93720720Y-89055957D01*
X93739843Y-89089079D01*
X93858713Y-89207949D01*
X93858719Y-89207954D01*
X94165425Y-89514660D01*
X94198910Y-89575983D01*
X94199361Y-89578149D01*
X94230261Y-89733491D01*
X94230264Y-89733501D01*
X94290602Y-89879172D01*
X94290609Y-89879185D01*
X94378210Y-90010288D01*
X94378213Y-90010292D01*
X94489707Y-90121786D01*
X94489711Y-90121789D01*
X94620814Y-90209390D01*
X94620827Y-90209397D01*
X94766498Y-90269735D01*
X94766503Y-90269737D01*
X94921153Y-90300499D01*
X94921156Y-90300500D01*
X94921158Y-90300500D01*
X95078844Y-90300500D01*
X95078845Y-90300499D01*
X95233497Y-90269737D01*
X95379179Y-90209394D01*
X95510289Y-90121789D01*
X95621789Y-90010289D01*
X95709394Y-89879179D01*
X95769737Y-89733497D01*
X95800500Y-89578842D01*
X95800500Y-89421158D01*
X95800500Y-89421155D01*
X95800499Y-89421153D01*
X95774531Y-89290606D01*
X95769737Y-89266503D01*
X95769735Y-89266498D01*
X95709397Y-89120827D01*
X95709390Y-89120814D01*
X95621789Y-88989710D01*
X95510292Y-88878213D01*
X95510288Y-88878210D01*
X95379185Y-88790609D01*
X95379172Y-88790602D01*
X95233501Y-88730264D01*
X95233491Y-88730261D01*
X95078152Y-88699362D01*
X95061395Y-88690596D01*
X95042917Y-88686577D01*
X95017880Y-88667834D01*
X95016241Y-88666977D01*
X95014663Y-88665426D01*
X95009597Y-88660360D01*
X94976112Y-88599037D01*
X94981096Y-88529345D01*
X95009597Y-88484997D01*
X95014014Y-88480579D01*
X95014020Y-88480576D01*
X95138076Y-88356520D01*
X95139825Y-88353683D01*
X95141533Y-88352147D01*
X95142557Y-88350853D01*
X95142778Y-88351027D01*
X95191770Y-88306960D01*
X95260732Y-88295736D01*
X95324815Y-88323577D01*
X95350901Y-88353681D01*
X95352652Y-88356520D01*
X95476708Y-88480576D01*
X95626030Y-88572678D01*
X95792567Y-88627863D01*
X95895355Y-88638364D01*
X96645372Y-88638363D01*
X96645380Y-88638362D01*
X96645383Y-88638362D01*
X96701666Y-88632612D01*
X96748161Y-88627863D01*
X96914698Y-88572678D01*
X97064020Y-88480576D01*
X97188076Y-88356520D01*
X97280178Y-88207198D01*
X97335363Y-88040661D01*
X97345864Y-87937873D01*
X97345863Y-86937856D01*
X97335363Y-86835067D01*
X97280178Y-86668530D01*
X97188076Y-86519208D01*
X97064020Y-86395152D01*
X96987683Y-86348067D01*
X96940960Y-86296120D01*
X96929737Y-86227157D01*
X96957581Y-86163075D01*
X96983887Y-86139430D01*
X97010289Y-86121789D01*
X97121789Y-86010289D01*
X97209394Y-85879179D01*
X97269737Y-85733497D01*
X97300500Y-85578842D01*
X97300500Y-85421158D01*
X97300500Y-85421155D01*
X97300499Y-85421153D01*
X97269738Y-85266510D01*
X97269737Y-85266503D01*
X97269735Y-85266498D01*
X97209397Y-85120827D01*
X97209390Y-85120814D01*
X97121789Y-84989711D01*
X97121786Y-84989707D01*
X97010292Y-84878213D01*
X97010288Y-84878210D01*
X96879185Y-84790609D01*
X96879172Y-84790602D01*
X96733501Y-84730264D01*
X96733489Y-84730261D01*
X96578845Y-84699500D01*
X96578842Y-84699500D01*
X96421158Y-84699500D01*
X96421155Y-84699500D01*
X96266510Y-84730261D01*
X96266498Y-84730264D01*
X96120827Y-84790602D01*
X96120814Y-84790609D01*
X95989711Y-84878210D01*
X95989707Y-84878213D01*
X95878213Y-84989707D01*
X95878210Y-84989711D01*
X95790609Y-85120814D01*
X95790602Y-85120827D01*
X95730264Y-85266498D01*
X95730261Y-85266510D01*
X95699500Y-85421153D01*
X95699500Y-85523647D01*
X95695275Y-85555740D01*
X95669863Y-85650579D01*
X95669863Y-85818682D01*
X95669864Y-85818695D01*
X95669864Y-86206806D01*
X95650179Y-86273845D01*
X95610962Y-86312343D01*
X95553044Y-86348068D01*
X95476706Y-86395153D01*
X95352649Y-86519210D01*
X95350901Y-86522046D01*
X95349193Y-86523581D01*
X95348171Y-86524875D01*
X95347949Y-86524700D01*
X95298953Y-86568769D01*
X95229990Y-86579990D01*
X95165908Y-86552146D01*
X95139827Y-86522046D01*
X95138078Y-86519210D01*
X95014021Y-86395153D01*
X95014020Y-86395152D01*
X94864698Y-86303050D01*
X94698161Y-86247865D01*
X94698159Y-86247864D01*
X94595374Y-86237364D01*
X93845362Y-86237364D01*
X93845344Y-86237365D01*
X93742567Y-86247864D01*
X93742564Y-86247865D01*
X93576032Y-86303049D01*
X93576027Y-86303051D01*
X93426706Y-86395153D01*
X93302653Y-86519206D01*
X93210551Y-86668527D01*
X93210550Y-86668530D01*
X93155365Y-86835067D01*
X93155365Y-86835068D01*
X93155364Y-86835068D01*
X93144864Y-86937847D01*
X75500500Y-86937847D01*
X75500500Y-61262332D01*
X75899500Y-61262332D01*
X75899500Y-61537667D01*
X75899501Y-61537684D01*
X75935438Y-61810655D01*
X75935439Y-61810660D01*
X75935440Y-61810666D01*
X75959018Y-61898660D01*
X76006704Y-62076630D01*
X76112075Y-62331017D01*
X76112080Y-62331028D01*
X76161746Y-62417050D01*
X76249751Y-62569479D01*
X76249753Y-62569482D01*
X76249754Y-62569483D01*
X76417370Y-62787926D01*
X76417376Y-62787933D01*
X76612066Y-62982623D01*
X76612072Y-62982628D01*
X76830521Y-63150249D01*
X76983778Y-63238732D01*
X77068971Y-63287919D01*
X77068976Y-63287921D01*
X77068979Y-63287923D01*
X77323368Y-63393295D01*
X77589334Y-63464560D01*
X77862326Y-63500500D01*
X77862333Y-63500500D01*
X78137667Y-63500500D01*
X78137674Y-63500500D01*
X78410666Y-63464560D01*
X78676632Y-63393295D01*
X78931021Y-63287923D01*
X79169479Y-63150249D01*
X79387928Y-62982628D01*
X79582628Y-62787928D01*
X79750249Y-62569479D01*
X79887923Y-62331021D01*
X79993295Y-62076632D01*
X80064560Y-61810666D01*
X80100500Y-61537674D01*
X80100500Y-61262326D01*
X80064560Y-60989334D01*
X79993295Y-60723368D01*
X79887923Y-60468979D01*
X79887921Y-60468976D01*
X79887919Y-60468971D01*
X79833087Y-60374000D01*
X79750249Y-60230521D01*
X79602791Y-60038349D01*
X79582629Y-60012073D01*
X79582623Y-60012066D01*
X79387933Y-59817376D01*
X79387926Y-59817370D01*
X79169483Y-59649754D01*
X79169482Y-59649753D01*
X79169479Y-59649751D01*
X79060623Y-59586903D01*
X78931028Y-59512080D01*
X78931017Y-59512075D01*
X78676630Y-59406704D01*
X78543649Y-59371072D01*
X78410666Y-59335440D01*
X78410660Y-59335439D01*
X78410655Y-59335438D01*
X78137684Y-59299501D01*
X78137679Y-59299500D01*
X78137674Y-59299500D01*
X77862326Y-59299500D01*
X77862320Y-59299500D01*
X77862315Y-59299501D01*
X77589344Y-59335438D01*
X77589337Y-59335439D01*
X77589334Y-59335440D01*
X77553846Y-59344949D01*
X77323369Y-59406704D01*
X77068982Y-59512075D01*
X77068971Y-59512080D01*
X76830516Y-59649754D01*
X76612073Y-59817370D01*
X76612066Y-59817376D01*
X76417376Y-60012066D01*
X76417370Y-60012073D01*
X76249754Y-60230516D01*
X76112080Y-60468971D01*
X76112075Y-60468982D01*
X76006704Y-60723369D01*
X75984294Y-60807007D01*
X75941713Y-60965925D01*
X75935441Y-60989331D01*
X75935438Y-60989344D01*
X75899501Y-61262315D01*
X75899500Y-61262332D01*
X75500500Y-61262332D01*
X75500500Y-59127123D01*
X75520185Y-59060084D01*
X75572989Y-59014329D01*
X75625117Y-59003125D01*
X135250119Y-59301250D01*
G37*
%TD.AperFunction*%
%TA.AperFunction,Conductor*%
G36*
X122321444Y-67113999D02*
G01*
X122360486Y-67159056D01*
X122364951Y-67167820D01*
X122489890Y-67339786D01*
X122640213Y-67490109D01*
X122812179Y-67615048D01*
X122812181Y-67615049D01*
X122812184Y-67615051D01*
X122821493Y-67619794D01*
X122872290Y-67667766D01*
X122889087Y-67735587D01*
X122866552Y-67801722D01*
X122821505Y-67840760D01*
X122812446Y-67845376D01*
X122812440Y-67845380D01*
X122758282Y-67884727D01*
X122758282Y-67884728D01*
X123390591Y-68517037D01*
X123327007Y-68534075D01*
X123212993Y-68599901D01*
X123119901Y-68692993D01*
X123054075Y-68807007D01*
X123037037Y-68870591D01*
X122404728Y-68238282D01*
X122404727Y-68238282D01*
X122365380Y-68292440D01*
X122365376Y-68292446D01*
X122360760Y-68301505D01*
X122312781Y-68352297D01*
X122244959Y-68369087D01*
X122178826Y-68346543D01*
X122139794Y-68301493D01*
X122135051Y-68292184D01*
X122135049Y-68292181D01*
X122135048Y-68292179D01*
X122010109Y-68120213D01*
X121859786Y-67969890D01*
X121687820Y-67844951D01*
X121679600Y-67840763D01*
X121679054Y-67840485D01*
X121628259Y-67792512D01*
X121611463Y-67724692D01*
X121633999Y-67658556D01*
X121679054Y-67619515D01*
X121687816Y-67615051D01*
X121816458Y-67521588D01*
X121859786Y-67490109D01*
X121859788Y-67490106D01*
X121859792Y-67490104D01*
X122010104Y-67339792D01*
X122010106Y-67339788D01*
X122010109Y-67339786D01*
X122135048Y-67167820D01*
X122135047Y-67167820D01*
X122135051Y-67167816D01*
X122139514Y-67159054D01*
X122187488Y-67108259D01*
X122255308Y-67091463D01*
X122321444Y-67113999D01*
G37*
%TD.AperFunction*%
%TA.AperFunction,Conductor*%
G36*
X142641444Y-67113999D02*
G01*
X142680486Y-67159056D01*
X142684951Y-67167820D01*
X142809890Y-67339786D01*
X142960213Y-67490109D01*
X143132179Y-67615048D01*
X143132181Y-67615049D01*
X143132184Y-67615051D01*
X143141493Y-67619794D01*
X143192290Y-67667766D01*
X143209087Y-67735587D01*
X143186552Y-67801722D01*
X143141505Y-67840760D01*
X143132446Y-67845376D01*
X143132440Y-67845380D01*
X143078282Y-67884727D01*
X143078282Y-67884728D01*
X143710591Y-68517037D01*
X143647007Y-68534075D01*
X143532993Y-68599901D01*
X143439901Y-68692993D01*
X143374075Y-68807007D01*
X143357037Y-68870591D01*
X142724728Y-68238282D01*
X142724727Y-68238282D01*
X142685380Y-68292440D01*
X142685376Y-68292446D01*
X142680760Y-68301505D01*
X142632781Y-68352297D01*
X142564959Y-68369087D01*
X142498826Y-68346543D01*
X142459794Y-68301493D01*
X142455051Y-68292184D01*
X142455049Y-68292181D01*
X142455048Y-68292179D01*
X142330109Y-68120213D01*
X142179786Y-67969890D01*
X142007820Y-67844951D01*
X141999600Y-67840763D01*
X141999054Y-67840485D01*
X141948259Y-67792512D01*
X141931463Y-67724692D01*
X141953999Y-67658556D01*
X141999054Y-67619515D01*
X142007816Y-67615051D01*
X142136458Y-67521588D01*
X142179786Y-67490109D01*
X142179788Y-67490106D01*
X142179792Y-67490104D01*
X142330104Y-67339792D01*
X142330106Y-67339788D01*
X142330109Y-67339786D01*
X142455048Y-67167820D01*
X142455047Y-67167820D01*
X142455051Y-67167816D01*
X142459514Y-67159054D01*
X142507488Y-67108259D01*
X142575308Y-67091463D01*
X142641444Y-67113999D01*
G37*
%TD.AperFunction*%
%TA.AperFunction,Conductor*%
G36*
X107081444Y-67113999D02*
G01*
X107120486Y-67159056D01*
X107124951Y-67167820D01*
X107249890Y-67339786D01*
X107400213Y-67490109D01*
X107572182Y-67615050D01*
X107580946Y-67619516D01*
X107631742Y-67667491D01*
X107648536Y-67735312D01*
X107625998Y-67801447D01*
X107580946Y-67840484D01*
X107572182Y-67844949D01*
X107400213Y-67969890D01*
X107249890Y-68120213D01*
X107124949Y-68292182D01*
X107120202Y-68301499D01*
X107072227Y-68352293D01*
X107004405Y-68369087D01*
X106938271Y-68346548D01*
X106899234Y-68301495D01*
X106894626Y-68292452D01*
X106855270Y-68238282D01*
X106855269Y-68238282D01*
X106222962Y-68870590D01*
X106205925Y-68807007D01*
X106140099Y-68692993D01*
X106047007Y-68599901D01*
X105932993Y-68534075D01*
X105869409Y-68517037D01*
X106501716Y-67884728D01*
X106447547Y-67845373D01*
X106447547Y-67845372D01*
X106438500Y-67840763D01*
X106387706Y-67792788D01*
X106370912Y-67724966D01*
X106393451Y-67658832D01*
X106438508Y-67619793D01*
X106447816Y-67615051D01*
X106576458Y-67521588D01*
X106619786Y-67490109D01*
X106619788Y-67490106D01*
X106619792Y-67490104D01*
X106770104Y-67339792D01*
X106770106Y-67339788D01*
X106770109Y-67339786D01*
X106895048Y-67167820D01*
X106895047Y-67167820D01*
X106895051Y-67167816D01*
X106899514Y-67159054D01*
X106947488Y-67108259D01*
X107015308Y-67091463D01*
X107081444Y-67113999D01*
G37*
%TD.AperFunction*%
%TA.AperFunction,Conductor*%
G36*
X124861444Y-67113999D02*
G01*
X124900486Y-67159056D01*
X124904951Y-67167820D01*
X125029890Y-67339786D01*
X125180213Y-67490109D01*
X125352182Y-67615050D01*
X125360946Y-67619516D01*
X125411742Y-67667491D01*
X125428536Y-67735312D01*
X125405998Y-67801447D01*
X125360946Y-67840484D01*
X125352182Y-67844949D01*
X125180213Y-67969890D01*
X125029890Y-68120213D01*
X124904949Y-68292182D01*
X124900202Y-68301499D01*
X124852227Y-68352293D01*
X124784405Y-68369087D01*
X124718271Y-68346548D01*
X124679234Y-68301495D01*
X124674626Y-68292452D01*
X124635270Y-68238282D01*
X124635269Y-68238282D01*
X124002962Y-68870590D01*
X123985925Y-68807007D01*
X123920099Y-68692993D01*
X123827007Y-68599901D01*
X123712993Y-68534075D01*
X123649409Y-68517037D01*
X124281716Y-67884728D01*
X124227547Y-67845373D01*
X124227547Y-67845372D01*
X124218500Y-67840763D01*
X124167706Y-67792788D01*
X124150912Y-67724966D01*
X124173451Y-67658832D01*
X124218508Y-67619793D01*
X124227816Y-67615051D01*
X124356458Y-67521588D01*
X124399786Y-67490109D01*
X124399788Y-67490106D01*
X124399792Y-67490104D01*
X124550104Y-67339792D01*
X124550106Y-67339788D01*
X124550109Y-67339786D01*
X124675048Y-67167820D01*
X124675047Y-67167820D01*
X124675051Y-67167816D01*
X124679514Y-67159054D01*
X124727488Y-67108259D01*
X124795308Y-67091463D01*
X124861444Y-67113999D01*
G37*
%TD.AperFunction*%
%TA.AperFunction,Conductor*%
G36*
X145181444Y-67113999D02*
G01*
X145220486Y-67159056D01*
X145224951Y-67167820D01*
X145349890Y-67339786D01*
X145500213Y-67490109D01*
X145672182Y-67615050D01*
X145680946Y-67619516D01*
X145731742Y-67667491D01*
X145748536Y-67735312D01*
X145725998Y-67801447D01*
X145680946Y-67840484D01*
X145672182Y-67844949D01*
X145500213Y-67969890D01*
X145349890Y-68120213D01*
X145224949Y-68292182D01*
X145220202Y-68301499D01*
X145172227Y-68352293D01*
X145104405Y-68369087D01*
X145038271Y-68346548D01*
X144999234Y-68301495D01*
X144994626Y-68292452D01*
X144955270Y-68238282D01*
X144955269Y-68238282D01*
X144322962Y-68870590D01*
X144305925Y-68807007D01*
X144240099Y-68692993D01*
X144147007Y-68599901D01*
X144032993Y-68534075D01*
X143969409Y-68517037D01*
X144601716Y-67884728D01*
X144547547Y-67845373D01*
X144547547Y-67845372D01*
X144538500Y-67840763D01*
X144487706Y-67792788D01*
X144470912Y-67724966D01*
X144493451Y-67658832D01*
X144538508Y-67619793D01*
X144547816Y-67615051D01*
X144676458Y-67521588D01*
X144719786Y-67490109D01*
X144719788Y-67490106D01*
X144719792Y-67490104D01*
X144870104Y-67339792D01*
X144870106Y-67339788D01*
X144870109Y-67339786D01*
X144995048Y-67167820D01*
X144995047Y-67167820D01*
X144995051Y-67167816D01*
X144999514Y-67159054D01*
X145047488Y-67108259D01*
X145115308Y-67091463D01*
X145181444Y-67113999D01*
G37*
%TD.AperFunction*%
%TA.AperFunction,Conductor*%
G36*
X112894075Y-66652993D02*
G01*
X112959901Y-66767007D01*
X113052993Y-66860099D01*
X113167007Y-66925925D01*
X113230590Y-66942962D01*
X112598282Y-67575269D01*
X112598282Y-67575270D01*
X112652452Y-67614626D01*
X112652451Y-67614626D01*
X112661495Y-67619234D01*
X112712292Y-67667208D01*
X112729087Y-67735029D01*
X112706550Y-67801164D01*
X112661499Y-67840202D01*
X112652182Y-67844949D01*
X112480213Y-67969890D01*
X112329890Y-68120213D01*
X112204949Y-68292182D01*
X112200484Y-68300946D01*
X112152509Y-68351742D01*
X112084688Y-68368536D01*
X112018553Y-68345998D01*
X111979516Y-68300946D01*
X111975050Y-68292182D01*
X111850109Y-68120213D01*
X111699786Y-67969890D01*
X111527820Y-67844951D01*
X111519600Y-67840763D01*
X111519054Y-67840485D01*
X111468259Y-67792512D01*
X111451463Y-67724692D01*
X111473999Y-67658556D01*
X111519054Y-67619515D01*
X111527816Y-67615051D01*
X111656458Y-67521588D01*
X111699786Y-67490109D01*
X111699788Y-67490106D01*
X111699792Y-67490104D01*
X111850104Y-67339792D01*
X111850106Y-67339788D01*
X111850109Y-67339786D01*
X111935890Y-67221717D01*
X111975051Y-67167816D01*
X111979793Y-67158508D01*
X112027763Y-67107711D01*
X112095583Y-67090911D01*
X112161719Y-67113445D01*
X112200763Y-67158500D01*
X112205373Y-67167547D01*
X112244728Y-67221716D01*
X112877037Y-66589408D01*
X112894075Y-66652993D01*
G37*
%TD.AperFunction*%
%TA.AperFunction,Conductor*%
G36*
X114475270Y-67221717D02*
G01*
X114475270Y-67221716D01*
X114514622Y-67167555D01*
X114519232Y-67158507D01*
X114567205Y-67107709D01*
X114635025Y-67090912D01*
X114701161Y-67113447D01*
X114740204Y-67158504D01*
X114744949Y-67167817D01*
X114869890Y-67339786D01*
X115020213Y-67490109D01*
X115192182Y-67615050D01*
X115200946Y-67619516D01*
X115251742Y-67667491D01*
X115268536Y-67735312D01*
X115245998Y-67801447D01*
X115200946Y-67840484D01*
X115192182Y-67844949D01*
X115020213Y-67969890D01*
X114869890Y-68120213D01*
X114744949Y-68292182D01*
X114740484Y-68300946D01*
X114692509Y-68351742D01*
X114624688Y-68368536D01*
X114558553Y-68345998D01*
X114519516Y-68300946D01*
X114515050Y-68292182D01*
X114390109Y-68120213D01*
X114239786Y-67969890D01*
X114067817Y-67844949D01*
X114058504Y-67840204D01*
X114007707Y-67792230D01*
X113990912Y-67724409D01*
X114013449Y-67658274D01*
X114058507Y-67619232D01*
X114067555Y-67614622D01*
X114121716Y-67575270D01*
X114121717Y-67575270D01*
X113489408Y-66942962D01*
X113552993Y-66925925D01*
X113667007Y-66860099D01*
X113760099Y-66767007D01*
X113825925Y-66652993D01*
X113842962Y-66589408D01*
X114475270Y-67221717D01*
G37*
%TD.AperFunction*%
%TA.AperFunction,Conductor*%
G36*
X117974075Y-66652993D02*
G01*
X118039901Y-66767007D01*
X118132993Y-66860099D01*
X118247007Y-66925925D01*
X118310590Y-66942962D01*
X117678282Y-67575269D01*
X117678282Y-67575270D01*
X117732452Y-67614626D01*
X117732451Y-67614626D01*
X117741495Y-67619234D01*
X117792292Y-67667208D01*
X117809087Y-67735029D01*
X117786550Y-67801164D01*
X117741499Y-67840202D01*
X117732182Y-67844949D01*
X117560213Y-67969890D01*
X117409890Y-68120213D01*
X117284949Y-68292182D01*
X117280484Y-68300946D01*
X117232509Y-68351742D01*
X117164688Y-68368536D01*
X117098553Y-68345998D01*
X117059516Y-68300946D01*
X117055050Y-68292182D01*
X116930109Y-68120213D01*
X116779786Y-67969890D01*
X116607820Y-67844951D01*
X116599600Y-67840763D01*
X116599054Y-67840485D01*
X116548259Y-67792512D01*
X116531463Y-67724692D01*
X116553999Y-67658556D01*
X116599054Y-67619515D01*
X116607816Y-67615051D01*
X116736458Y-67521588D01*
X116779786Y-67490109D01*
X116779788Y-67490106D01*
X116779792Y-67490104D01*
X116930104Y-67339792D01*
X116930106Y-67339788D01*
X116930109Y-67339786D01*
X117015890Y-67221717D01*
X117055051Y-67167816D01*
X117059793Y-67158508D01*
X117107763Y-67107711D01*
X117175583Y-67090911D01*
X117241719Y-67113445D01*
X117280763Y-67158500D01*
X117285373Y-67167547D01*
X117324728Y-67221716D01*
X117957037Y-66589408D01*
X117974075Y-66652993D01*
G37*
%TD.AperFunction*%
%TA.AperFunction,Conductor*%
G36*
X119555270Y-67221717D02*
G01*
X119555270Y-67221716D01*
X119594622Y-67167555D01*
X119599232Y-67158507D01*
X119647205Y-67107709D01*
X119715025Y-67090912D01*
X119781161Y-67113447D01*
X119820204Y-67158504D01*
X119824949Y-67167817D01*
X119949890Y-67339786D01*
X120100213Y-67490109D01*
X120272182Y-67615050D01*
X120280946Y-67619516D01*
X120331742Y-67667491D01*
X120348536Y-67735312D01*
X120325998Y-67801447D01*
X120280946Y-67840484D01*
X120272182Y-67844949D01*
X120100213Y-67969890D01*
X119949890Y-68120213D01*
X119824949Y-68292182D01*
X119820484Y-68300946D01*
X119772509Y-68351742D01*
X119704688Y-68368536D01*
X119638553Y-68345998D01*
X119599516Y-68300946D01*
X119595050Y-68292182D01*
X119470109Y-68120213D01*
X119319786Y-67969890D01*
X119147817Y-67844949D01*
X119138504Y-67840204D01*
X119087707Y-67792230D01*
X119070912Y-67724409D01*
X119093449Y-67658274D01*
X119138507Y-67619232D01*
X119147555Y-67614622D01*
X119201716Y-67575270D01*
X119201717Y-67575270D01*
X118569408Y-66942962D01*
X118632993Y-66925925D01*
X118747007Y-66860099D01*
X118840099Y-66767007D01*
X118905925Y-66652993D01*
X118922962Y-66589408D01*
X119555270Y-67221717D01*
G37*
%TD.AperFunction*%
%TA.AperFunction,Conductor*%
G36*
X130674075Y-66652993D02*
G01*
X130739901Y-66767007D01*
X130832993Y-66860099D01*
X130947007Y-66925925D01*
X131010590Y-66942962D01*
X130378282Y-67575269D01*
X130378282Y-67575270D01*
X130432452Y-67614626D01*
X130432451Y-67614626D01*
X130441495Y-67619234D01*
X130492292Y-67667208D01*
X130509087Y-67735029D01*
X130486550Y-67801164D01*
X130441499Y-67840202D01*
X130432182Y-67844949D01*
X130260213Y-67969890D01*
X130109890Y-68120213D01*
X129984949Y-68292182D01*
X129980484Y-68300946D01*
X129932509Y-68351742D01*
X129864688Y-68368536D01*
X129798553Y-68345998D01*
X129759516Y-68300946D01*
X129755050Y-68292182D01*
X129630109Y-68120213D01*
X129479786Y-67969890D01*
X129307820Y-67844951D01*
X129299600Y-67840763D01*
X129299054Y-67840485D01*
X129248259Y-67792512D01*
X129231463Y-67724692D01*
X129253999Y-67658556D01*
X129299054Y-67619515D01*
X129307816Y-67615051D01*
X129436458Y-67521588D01*
X129479786Y-67490109D01*
X129479788Y-67490106D01*
X129479792Y-67490104D01*
X129630104Y-67339792D01*
X129630106Y-67339788D01*
X129630109Y-67339786D01*
X129715890Y-67221717D01*
X129755051Y-67167816D01*
X129759793Y-67158508D01*
X129807763Y-67107711D01*
X129875583Y-67090911D01*
X129941719Y-67113445D01*
X129980763Y-67158500D01*
X129985373Y-67167547D01*
X130024728Y-67221716D01*
X130657037Y-66589408D01*
X130674075Y-66652993D01*
G37*
%TD.AperFunction*%
%TA.AperFunction,Conductor*%
G36*
X132255270Y-67221717D02*
G01*
X132255270Y-67221716D01*
X132294622Y-67167555D01*
X132299232Y-67158507D01*
X132347205Y-67107709D01*
X132415025Y-67090912D01*
X132481161Y-67113447D01*
X132520204Y-67158504D01*
X132524949Y-67167817D01*
X132649890Y-67339786D01*
X132800213Y-67490109D01*
X132972182Y-67615050D01*
X132980946Y-67619516D01*
X133031742Y-67667491D01*
X133048536Y-67735312D01*
X133025998Y-67801447D01*
X132980946Y-67840484D01*
X132972182Y-67844949D01*
X132800213Y-67969890D01*
X132649890Y-68120213D01*
X132524949Y-68292182D01*
X132520484Y-68300946D01*
X132472509Y-68351742D01*
X132404688Y-68368536D01*
X132338553Y-68345998D01*
X132299516Y-68300946D01*
X132295050Y-68292182D01*
X132170109Y-68120213D01*
X132019786Y-67969890D01*
X131847817Y-67844949D01*
X131838504Y-67840204D01*
X131787707Y-67792230D01*
X131770912Y-67724409D01*
X131793449Y-67658274D01*
X131838507Y-67619232D01*
X131847555Y-67614622D01*
X131901716Y-67575270D01*
X131901717Y-67575270D01*
X131269408Y-66942962D01*
X131332993Y-66925925D01*
X131447007Y-66860099D01*
X131540099Y-66767007D01*
X131605925Y-66652993D01*
X131622962Y-66589409D01*
X132255270Y-67221717D01*
G37*
%TD.AperFunction*%
%TA.AperFunction,Conductor*%
G36*
X138294075Y-66652993D02*
G01*
X138359901Y-66767007D01*
X138452993Y-66860099D01*
X138567007Y-66925925D01*
X138630590Y-66942962D01*
X137998282Y-67575269D01*
X137998282Y-67575270D01*
X138052452Y-67614626D01*
X138052451Y-67614626D01*
X138061495Y-67619234D01*
X138112292Y-67667208D01*
X138129087Y-67735029D01*
X138106550Y-67801164D01*
X138061499Y-67840202D01*
X138052182Y-67844949D01*
X137880213Y-67969890D01*
X137729890Y-68120213D01*
X137604949Y-68292182D01*
X137600484Y-68300946D01*
X137552509Y-68351742D01*
X137484688Y-68368536D01*
X137418553Y-68345998D01*
X137379516Y-68300946D01*
X137375050Y-68292182D01*
X137250109Y-68120213D01*
X137099786Y-67969890D01*
X136927820Y-67844951D01*
X136919600Y-67840763D01*
X136919054Y-67840485D01*
X136868259Y-67792512D01*
X136851463Y-67724692D01*
X136873999Y-67658556D01*
X136919054Y-67619515D01*
X136927816Y-67615051D01*
X137056458Y-67521588D01*
X137099786Y-67490109D01*
X137099788Y-67490106D01*
X137099792Y-67490104D01*
X137250104Y-67339792D01*
X137250106Y-67339788D01*
X137250109Y-67339786D01*
X137335890Y-67221717D01*
X137375051Y-67167816D01*
X137379793Y-67158508D01*
X137427763Y-67107711D01*
X137495583Y-67090911D01*
X137561719Y-67113445D01*
X137600763Y-67158500D01*
X137605373Y-67167547D01*
X137644728Y-67221716D01*
X138277037Y-66589408D01*
X138294075Y-66652993D01*
G37*
%TD.AperFunction*%
%TA.AperFunction,Conductor*%
G36*
X139875270Y-67221717D02*
G01*
X139875270Y-67221716D01*
X139914622Y-67167555D01*
X139919232Y-67158507D01*
X139967205Y-67107709D01*
X140035025Y-67090912D01*
X140101161Y-67113447D01*
X140140204Y-67158504D01*
X140144949Y-67167817D01*
X140269890Y-67339786D01*
X140420213Y-67490109D01*
X140592182Y-67615050D01*
X140600946Y-67619516D01*
X140651742Y-67667491D01*
X140668536Y-67735312D01*
X140645998Y-67801447D01*
X140600946Y-67840484D01*
X140592182Y-67844949D01*
X140420213Y-67969890D01*
X140269890Y-68120213D01*
X140144949Y-68292182D01*
X140140484Y-68300946D01*
X140092509Y-68351742D01*
X140024688Y-68368536D01*
X139958553Y-68345998D01*
X139919516Y-68300946D01*
X139915050Y-68292182D01*
X139790109Y-68120213D01*
X139639786Y-67969890D01*
X139467817Y-67844949D01*
X139458504Y-67840204D01*
X139407707Y-67792230D01*
X139390912Y-67724409D01*
X139413449Y-67658274D01*
X139458507Y-67619232D01*
X139467555Y-67614622D01*
X139521716Y-67575270D01*
X139521717Y-67575270D01*
X138889408Y-66942962D01*
X138952993Y-66925925D01*
X139067007Y-66860099D01*
X139160099Y-66767007D01*
X139225925Y-66652993D01*
X139242962Y-66589408D01*
X139875270Y-67221717D01*
G37*
%TD.AperFunction*%
%TA.AperFunction,Conductor*%
G36*
X148454075Y-66652993D02*
G01*
X148519901Y-66767007D01*
X148612993Y-66860099D01*
X148727007Y-66925925D01*
X148790590Y-66942962D01*
X148158282Y-67575269D01*
X148158282Y-67575270D01*
X148212452Y-67614626D01*
X148212451Y-67614626D01*
X148221495Y-67619234D01*
X148272292Y-67667208D01*
X148289087Y-67735029D01*
X148266550Y-67801164D01*
X148221499Y-67840202D01*
X148212182Y-67844949D01*
X148040213Y-67969890D01*
X147889890Y-68120213D01*
X147764949Y-68292182D01*
X147760484Y-68300946D01*
X147712509Y-68351742D01*
X147644688Y-68368536D01*
X147578553Y-68345998D01*
X147539516Y-68300946D01*
X147535050Y-68292182D01*
X147410109Y-68120213D01*
X147259786Y-67969890D01*
X147087820Y-67844951D01*
X147079600Y-67840763D01*
X147079054Y-67840485D01*
X147028259Y-67792512D01*
X147011463Y-67724692D01*
X147033999Y-67658556D01*
X147079054Y-67619515D01*
X147087816Y-67615051D01*
X147216458Y-67521588D01*
X147259786Y-67490109D01*
X147259788Y-67490106D01*
X147259792Y-67490104D01*
X147410104Y-67339792D01*
X147410106Y-67339788D01*
X147410109Y-67339786D01*
X147495890Y-67221717D01*
X147535051Y-67167816D01*
X147539793Y-67158508D01*
X147587763Y-67107711D01*
X147655583Y-67090911D01*
X147721719Y-67113445D01*
X147760763Y-67158500D01*
X147765373Y-67167547D01*
X147804728Y-67221716D01*
X148437037Y-66589408D01*
X148454075Y-66652993D01*
G37*
%TD.AperFunction*%
%TA.AperFunction,Conductor*%
G36*
X150035270Y-67221717D02*
G01*
X150035270Y-67221716D01*
X150074622Y-67167555D01*
X150079232Y-67158507D01*
X150127205Y-67107709D01*
X150195025Y-67090912D01*
X150261161Y-67113447D01*
X150300204Y-67158504D01*
X150304949Y-67167817D01*
X150429890Y-67339786D01*
X150580213Y-67490109D01*
X150752182Y-67615050D01*
X150760946Y-67619516D01*
X150811742Y-67667491D01*
X150828536Y-67735312D01*
X150805998Y-67801447D01*
X150760946Y-67840484D01*
X150752182Y-67844949D01*
X150580213Y-67969890D01*
X150429890Y-68120213D01*
X150304949Y-68292182D01*
X150300484Y-68300946D01*
X150252509Y-68351742D01*
X150184688Y-68368536D01*
X150118553Y-68345998D01*
X150079516Y-68300946D01*
X150075050Y-68292182D01*
X149950109Y-68120213D01*
X149799786Y-67969890D01*
X149627817Y-67844949D01*
X149618504Y-67840204D01*
X149567707Y-67792230D01*
X149550912Y-67724409D01*
X149573449Y-67658274D01*
X149618507Y-67619232D01*
X149627555Y-67614622D01*
X149681716Y-67575270D01*
X149681717Y-67575270D01*
X149049408Y-66942962D01*
X149112993Y-66925925D01*
X149227007Y-66860099D01*
X149320099Y-66767007D01*
X149385925Y-66652993D01*
X149402962Y-66589408D01*
X150035270Y-67221717D01*
G37*
%TD.AperFunction*%
%TD*%
M02*
