M48
; DRILL file {KiCad 9.0.6} date 2025-12-07T15:06:45-0500
; FORMAT={-:-/ absolute / metric / decimal}
; #@! TF.CreationDate,2025-12-07T15:06:45-05:00
; #@! TF.GenerationSoftware,Kicad,Pcbnew,9.0.6
; #@! TF.FileFunction,Plated,1,2,PTH
FMAT,2
METRIC
; #@! TA.AperFunction,Plated,PTH,ViaDrill
T1C0.300
; #@! TA.AperFunction,Plated,PTH,ComponentDrill
T2C0.900
; #@! TA.AperFunction,Plated,PTH,ComponentDrill
T3C0.950
; #@! TA.AperFunction,Plated,PTH,ComponentDrill
T4C1.000
%
G90
G05
T1
X94.5Y-82.0
X95.0Y-89.5
X96.5Y-85.5
X98.0Y-120.5
X102.5Y-81.0
X103.5Y-120.5
X104.0Y-90.0
X105.122Y-116.0
X110.0Y-99.5
X110.5Y-108.0
X113.0Y-91.5
X116.5Y-115.0
X121.0Y-105.5
T2
X139.71Y-87.5
X142.25Y-87.5
X159.71Y-87.5
X162.25Y-87.5
T3
X141.0Y-115.5
X141.5Y-125.0
X143.5Y-115.5
X144.0Y-125.0
X146.0Y-115.5
X146.5Y-125.0
X156.5Y-115.5
X156.5Y-125.0
X159.0Y-115.5
X159.0Y-125.0
X161.5Y-115.5
X161.5Y-125.0
T4
X81.199Y-101.27
X81.199Y-106.446
X83.787Y-96.787
X83.787Y-110.929
X88.27Y-94.199
X88.27Y-113.517
X90.858Y-98.858
X90.858Y-108.858
X93.446Y-94.199
X93.446Y-113.517
X97.929Y-96.787
X97.929Y-110.929
X100.517Y-101.27
X100.517Y-106.446
X105.74Y-66.46
X105.74Y-69.0
X108.28Y-66.46
X108.28Y-69.0
X110.82Y-66.46
X110.82Y-69.0
X113.36Y-66.46
X113.36Y-69.0
X115.9Y-66.46
X115.9Y-69.0
X118.44Y-66.46
X118.44Y-69.0
X120.98Y-66.46
X120.98Y-69.0
X123.52Y-66.46
X123.52Y-69.0
X126.06Y-66.46
X126.06Y-69.0
X128.6Y-66.46
X128.6Y-69.0
X131.14Y-66.46
X131.14Y-69.0
X133.68Y-66.46
X133.68Y-69.0
X136.22Y-66.46
X136.22Y-69.0
X136.26Y-60.5
X138.76Y-66.46
X138.76Y-69.0
X138.8Y-60.5
X141.3Y-66.46
X141.3Y-69.0
X141.34Y-60.5
X143.84Y-66.46
X143.84Y-69.0
X143.88Y-60.5
X146.38Y-66.46
X146.38Y-69.0
X146.42Y-60.5
X148.92Y-66.46
X148.92Y-69.0
X148.96Y-60.5
X151.46Y-66.46
X151.46Y-69.0
X151.5Y-60.5
X154.0Y-66.46
X154.0Y-69.0
X154.04Y-60.5
X171.0Y-71.0
X171.0Y-73.5
T4
G00X141.5Y-99.6
M15
G01X140.5Y-99.6
M16
G05
G00X141.5Y-104.0
M15
G01X140.5Y-104.0
M16
G05
G00X141.5Y-108.4
M15
G01X140.5Y-108.4
M16
G05
G00X161.5Y-99.6
M15
G01X160.5Y-99.6
M16
G05
G00X161.5Y-104.0
M15
G01X160.5Y-104.0
M16
G05
G00X161.5Y-108.4
M15
G01X160.5Y-108.4
M16
G05
M30
