%TF.GenerationSoftware,KiCad,Pcbnew,9.0.6*%
%TF.CreationDate,2025-12-07T15:07:03-05:00*%
%TF.ProjectId,IO_board,494f5f62-6f61-4726-942e-6b696361645f,rev?*%
%TF.SameCoordinates,Original*%
%TF.FileFunction,Soldermask,Top*%
%TF.FilePolarity,Negative*%
%FSLAX46Y46*%
G04 Gerber Fmt 4.6, Leading zero omitted, Abs format (unit mm)*
G04 Created by KiCad (PCBNEW 9.0.6) date 2025-12-07 15:07:03*
%MOMM*%
%LPD*%
G01*
G04 APERTURE LIST*
G04 Aperture macros list*
%AMRoundRect*
0 Rectangle with rounded corners*
0 $1 Rounding radius*
0 $2 $3 $4 $5 $6 $7 $8 $9 X,Y pos of 4 corners*
0 Add a 4 corners polygon primitive as box body*
4,1,4,$2,$3,$4,$5,$6,$7,$8,$9,$2,$3,0*
0 Add four circle primitives for the rounded corners*
1,1,$1+$1,$2,$3*
1,1,$1+$1,$4,$5*
1,1,$1+$1,$6,$7*
1,1,$1+$1,$8,$9*
0 Add four rect primitives between the rounded corners*
20,1,$1+$1,$2,$3,$4,$5,0*
20,1,$1+$1,$4,$5,$6,$7,0*
20,1,$1+$1,$6,$7,$8,$9,0*
20,1,$1+$1,$8,$9,$2,$3,0*%
G04 Aperture macros list end*
%ADD10C,1.700000*%
%ADD11R,1.700000X1.700000*%
%ADD12R,2.260600X2.209800*%
%ADD13RoundRect,0.250000X-0.600000X-0.725000X0.600000X-0.725000X0.600000X0.725000X-0.600000X0.725000X0*%
%ADD14O,1.700000X1.950000*%
%ADD15RoundRect,0.150000X-0.150000X0.587500X-0.150000X-0.587500X0.150000X-0.587500X0.150000X0.587500X0*%
%ADD16RoundRect,0.250000X-0.350000X-0.450000X0.350000X-0.450000X0.350000X0.450000X-0.350000X0.450000X0*%
%ADD17RoundRect,0.300000X1.200000X0.700000X-1.200000X0.700000X-1.200000X-0.700000X1.200000X-0.700000X0*%
%ADD18C,1.800000*%
%ADD19R,1.800000X1.800000*%
%ADD20RoundRect,0.150000X0.587500X0.150000X-0.587500X0.150000X-0.587500X-0.150000X0.587500X-0.150000X0*%
%ADD21RoundRect,0.250000X0.450000X-0.350000X0.450000X0.350000X-0.450000X0.350000X-0.450000X-0.350000X0*%
%ADD22RoundRect,0.250000X0.350000X0.450000X-0.350000X0.450000X-0.350000X-0.450000X0.350000X-0.450000X0*%
%ADD23RoundRect,0.250000X0.300000X-0.300000X0.300000X0.300000X-0.300000X0.300000X-0.300000X-0.300000X0*%
%ADD24RoundRect,0.250000X0.300000X0.300000X-0.300000X0.300000X-0.300000X-0.300000X0.300000X-0.300000X0*%
%ADD25C,2.000000*%
%ADD26RoundRect,0.250000X0.750000X-0.600000X0.750000X0.600000X-0.750000X0.600000X-0.750000X-0.600000X0*%
%ADD27O,2.000000X1.700000*%
G04 APERTURE END LIST*
D10*
%TO.C,J2*%
X105740000Y-66460000D03*
X105740000Y-69000000D03*
X108280000Y-66460000D03*
X108280000Y-69000000D03*
X110820000Y-66460000D03*
X110820000Y-69000000D03*
X113360000Y-66460000D03*
X113360000Y-69000000D03*
X115900000Y-66460000D03*
X115900000Y-69000000D03*
X118440000Y-66460000D03*
X118440000Y-69000000D03*
X120980000Y-66460000D03*
X120980000Y-69000000D03*
X123520000Y-66460000D03*
X123520000Y-69000000D03*
X126060000Y-66460000D03*
X126060000Y-69000000D03*
X128600000Y-66460000D03*
X128600000Y-69000000D03*
X131140000Y-66460000D03*
X131140000Y-69000000D03*
X133680000Y-66460000D03*
X133680000Y-69000000D03*
X136220000Y-66460000D03*
X136220000Y-69000000D03*
X138760000Y-66460000D03*
X138760000Y-69000000D03*
X141300000Y-66460000D03*
X141300000Y-69000000D03*
X143840000Y-66460000D03*
X143840000Y-69000000D03*
X146380000Y-66460000D03*
X146380000Y-69000000D03*
X148920000Y-66460000D03*
X148920000Y-69000000D03*
X151460000Y-66460000D03*
X151460000Y-69000000D03*
X154000000Y-66460000D03*
D11*
X154000000Y-69000000D03*
%TD*%
D12*
%TO.C,CR1*%
X164000000Y-70910600D03*
X164000000Y-75000000D03*
%TD*%
D11*
%TO.C,J7*%
X154040000Y-60500000D03*
D10*
X151500000Y-60500000D03*
X148960000Y-60500000D03*
X146420000Y-60500000D03*
X143880000Y-60500000D03*
X141340000Y-60500000D03*
X138800000Y-60500000D03*
X136260000Y-60500000D03*
%TD*%
D13*
%TO.C,J5*%
X141500000Y-125000000D03*
D14*
X144000000Y-125000000D03*
X146500000Y-125000000D03*
%TD*%
%TO.C,J3*%
X146000000Y-115500000D03*
X143500000Y-115500000D03*
D13*
X141000000Y-115500000D03*
%TD*%
%TO.C,J4*%
X156500000Y-115500000D03*
D14*
X159000000Y-115500000D03*
X161500000Y-115500000D03*
%TD*%
D13*
%TO.C,J6*%
X156500000Y-125000000D03*
D14*
X159000000Y-125000000D03*
X161500000Y-125000000D03*
%TD*%
D15*
%TO.C,Q4*%
X103950000Y-83125000D03*
X102050000Y-83125000D03*
X103000000Y-85000000D03*
%TD*%
D16*
%TO.C,R10*%
X117500000Y-110500000D03*
X115500000Y-110500000D03*
%TD*%
D17*
%TO.C,SW2*%
X141000000Y-99600000D03*
X141000000Y-104000000D03*
X141000000Y-108400000D03*
%TD*%
D18*
%TO.C,D1*%
X162250000Y-87500000D03*
D19*
X159710000Y-87500000D03*
%TD*%
%TO.C,D2*%
X139710000Y-87500000D03*
D18*
X142250000Y-87500000D03*
%TD*%
D17*
%TO.C,SW1*%
X161000000Y-108400000D03*
X161000000Y-104000000D03*
X161000000Y-99600000D03*
%TD*%
D16*
%TO.C,R14*%
X120500000Y-110500000D03*
X122500000Y-110500000D03*
%TD*%
D20*
%TO.C,Q2*%
X118875000Y-107450000D03*
X118875000Y-105550000D03*
X117000000Y-106500000D03*
%TD*%
D16*
%TO.C,R6*%
X111500000Y-99500000D03*
X113500000Y-99500000D03*
%TD*%
%TO.C,R4*%
X106500000Y-116000000D03*
X108500000Y-116000000D03*
%TD*%
D21*
%TO.C,R12*%
X108000000Y-87500000D03*
X108000000Y-85500000D03*
%TD*%
D16*
%TO.C,R9*%
X107500000Y-120500000D03*
X109500000Y-120500000D03*
%TD*%
D15*
%TO.C,Q3*%
X114500000Y-94000000D03*
X112600000Y-94000000D03*
X113550000Y-95875000D03*
%TD*%
D16*
%TO.C,R13*%
X112500000Y-120500000D03*
X114500000Y-120500000D03*
%TD*%
D22*
%TO.C,R8*%
X96500000Y-83500000D03*
X94500000Y-83500000D03*
%TD*%
D16*
%TO.C,R5*%
X111500000Y-106500000D03*
X113500000Y-106500000D03*
%TD*%
D23*
%TO.C,D11*%
X77500000Y-111000000D03*
X77500000Y-108200000D03*
%TD*%
%TO.C,D12*%
X77500000Y-102700000D03*
X77500000Y-105500000D03*
%TD*%
%TO.C,D10*%
X77500000Y-116000000D03*
X77500000Y-113200000D03*
%TD*%
D21*
%TO.C,R16*%
X108000000Y-82500000D03*
X108000000Y-80500000D03*
%TD*%
D20*
%TO.C,Q1*%
X113875000Y-116950000D03*
X113875000Y-115050000D03*
X112000000Y-116000000D03*
%TD*%
D22*
%TO.C,R7*%
X104000000Y-88500000D03*
X102000000Y-88500000D03*
%TD*%
D21*
%TO.C,R15*%
X118050000Y-93000000D03*
X118050000Y-91000000D03*
%TD*%
%TO.C,R11*%
X118050000Y-97937500D03*
X118050000Y-95937500D03*
%TD*%
D24*
%TO.C,D9*%
X81500000Y-119500000D03*
X78700000Y-119500000D03*
%TD*%
D16*
%TO.C,R3*%
X100000000Y-120500000D03*
X102000000Y-120500000D03*
%TD*%
D25*
%TO.C,SW3*%
X81198606Y-101269674D03*
X83786864Y-96786864D03*
X88269674Y-94198606D03*
X93446054Y-94198606D03*
X97928864Y-96786864D03*
X100517122Y-101269674D03*
X100517122Y-106446054D03*
X97928864Y-110928864D03*
X93446054Y-113517122D03*
X88269674Y-113517122D03*
X83786864Y-110928864D03*
X81198606Y-106446054D03*
X90857864Y-98857864D03*
X90857864Y-108857864D03*
%TD*%
D26*
%TO.C,J1*%
X171000000Y-73500000D03*
D27*
X171000000Y-71000000D03*
%TD*%
M02*
