%TF.GenerationSoftware,KiCad,Pcbnew,9.0.6*%
%TF.CreationDate,2025-12-07T15:07:03-05:00*%
%TF.ProjectId,IO_board,494f5f62-6f61-4726-942e-6b696361645f,rev?*%
%TF.SameCoordinates,Original*%
%TF.FileFunction,Legend,Bot*%
%TF.FilePolarity,Positive*%
%FSLAX46Y46*%
G04 Gerber Fmt 4.6, Leading zero omitted, Abs format (unit mm)*
G04 Created by KiCad (PCBNEW 9.0.6) date 2025-12-07 15:07:03*
%MOMM*%
%LPD*%
G01*
G04 APERTURE LIST*
%ADD10C,0.100000*%
%ADD11C,0.150000*%
%ADD12C,0.120000*%
G04 APERTURE END LIST*
D10*
X142333332Y-96909800D02*
X142190475Y-96957419D01*
X142190475Y-96957419D02*
X141952380Y-96957419D01*
X141952380Y-96957419D02*
X141857142Y-96909800D01*
X141857142Y-96909800D02*
X141809523Y-96862180D01*
X141809523Y-96862180D02*
X141761904Y-96766942D01*
X141761904Y-96766942D02*
X141761904Y-96671704D01*
X141761904Y-96671704D02*
X141809523Y-96576466D01*
X141809523Y-96576466D02*
X141857142Y-96528847D01*
X141857142Y-96528847D02*
X141952380Y-96481228D01*
X141952380Y-96481228D02*
X142142856Y-96433609D01*
X142142856Y-96433609D02*
X142238094Y-96385990D01*
X142238094Y-96385990D02*
X142285713Y-96338371D01*
X142285713Y-96338371D02*
X142333332Y-96243133D01*
X142333332Y-96243133D02*
X142333332Y-96147895D01*
X142333332Y-96147895D02*
X142285713Y-96052657D01*
X142285713Y-96052657D02*
X142238094Y-96005038D01*
X142238094Y-96005038D02*
X142142856Y-95957419D01*
X142142856Y-95957419D02*
X141904761Y-95957419D01*
X141904761Y-95957419D02*
X141761904Y-96005038D01*
X141428570Y-95957419D02*
X141190475Y-96957419D01*
X141190475Y-96957419D02*
X140999999Y-96243133D01*
X140999999Y-96243133D02*
X140809523Y-96957419D01*
X140809523Y-96957419D02*
X140571428Y-95957419D01*
X140238094Y-96052657D02*
X140190475Y-96005038D01*
X140190475Y-96005038D02*
X140095237Y-95957419D01*
X140095237Y-95957419D02*
X139857142Y-95957419D01*
X139857142Y-95957419D02*
X139761904Y-96005038D01*
X139761904Y-96005038D02*
X139714285Y-96052657D01*
X139714285Y-96052657D02*
X139666666Y-96147895D01*
X139666666Y-96147895D02*
X139666666Y-96243133D01*
X139666666Y-96243133D02*
X139714285Y-96385990D01*
X139714285Y-96385990D02*
X140285713Y-96957419D01*
X140285713Y-96957419D02*
X139666666Y-96957419D01*
D11*
X161718094Y-91914819D02*
X161718094Y-90914819D01*
X161718094Y-90914819D02*
X161479999Y-90914819D01*
X161479999Y-90914819D02*
X161337142Y-90962438D01*
X161337142Y-90962438D02*
X161241904Y-91057676D01*
X161241904Y-91057676D02*
X161194285Y-91152914D01*
X161194285Y-91152914D02*
X161146666Y-91343390D01*
X161146666Y-91343390D02*
X161146666Y-91486247D01*
X161146666Y-91486247D02*
X161194285Y-91676723D01*
X161194285Y-91676723D02*
X161241904Y-91771961D01*
X161241904Y-91771961D02*
X161337142Y-91867200D01*
X161337142Y-91867200D02*
X161479999Y-91914819D01*
X161479999Y-91914819D02*
X161718094Y-91914819D01*
X160194285Y-91914819D02*
X160765713Y-91914819D01*
X160479999Y-91914819D02*
X160479999Y-90914819D01*
X160479999Y-90914819D02*
X160575237Y-91057676D01*
X160575237Y-91057676D02*
X160670475Y-91152914D01*
X160670475Y-91152914D02*
X160765713Y-91200533D01*
X141718094Y-91914819D02*
X141718094Y-90914819D01*
X141718094Y-90914819D02*
X141479999Y-90914819D01*
X141479999Y-90914819D02*
X141337142Y-90962438D01*
X141337142Y-90962438D02*
X141241904Y-91057676D01*
X141241904Y-91057676D02*
X141194285Y-91152914D01*
X141194285Y-91152914D02*
X141146666Y-91343390D01*
X141146666Y-91343390D02*
X141146666Y-91486247D01*
X141146666Y-91486247D02*
X141194285Y-91676723D01*
X141194285Y-91676723D02*
X141241904Y-91771961D01*
X141241904Y-91771961D02*
X141337142Y-91867200D01*
X141337142Y-91867200D02*
X141479999Y-91914819D01*
X141479999Y-91914819D02*
X141718094Y-91914819D01*
X140765713Y-91010057D02*
X140718094Y-90962438D01*
X140718094Y-90962438D02*
X140622856Y-90914819D01*
X140622856Y-90914819D02*
X140384761Y-90914819D01*
X140384761Y-90914819D02*
X140289523Y-90962438D01*
X140289523Y-90962438D02*
X140241904Y-91010057D01*
X140241904Y-91010057D02*
X140194285Y-91105295D01*
X140194285Y-91105295D02*
X140194285Y-91200533D01*
X140194285Y-91200533D02*
X140241904Y-91343390D01*
X140241904Y-91343390D02*
X140813332Y-91914819D01*
X140813332Y-91914819D02*
X140194285Y-91914819D01*
D10*
X162333332Y-96909800D02*
X162190475Y-96957419D01*
X162190475Y-96957419D02*
X161952380Y-96957419D01*
X161952380Y-96957419D02*
X161857142Y-96909800D01*
X161857142Y-96909800D02*
X161809523Y-96862180D01*
X161809523Y-96862180D02*
X161761904Y-96766942D01*
X161761904Y-96766942D02*
X161761904Y-96671704D01*
X161761904Y-96671704D02*
X161809523Y-96576466D01*
X161809523Y-96576466D02*
X161857142Y-96528847D01*
X161857142Y-96528847D02*
X161952380Y-96481228D01*
X161952380Y-96481228D02*
X162142856Y-96433609D01*
X162142856Y-96433609D02*
X162238094Y-96385990D01*
X162238094Y-96385990D02*
X162285713Y-96338371D01*
X162285713Y-96338371D02*
X162333332Y-96243133D01*
X162333332Y-96243133D02*
X162333332Y-96147895D01*
X162333332Y-96147895D02*
X162285713Y-96052657D01*
X162285713Y-96052657D02*
X162238094Y-96005038D01*
X162238094Y-96005038D02*
X162142856Y-95957419D01*
X162142856Y-95957419D02*
X161904761Y-95957419D01*
X161904761Y-95957419D02*
X161761904Y-96005038D01*
X161428570Y-95957419D02*
X161190475Y-96957419D01*
X161190475Y-96957419D02*
X160999999Y-96243133D01*
X160999999Y-96243133D02*
X160809523Y-96957419D01*
X160809523Y-96957419D02*
X160571428Y-95957419D01*
X159666666Y-96957419D02*
X160238094Y-96957419D01*
X159952380Y-96957419D02*
X159952380Y-95957419D01*
X159952380Y-95957419D02*
X160047618Y-96100276D01*
X160047618Y-96100276D02*
X160142856Y-96195514D01*
X160142856Y-96195514D02*
X160238094Y-96243133D01*
D11*
X141166666Y-83604819D02*
X141499999Y-83128628D01*
X141738094Y-83604819D02*
X141738094Y-82604819D01*
X141738094Y-82604819D02*
X141357142Y-82604819D01*
X141357142Y-82604819D02*
X141261904Y-82652438D01*
X141261904Y-82652438D02*
X141214285Y-82700057D01*
X141214285Y-82700057D02*
X141166666Y-82795295D01*
X141166666Y-82795295D02*
X141166666Y-82938152D01*
X141166666Y-82938152D02*
X141214285Y-83033390D01*
X141214285Y-83033390D02*
X141261904Y-83081009D01*
X141261904Y-83081009D02*
X141357142Y-83128628D01*
X141357142Y-83128628D02*
X141738094Y-83128628D01*
X140785713Y-82700057D02*
X140738094Y-82652438D01*
X140738094Y-82652438D02*
X140642856Y-82604819D01*
X140642856Y-82604819D02*
X140404761Y-82604819D01*
X140404761Y-82604819D02*
X140309523Y-82652438D01*
X140309523Y-82652438D02*
X140261904Y-82700057D01*
X140261904Y-82700057D02*
X140214285Y-82795295D01*
X140214285Y-82795295D02*
X140214285Y-82890533D01*
X140214285Y-82890533D02*
X140261904Y-83033390D01*
X140261904Y-83033390D02*
X140833332Y-83604819D01*
X140833332Y-83604819D02*
X140214285Y-83604819D01*
X156166666Y-83604819D02*
X156499999Y-83128628D01*
X156738094Y-83604819D02*
X156738094Y-82604819D01*
X156738094Y-82604819D02*
X156357142Y-82604819D01*
X156357142Y-82604819D02*
X156261904Y-82652438D01*
X156261904Y-82652438D02*
X156214285Y-82700057D01*
X156214285Y-82700057D02*
X156166666Y-82795295D01*
X156166666Y-82795295D02*
X156166666Y-82938152D01*
X156166666Y-82938152D02*
X156214285Y-83033390D01*
X156214285Y-83033390D02*
X156261904Y-83081009D01*
X156261904Y-83081009D02*
X156357142Y-83128628D01*
X156357142Y-83128628D02*
X156738094Y-83128628D01*
X155214285Y-83604819D02*
X155785713Y-83604819D01*
X155499999Y-83604819D02*
X155499999Y-82604819D01*
X155499999Y-82604819D02*
X155595237Y-82747676D01*
X155595237Y-82747676D02*
X155690475Y-82842914D01*
X155690475Y-82842914D02*
X155785713Y-82890533D01*
X103738094Y-90454819D02*
X103738094Y-89454819D01*
X103738094Y-89454819D02*
X103499999Y-89454819D01*
X103499999Y-89454819D02*
X103357142Y-89502438D01*
X103357142Y-89502438D02*
X103261904Y-89597676D01*
X103261904Y-89597676D02*
X103214285Y-89692914D01*
X103214285Y-89692914D02*
X103166666Y-89883390D01*
X103166666Y-89883390D02*
X103166666Y-90026247D01*
X103166666Y-90026247D02*
X103214285Y-90216723D01*
X103214285Y-90216723D02*
X103261904Y-90311961D01*
X103261904Y-90311961D02*
X103357142Y-90407200D01*
X103357142Y-90407200D02*
X103499999Y-90454819D01*
X103499999Y-90454819D02*
X103738094Y-90454819D01*
X102833332Y-89454819D02*
X102166666Y-89454819D01*
X102166666Y-89454819D02*
X102595237Y-90454819D01*
X96238094Y-85954819D02*
X96238094Y-84954819D01*
X96238094Y-84954819D02*
X95999999Y-84954819D01*
X95999999Y-84954819D02*
X95857142Y-85002438D01*
X95857142Y-85002438D02*
X95761904Y-85097676D01*
X95761904Y-85097676D02*
X95714285Y-85192914D01*
X95714285Y-85192914D02*
X95666666Y-85383390D01*
X95666666Y-85383390D02*
X95666666Y-85526247D01*
X95666666Y-85526247D02*
X95714285Y-85716723D01*
X95714285Y-85716723D02*
X95761904Y-85811961D01*
X95761904Y-85811961D02*
X95857142Y-85907200D01*
X95857142Y-85907200D02*
X95999999Y-85954819D01*
X95999999Y-85954819D02*
X96238094Y-85954819D01*
X95095237Y-85383390D02*
X95190475Y-85335771D01*
X95190475Y-85335771D02*
X95238094Y-85288152D01*
X95238094Y-85288152D02*
X95285713Y-85192914D01*
X95285713Y-85192914D02*
X95285713Y-85145295D01*
X95285713Y-85145295D02*
X95238094Y-85050057D01*
X95238094Y-85050057D02*
X95190475Y-85002438D01*
X95190475Y-85002438D02*
X95095237Y-84954819D01*
X95095237Y-84954819D02*
X94904761Y-84954819D01*
X94904761Y-84954819D02*
X94809523Y-85002438D01*
X94809523Y-85002438D02*
X94761904Y-85050057D01*
X94761904Y-85050057D02*
X94714285Y-85145295D01*
X94714285Y-85145295D02*
X94714285Y-85192914D01*
X94714285Y-85192914D02*
X94761904Y-85288152D01*
X94761904Y-85288152D02*
X94809523Y-85335771D01*
X94809523Y-85335771D02*
X94904761Y-85383390D01*
X94904761Y-85383390D02*
X95095237Y-85383390D01*
X95095237Y-85383390D02*
X95190475Y-85431009D01*
X95190475Y-85431009D02*
X95238094Y-85478628D01*
X95238094Y-85478628D02*
X95285713Y-85573866D01*
X95285713Y-85573866D02*
X95285713Y-85764342D01*
X95285713Y-85764342D02*
X95238094Y-85859580D01*
X95238094Y-85859580D02*
X95190475Y-85907200D01*
X95190475Y-85907200D02*
X95095237Y-85954819D01*
X95095237Y-85954819D02*
X94904761Y-85954819D01*
X94904761Y-85954819D02*
X94809523Y-85907200D01*
X94809523Y-85907200D02*
X94761904Y-85859580D01*
X94761904Y-85859580D02*
X94714285Y-85764342D01*
X94714285Y-85764342D02*
X94714285Y-85573866D01*
X94714285Y-85573866D02*
X94761904Y-85478628D01*
X94761904Y-85478628D02*
X94809523Y-85431009D01*
X94809523Y-85431009D02*
X94904761Y-85383390D01*
D10*
X91267664Y-102524531D02*
X91315283Y-102667388D01*
X91315283Y-102667388D02*
X91315283Y-102905483D01*
X91315283Y-102905483D02*
X91267664Y-103000721D01*
X91267664Y-103000721D02*
X91220044Y-103048340D01*
X91220044Y-103048340D02*
X91124806Y-103095959D01*
X91124806Y-103095959D02*
X91029568Y-103095959D01*
X91029568Y-103095959D02*
X90934330Y-103048340D01*
X90934330Y-103048340D02*
X90886711Y-103000721D01*
X90886711Y-103000721D02*
X90839092Y-102905483D01*
X90839092Y-102905483D02*
X90791473Y-102715007D01*
X90791473Y-102715007D02*
X90743854Y-102619769D01*
X90743854Y-102619769D02*
X90696235Y-102572150D01*
X90696235Y-102572150D02*
X90600997Y-102524531D01*
X90600997Y-102524531D02*
X90505759Y-102524531D01*
X90505759Y-102524531D02*
X90410521Y-102572150D01*
X90410521Y-102572150D02*
X90362902Y-102619769D01*
X90362902Y-102619769D02*
X90315283Y-102715007D01*
X90315283Y-102715007D02*
X90315283Y-102953102D01*
X90315283Y-102953102D02*
X90362902Y-103095959D01*
X90315283Y-103429293D02*
X91315283Y-103667388D01*
X91315283Y-103667388D02*
X90600997Y-103857864D01*
X90600997Y-103857864D02*
X91315283Y-104048340D01*
X91315283Y-104048340D02*
X90315283Y-104286436D01*
X90315283Y-104572150D02*
X90315283Y-105191197D01*
X90315283Y-105191197D02*
X90696235Y-104857864D01*
X90696235Y-104857864D02*
X90696235Y-105000721D01*
X90696235Y-105000721D02*
X90743854Y-105095959D01*
X90743854Y-105095959D02*
X90791473Y-105143578D01*
X90791473Y-105143578D02*
X90886711Y-105191197D01*
X90886711Y-105191197D02*
X91124806Y-105191197D01*
X91124806Y-105191197D02*
X91220044Y-105143578D01*
X91220044Y-105143578D02*
X91267664Y-105095959D01*
X91267664Y-105095959D02*
X91315283Y-105000721D01*
X91315283Y-105000721D02*
X91315283Y-104715007D01*
X91315283Y-104715007D02*
X91267664Y-104619769D01*
X91267664Y-104619769D02*
X91220044Y-104572150D01*
D11*
X96003458Y-119082683D02*
X96003458Y-118082683D01*
X96003458Y-118082683D02*
X95765363Y-118082683D01*
X95765363Y-118082683D02*
X95622506Y-118130302D01*
X95622506Y-118130302D02*
X95527268Y-118225540D01*
X95527268Y-118225540D02*
X95479649Y-118320778D01*
X95479649Y-118320778D02*
X95432030Y-118511254D01*
X95432030Y-118511254D02*
X95432030Y-118654111D01*
X95432030Y-118654111D02*
X95479649Y-118844587D01*
X95479649Y-118844587D02*
X95527268Y-118939825D01*
X95527268Y-118939825D02*
X95622506Y-119035064D01*
X95622506Y-119035064D02*
X95765363Y-119082683D01*
X95765363Y-119082683D02*
X96003458Y-119082683D01*
X95098696Y-118082683D02*
X94479649Y-118082683D01*
X94479649Y-118082683D02*
X94812982Y-118463635D01*
X94812982Y-118463635D02*
X94670125Y-118463635D01*
X94670125Y-118463635D02*
X94574887Y-118511254D01*
X94574887Y-118511254D02*
X94527268Y-118558873D01*
X94527268Y-118558873D02*
X94479649Y-118654111D01*
X94479649Y-118654111D02*
X94479649Y-118892206D01*
X94479649Y-118892206D02*
X94527268Y-118987444D01*
X94527268Y-118987444D02*
X94574887Y-119035064D01*
X94574887Y-119035064D02*
X94670125Y-119082683D01*
X94670125Y-119082683D02*
X94955839Y-119082683D01*
X94955839Y-119082683D02*
X95051077Y-119035064D01*
X95051077Y-119035064D02*
X95098696Y-118987444D01*
X103613458Y-114682683D02*
X103613458Y-113682683D01*
X103613458Y-113682683D02*
X103375363Y-113682683D01*
X103375363Y-113682683D02*
X103232506Y-113730302D01*
X103232506Y-113730302D02*
X103137268Y-113825540D01*
X103137268Y-113825540D02*
X103089649Y-113920778D01*
X103089649Y-113920778D02*
X103042030Y-114111254D01*
X103042030Y-114111254D02*
X103042030Y-114254111D01*
X103042030Y-114254111D02*
X103089649Y-114444587D01*
X103089649Y-114444587D02*
X103137268Y-114539825D01*
X103137268Y-114539825D02*
X103232506Y-114635064D01*
X103232506Y-114635064D02*
X103375363Y-114682683D01*
X103375363Y-114682683D02*
X103613458Y-114682683D01*
X102184887Y-114016016D02*
X102184887Y-114682683D01*
X102422982Y-113635064D02*
X102661077Y-114349349D01*
X102661077Y-114349349D02*
X102042030Y-114349349D01*
X108023458Y-107062683D02*
X108023458Y-106062683D01*
X108023458Y-106062683D02*
X107785363Y-106062683D01*
X107785363Y-106062683D02*
X107642506Y-106110302D01*
X107642506Y-106110302D02*
X107547268Y-106205540D01*
X107547268Y-106205540D02*
X107499649Y-106300778D01*
X107499649Y-106300778D02*
X107452030Y-106491254D01*
X107452030Y-106491254D02*
X107452030Y-106634111D01*
X107452030Y-106634111D02*
X107499649Y-106824587D01*
X107499649Y-106824587D02*
X107547268Y-106919825D01*
X107547268Y-106919825D02*
X107642506Y-107015064D01*
X107642506Y-107015064D02*
X107785363Y-107062683D01*
X107785363Y-107062683D02*
X108023458Y-107062683D01*
X106547268Y-106062683D02*
X107023458Y-106062683D01*
X107023458Y-106062683D02*
X107071077Y-106538873D01*
X107071077Y-106538873D02*
X107023458Y-106491254D01*
X107023458Y-106491254D02*
X106928220Y-106443635D01*
X106928220Y-106443635D02*
X106690125Y-106443635D01*
X106690125Y-106443635D02*
X106594887Y-106491254D01*
X106594887Y-106491254D02*
X106547268Y-106538873D01*
X106547268Y-106538873D02*
X106499649Y-106634111D01*
X106499649Y-106634111D02*
X106499649Y-106872206D01*
X106499649Y-106872206D02*
X106547268Y-106967444D01*
X106547268Y-106967444D02*
X106594887Y-107015064D01*
X106594887Y-107015064D02*
X106690125Y-107062683D01*
X106690125Y-107062683D02*
X106928220Y-107062683D01*
X106928220Y-107062683D02*
X107023458Y-107015064D01*
X107023458Y-107015064D02*
X107071077Y-106967444D01*
X107994197Y-98262759D02*
X107994197Y-97262759D01*
X107994197Y-97262759D02*
X107756102Y-97262759D01*
X107756102Y-97262759D02*
X107613245Y-97310378D01*
X107613245Y-97310378D02*
X107518007Y-97405616D01*
X107518007Y-97405616D02*
X107470388Y-97500854D01*
X107470388Y-97500854D02*
X107422769Y-97691330D01*
X107422769Y-97691330D02*
X107422769Y-97834187D01*
X107422769Y-97834187D02*
X107470388Y-98024663D01*
X107470388Y-98024663D02*
X107518007Y-98119901D01*
X107518007Y-98119901D02*
X107613245Y-98215140D01*
X107613245Y-98215140D02*
X107756102Y-98262759D01*
X107756102Y-98262759D02*
X107994197Y-98262759D01*
X106565626Y-97262759D02*
X106756102Y-97262759D01*
X106756102Y-97262759D02*
X106851340Y-97310378D01*
X106851340Y-97310378D02*
X106898959Y-97357997D01*
X106898959Y-97357997D02*
X106994197Y-97500854D01*
X106994197Y-97500854D02*
X107041816Y-97691330D01*
X107041816Y-97691330D02*
X107041816Y-98072282D01*
X107041816Y-98072282D02*
X106994197Y-98167520D01*
X106994197Y-98167520D02*
X106946578Y-98215140D01*
X106946578Y-98215140D02*
X106851340Y-98262759D01*
X106851340Y-98262759D02*
X106660864Y-98262759D01*
X106660864Y-98262759D02*
X106565626Y-98215140D01*
X106565626Y-98215140D02*
X106518007Y-98167520D01*
X106518007Y-98167520D02*
X106470388Y-98072282D01*
X106470388Y-98072282D02*
X106470388Y-97834187D01*
X106470388Y-97834187D02*
X106518007Y-97738949D01*
X106518007Y-97738949D02*
X106565626Y-97691330D01*
X106565626Y-97691330D02*
X106660864Y-97643711D01*
X106660864Y-97643711D02*
X106851340Y-97643711D01*
X106851340Y-97643711D02*
X106946578Y-97691330D01*
X106946578Y-97691330D02*
X106994197Y-97738949D01*
X106994197Y-97738949D02*
X107041816Y-97834187D01*
%TO.C,SW2*%
D10*
X145000000Y-97500000D02*
X137000000Y-97500000D01*
X137000000Y-110500000D01*
X145000000Y-110500000D01*
X145000000Y-97500000D01*
D12*
%TO.C,D1*%
X163480000Y-87500000D02*
G75*
G02*
X158480000Y-87500000I-2500000J0D01*
G01*
X158480000Y-87500000D02*
G75*
G02*
X163480000Y-87500000I2500000J0D01*
G01*
X158420000Y-85955170D02*
G75*
G02*
X163970000Y-87500000I2560000J-1544830D01*
G01*
X163970000Y-87500000D02*
G75*
G02*
X158420000Y-89044830I-2990000J0D01*
G01*
X158420000Y-89045000D02*
X158420000Y-85955000D01*
%TO.C,D2*%
X138420000Y-89045000D02*
X138420000Y-85955000D01*
X143970000Y-87500000D02*
G75*
G02*
X138420000Y-89044830I-2990000J0D01*
G01*
X138420000Y-85955170D02*
G75*
G02*
X143970000Y-87500000I2560000J-1544830D01*
G01*
X143480000Y-87500000D02*
G75*
G02*
X138480000Y-87500000I-2500000J0D01*
G01*
X138480000Y-87500000D02*
G75*
G02*
X143480000Y-87500000I2500000J0D01*
G01*
%TO.C,SW1*%
D10*
X165000000Y-97500000D02*
X157000000Y-97500000D01*
X157000000Y-110500000D01*
X165000000Y-110500000D01*
X165000000Y-97500000D01*
D12*
%TO.C,R2*%
X140772936Y-80765000D02*
X141227064Y-80765000D01*
X140772936Y-82235000D02*
X141227064Y-82235000D01*
%TO.C,R1*%
X160772936Y-82235000D02*
X161227064Y-82235000D01*
X160772936Y-80765000D02*
X161227064Y-80765000D01*
%TO.C,D7*%
X101875364Y-90877864D02*
X104735364Y-90877864D01*
X104735364Y-90877864D02*
X104735364Y-92797864D01*
X104735364Y-92797864D02*
X101875364Y-92797864D01*
%TO.C,D8*%
X97105364Y-88397864D02*
X94245364Y-88397864D01*
X97105364Y-86477864D02*
X97105364Y-88397864D01*
X94245364Y-86477864D02*
X97105364Y-86477864D01*
%TO.C,D3*%
X94265364Y-119317864D02*
X97125364Y-119317864D01*
X97125364Y-119317864D02*
X97125364Y-121237864D01*
X97125364Y-121237864D02*
X94265364Y-121237864D01*
%TO.C,D4*%
X101875364Y-114917864D02*
X104735364Y-114917864D01*
X104735364Y-114917864D02*
X104735364Y-116837864D01*
X104735364Y-116837864D02*
X101875364Y-116837864D01*
%TO.C,D5*%
X106285364Y-107297864D02*
X109145364Y-107297864D01*
X109145364Y-107297864D02*
X109145364Y-109217864D01*
X109145364Y-109217864D02*
X106285364Y-109217864D01*
%TO.C,D6*%
X106256103Y-98497940D02*
X109116103Y-98497940D01*
X109116103Y-98497940D02*
X109116103Y-100417940D01*
X109116103Y-100417940D02*
X106256103Y-100417940D01*
%TD*%
M02*
