%TF.GenerationSoftware,KiCad,Pcbnew,9.0.6*%
%TF.CreationDate,2025-12-07T15:07:03-05:00*%
%TF.ProjectId,IO_board,494f5f62-6f61-4726-942e-6b696361645f,rev?*%
%TF.SameCoordinates,Original*%
%TF.FileFunction,Copper,L1,Top*%
%TF.FilePolarity,Positive*%
%FSLAX46Y46*%
G04 Gerber Fmt 4.6, Leading zero omitted, Abs format (unit mm)*
G04 Created by KiCad (PCBNEW 9.0.6) date 2025-12-07 15:07:03*
%MOMM*%
%LPD*%
G01*
G04 APERTURE LIST*
G04 Aperture macros list*
%AMRoundRect*
0 Rectangle with rounded corners*
0 $1 Rounding radius*
0 $2 $3 $4 $5 $6 $7 $8 $9 X,Y pos of 4 corners*
0 Add a 4 corners polygon primitive as box body*
4,1,4,$2,$3,$4,$5,$6,$7,$8,$9,$2,$3,0*
0 Add four circle primitives for the rounded corners*
1,1,$1+$1,$2,$3*
1,1,$1+$1,$4,$5*
1,1,$1+$1,$6,$7*
1,1,$1+$1,$8,$9*
0 Add four rect primitives between the rounded corners*
20,1,$1+$1,$2,$3,$4,$5,0*
20,1,$1+$1,$4,$5,$6,$7,0*
20,1,$1+$1,$6,$7,$8,$9,0*
20,1,$1+$1,$8,$9,$2,$3,0*%
G04 Aperture macros list end*
%TA.AperFunction,ComponentPad*%
%ADD10C,1.700000*%
%TD*%
%TA.AperFunction,ComponentPad*%
%ADD11R,1.700000X1.700000*%
%TD*%
%TA.AperFunction,SMDPad,CuDef*%
%ADD12R,2.260600X2.209800*%
%TD*%
%TA.AperFunction,ComponentPad*%
%ADD13RoundRect,0.250000X-0.600000X-0.725000X0.600000X-0.725000X0.600000X0.725000X-0.600000X0.725000X0*%
%TD*%
%TA.AperFunction,ComponentPad*%
%ADD14O,1.700000X1.950000*%
%TD*%
%TA.AperFunction,SMDPad,CuDef*%
%ADD15RoundRect,0.150000X-0.150000X0.587500X-0.150000X-0.587500X0.150000X-0.587500X0.150000X0.587500X0*%
%TD*%
%TA.AperFunction,SMDPad,CuDef*%
%ADD16RoundRect,0.250000X-0.350000X-0.450000X0.350000X-0.450000X0.350000X0.450000X-0.350000X0.450000X0*%
%TD*%
%TA.AperFunction,ComponentPad*%
%ADD17RoundRect,0.300000X1.200000X0.700000X-1.200000X0.700000X-1.200000X-0.700000X1.200000X-0.700000X0*%
%TD*%
%TA.AperFunction,ComponentPad*%
%ADD18C,1.800000*%
%TD*%
%TA.AperFunction,ComponentPad*%
%ADD19R,1.800000X1.800000*%
%TD*%
%TA.AperFunction,SMDPad,CuDef*%
%ADD20RoundRect,0.150000X0.587500X0.150000X-0.587500X0.150000X-0.587500X-0.150000X0.587500X-0.150000X0*%
%TD*%
%TA.AperFunction,SMDPad,CuDef*%
%ADD21RoundRect,0.250000X0.450000X-0.350000X0.450000X0.350000X-0.450000X0.350000X-0.450000X-0.350000X0*%
%TD*%
%TA.AperFunction,SMDPad,CuDef*%
%ADD22RoundRect,0.250000X0.350000X0.450000X-0.350000X0.450000X-0.350000X-0.450000X0.350000X-0.450000X0*%
%TD*%
%TA.AperFunction,SMDPad,CuDef*%
%ADD23RoundRect,0.250000X0.300000X-0.300000X0.300000X0.300000X-0.300000X0.300000X-0.300000X-0.300000X0*%
%TD*%
%TA.AperFunction,SMDPad,CuDef*%
%ADD24RoundRect,0.250000X0.300000X0.300000X-0.300000X0.300000X-0.300000X-0.300000X0.300000X-0.300000X0*%
%TD*%
%TA.AperFunction,ComponentPad*%
%ADD25C,2.000000*%
%TD*%
%TA.AperFunction,ComponentPad*%
%ADD26RoundRect,0.250000X0.750000X-0.600000X0.750000X0.600000X-0.750000X0.600000X-0.750000X-0.600000X0*%
%TD*%
%TA.AperFunction,ComponentPad*%
%ADD27O,2.000000X1.700000*%
%TD*%
%TA.AperFunction,ViaPad*%
%ADD28C,0.600000*%
%TD*%
%TA.AperFunction,Conductor*%
%ADD29C,2.000000*%
%TD*%
%TA.AperFunction,Conductor*%
%ADD30C,0.200000*%
%TD*%
G04 APERTURE END LIST*
D10*
%TO.P,J2,40,Pin_40*%
%TO.N,Net-(J2-Pin_40)*%
X105740000Y-66460000D03*
%TO.P,J2,39,Pin_39*%
%TO.N,GND*%
X105740000Y-69000000D03*
%TO.P,J2,38,Pin_38*%
%TO.N,Net-(J2-Pin_38)*%
X108280000Y-66460000D03*
%TO.P,J2,37,Pin_37*%
%TO.N,Net-(J2-Pin_37)*%
X108280000Y-69000000D03*
%TO.P,J2,36,Pin_36*%
%TO.N,Net-(J2-Pin_36)*%
X110820000Y-66460000D03*
%TO.P,J2,35,Pin_35*%
%TO.N,Net-(J2-Pin_35)*%
X110820000Y-69000000D03*
%TO.P,J2,34,Pin_34*%
%TO.N,GND*%
X113360000Y-66460000D03*
%TO.P,J2,33,Pin_33*%
%TO.N,/switch_B*%
X113360000Y-69000000D03*
%TO.P,J2,32,Pin_32*%
%TO.N,Net-(J2-Pin_32)*%
X115900000Y-66460000D03*
%TO.P,J2,31,Pin_31*%
%TO.N,/LED6*%
X115900000Y-69000000D03*
%TO.P,J2,30,Pin_30*%
%TO.N,GND*%
X118440000Y-66460000D03*
%TO.P,J2,29,Pin_29*%
%TO.N,/LED1*%
X118440000Y-69000000D03*
%TO.P,J2,28,Pin_28*%
%TO.N,unconnected-(J2-Pin_28-Pad28)*%
X120980000Y-66460000D03*
%TO.P,J2,27,Pin_27*%
%TO.N,unconnected-(J2-Pin_27-Pad27)*%
X120980000Y-69000000D03*
%TO.P,J2,26,Pin_26*%
%TO.N,unconnected-(J2-Pin_26-Pad26)*%
X123520000Y-66460000D03*
%TO.P,J2,25,Pin_25*%
%TO.N,GND*%
X123520000Y-69000000D03*
%TO.P,J2,24,Pin_24*%
%TO.N,unconnected-(J2-Pin_24-Pad24)*%
X126060000Y-66460000D03*
%TO.P,J2,23,Pin_23*%
%TO.N,/button_1*%
X126060000Y-69000000D03*
%TO.P,J2,22,Pin_22*%
%TO.N,unconnected-(J2-Pin_22-Pad22)*%
X128600000Y-66460000D03*
%TO.P,J2,21,Pin_21*%
%TO.N,/LED3*%
X128600000Y-69000000D03*
%TO.P,J2,20,Pin_20*%
%TO.N,GND*%
X131140000Y-66460000D03*
%TO.P,J2,19,Pin_19*%
%TO.N,/button_3*%
X131140000Y-69000000D03*
%TO.P,J2,18,Pin_18*%
%TO.N,/GPIO_24*%
X133680000Y-66460000D03*
%TO.P,J2,17,Pin_17*%
%TO.N,unconnected-(J2-Pin_17-Pad17)*%
X133680000Y-69000000D03*
%TO.P,J2,16,Pin_16*%
%TO.N,/GPIO_23*%
X136220000Y-66460000D03*
%TO.P,J2,15,Pin_15*%
%TO.N,/LED4*%
X136220000Y-69000000D03*
%TO.P,J2,14,Pin_14*%
%TO.N,GND*%
X138760000Y-66460000D03*
%TO.P,J2,13,Pin_13*%
%TO.N,/button_4*%
X138760000Y-69000000D03*
%TO.P,J2,12,Pin_12*%
%TO.N,/GPIO_18*%
X141300000Y-66460000D03*
%TO.P,J2,11,Pin_11*%
%TO.N,/LED2*%
X141300000Y-69000000D03*
%TO.P,J2,10,Pin_10*%
%TO.N,/GPIO_15*%
X143840000Y-66460000D03*
%TO.P,J2,9,Pin_9*%
%TO.N,GND*%
X143840000Y-69000000D03*
%TO.P,J2,8,Pin_8*%
%TO.N,/GPIO_14*%
X146380000Y-66460000D03*
%TO.P,J2,7,Pin_7*%
%TO.N,/button_2*%
X146380000Y-69000000D03*
%TO.P,J2,6,Pin_6*%
%TO.N,GND*%
X148920000Y-66460000D03*
%TO.P,J2,5,Pin_5*%
%TO.N,/switch_W*%
X148920000Y-69000000D03*
%TO.P,J2,4,Pin_4*%
%TO.N,+5V*%
X151460000Y-66460000D03*
%TO.P,J2,3,Pin_3*%
%TO.N,/LED5*%
X151460000Y-69000000D03*
%TO.P,J2,2,Pin_2*%
%TO.N,+5V*%
X154000000Y-66460000D03*
D11*
%TO.P,J2,1,Pin_1*%
%TO.N,+3V3*%
X154000000Y-69000000D03*
%TD*%
D12*
%TO.P,CR1,1*%
%TO.N,+5V*%
X164000000Y-70910600D03*
%TO.P,CR1,2*%
%TO.N,GND*%
X164000000Y-75000000D03*
%TD*%
D11*
%TO.P,J7,1,Pin_1*%
%TO.N,GND*%
X154040000Y-60500000D03*
D10*
%TO.P,J7,2,Pin_2*%
%TO.N,+3V3*%
X151500000Y-60500000D03*
%TO.P,J7,3,Pin_3*%
%TO.N,+5V*%
X148960000Y-60500000D03*
%TO.P,J7,4,Pin_4*%
%TO.N,/GPIO_14*%
X146420000Y-60500000D03*
%TO.P,J7,5,Pin_5*%
%TO.N,/GPIO_15*%
X143880000Y-60500000D03*
%TO.P,J7,6,Pin_6*%
%TO.N,/GPIO_18*%
X141340000Y-60500000D03*
%TO.P,J7,7,Pin_7*%
%TO.N,/GPIO_23*%
X138800000Y-60500000D03*
%TO.P,J7,8,Pin_8*%
%TO.N,/GPIO_24*%
X136260000Y-60500000D03*
%TD*%
D13*
%TO.P,J5,1,Pin_1*%
%TO.N,GND*%
X141500000Y-125000000D03*
D14*
%TO.P,J5,2,Pin_2*%
%TO.N,/LED3*%
X144000000Y-125000000D03*
%TO.P,J5,3,Pin_3*%
%TO.N,/button_3*%
X146500000Y-125000000D03*
%TD*%
%TO.P,J3,3,Pin_3*%
%TO.N,/button_1*%
X146000000Y-115500000D03*
%TO.P,J3,2,Pin_2*%
%TO.N,/LED1*%
X143500000Y-115500000D03*
D13*
%TO.P,J3,1,Pin_1*%
%TO.N,GND*%
X141000000Y-115500000D03*
%TD*%
%TO.P,J4,1,Pin_1*%
%TO.N,GND*%
X156500000Y-115500000D03*
D14*
%TO.P,J4,2,Pin_2*%
%TO.N,/LED2*%
X159000000Y-115500000D03*
%TO.P,J4,3,Pin_3*%
%TO.N,/button_2*%
X161500000Y-115500000D03*
%TD*%
D13*
%TO.P,J6,1,Pin_1*%
%TO.N,GND*%
X156500000Y-125000000D03*
D14*
%TO.P,J6,2,Pin_2*%
%TO.N,/LED4*%
X159000000Y-125000000D03*
%TO.P,J6,3,Pin_3*%
%TO.N,/button_4*%
X161500000Y-125000000D03*
%TD*%
D15*
%TO.P,Q4,1,B*%
%TO.N,Net-(Q4-B)*%
X103950000Y-83125000D03*
%TO.P,Q4,2,E*%
%TO.N,GND*%
X102050000Y-83125000D03*
%TO.P,Q4,3,C*%
%TO.N,Net-(Q4-C)*%
X103000000Y-85000000D03*
%TD*%
D16*
%TO.P,R10,2*%
%TO.N,Net-(Q2-B)*%
X117500000Y-110500000D03*
%TO.P,R10,1*%
%TO.N,Net-(D10-K)*%
X115500000Y-110500000D03*
%TD*%
D17*
%TO.P,SW2,1,A*%
%TO.N,/switch_B*%
X141000000Y-99600000D03*
%TO.P,SW2,2,B*%
%TO.N,GND*%
X141000000Y-104000000D03*
%TO.P,SW2,3,C*%
X141000000Y-108400000D03*
%TD*%
D18*
%TO.P,D1,2,A*%
%TO.N,/LED5*%
X162250000Y-87500000D03*
D19*
%TO.P,D1,1,K*%
%TO.N,Net-(D1-K)*%
X159710000Y-87500000D03*
%TD*%
%TO.P,D2,1,K*%
%TO.N,Net-(D2-K)*%
X139710000Y-87500000D03*
D18*
%TO.P,D2,2,A*%
%TO.N,/LED6*%
X142250000Y-87500000D03*
%TD*%
D17*
%TO.P,SW1,3,C*%
%TO.N,GND*%
X161000000Y-108400000D03*
%TO.P,SW1,2,B*%
X161000000Y-104000000D03*
%TO.P,SW1,1,A*%
%TO.N,/switch_W*%
X161000000Y-99600000D03*
%TD*%
D16*
%TO.P,R14,1*%
%TO.N,Net-(Q2-B)*%
X120500000Y-110500000D03*
%TO.P,R14,2*%
%TO.N,GND*%
X122500000Y-110500000D03*
%TD*%
D20*
%TO.P,Q2,1,B*%
%TO.N,Net-(Q2-B)*%
X118875000Y-107450000D03*
%TO.P,Q2,2,E*%
%TO.N,GND*%
X118875000Y-105550000D03*
%TO.P,Q2,3,C*%
%TO.N,Net-(Q2-C)*%
X117000000Y-106500000D03*
%TD*%
D16*
%TO.P,R6,1*%
%TO.N,Net-(D6-K)*%
X111500000Y-99500000D03*
%TO.P,R6,2*%
%TO.N,Net-(Q3-C)*%
X113500000Y-99500000D03*
%TD*%
%TO.P,R4,1*%
%TO.N,Net-(D4-K)*%
X106500000Y-116000000D03*
%TO.P,R4,2*%
%TO.N,Net-(Q1-C)*%
X108500000Y-116000000D03*
%TD*%
D21*
%TO.P,R12,1*%
%TO.N,Net-(D11-A)*%
X108000000Y-87500000D03*
%TO.P,R12,2*%
%TO.N,Net-(Q4-B)*%
X108000000Y-85500000D03*
%TD*%
D16*
%TO.P,R9,1*%
%TO.N,Net-(D9-K)*%
X107500000Y-120500000D03*
%TO.P,R9,2*%
%TO.N,Net-(Q1-B)*%
X109500000Y-120500000D03*
%TD*%
D15*
%TO.P,Q3,1,B*%
%TO.N,Net-(Q3-B)*%
X114500000Y-94000000D03*
%TO.P,Q3,2,E*%
%TO.N,GND*%
X112600000Y-94000000D03*
%TO.P,Q3,3,C*%
%TO.N,Net-(Q3-C)*%
X113550000Y-95875000D03*
%TD*%
D16*
%TO.P,R13,1*%
%TO.N,Net-(Q1-B)*%
X112500000Y-120500000D03*
%TO.P,R13,2*%
%TO.N,GND*%
X114500000Y-120500000D03*
%TD*%
D22*
%TO.P,R8,1*%
%TO.N,Net-(D8-K)*%
X96500000Y-83500000D03*
%TO.P,R8,2*%
%TO.N,GND*%
X94500000Y-83500000D03*
%TD*%
D16*
%TO.P,R5,1*%
%TO.N,Net-(D5-K)*%
X111500000Y-106500000D03*
%TO.P,R5,2*%
%TO.N,Net-(Q2-C)*%
X113500000Y-106500000D03*
%TD*%
D23*
%TO.P,D11,1,K*%
%TO.N,Net-(D10-A)*%
X77500000Y-111000000D03*
%TO.P,D11,2,A*%
%TO.N,Net-(D11-A)*%
X77500000Y-108200000D03*
%TD*%
%TO.P,D12,2,A*%
%TO.N,Net-(D12-A)*%
X77500000Y-102700000D03*
%TO.P,D12,1,K*%
%TO.N,Net-(D11-A)*%
X77500000Y-105500000D03*
%TD*%
%TO.P,D10,1,K*%
%TO.N,Net-(D10-K)*%
X77500000Y-116000000D03*
%TO.P,D10,2,A*%
%TO.N,Net-(D10-A)*%
X77500000Y-113200000D03*
%TD*%
D21*
%TO.P,R16,1*%
%TO.N,Net-(Q4-B)*%
X108000000Y-82500000D03*
%TO.P,R16,2*%
%TO.N,GND*%
X108000000Y-80500000D03*
%TD*%
D20*
%TO.P,Q1,1,B*%
%TO.N,Net-(Q1-B)*%
X113875000Y-116950000D03*
%TO.P,Q1,2,E*%
%TO.N,GND*%
X113875000Y-115050000D03*
%TO.P,Q1,3,C*%
%TO.N,Net-(Q1-C)*%
X112000000Y-116000000D03*
%TD*%
D22*
%TO.P,R7,1*%
%TO.N,Net-(D7-K)*%
X104000000Y-88500000D03*
%TO.P,R7,2*%
%TO.N,Net-(Q4-C)*%
X102000000Y-88500000D03*
%TD*%
D21*
%TO.P,R15,1*%
%TO.N,Net-(Q3-B)*%
X118050000Y-93000000D03*
%TO.P,R15,2*%
%TO.N,GND*%
X118050000Y-91000000D03*
%TD*%
%TO.P,R11,1*%
%TO.N,Net-(D10-A)*%
X118050000Y-97937500D03*
%TO.P,R11,2*%
%TO.N,Net-(Q3-B)*%
X118050000Y-95937500D03*
%TD*%
D24*
%TO.P,D9,1,K*%
%TO.N,Net-(D9-K)*%
X81500000Y-119500000D03*
%TO.P,D9,2,A*%
%TO.N,Net-(D10-K)*%
X78700000Y-119500000D03*
%TD*%
D16*
%TO.P,R3,1*%
%TO.N,Net-(D3-K)*%
X100000000Y-120500000D03*
%TO.P,R3,2*%
%TO.N,GND*%
X102000000Y-120500000D03*
%TD*%
D25*
%TO.P,SW3,1,1*%
%TO.N,Net-(J2-Pin_32)*%
X81198606Y-101269674D03*
%TO.P,SW3,2,2*%
%TO.N,Net-(J2-Pin_36)*%
X83786864Y-96786864D03*
%TO.P,SW3,3,3*%
%TO.N,Net-(J2-Pin_38)*%
X88269674Y-94198606D03*
%TO.P,SW3,4,4*%
%TO.N,Net-(J2-Pin_40)*%
X93446054Y-94198606D03*
%TO.P,SW3,5,5*%
%TO.N,Net-(J2-Pin_37)*%
X97928864Y-96786864D03*
%TO.P,SW3,6,6*%
%TO.N,Net-(J2-Pin_35)*%
X100517122Y-101269674D03*
%TO.P,SW3,7,7*%
%TO.N,Net-(D12-A)*%
X100517122Y-106446054D03*
%TO.P,SW3,8,8*%
%TO.N,Net-(D11-A)*%
X97928864Y-110928864D03*
%TO.P,SW3,9,9*%
%TO.N,Net-(D10-A)*%
X93446054Y-113517122D03*
%TO.P,SW3,10,10*%
%TO.N,Net-(D10-K)*%
X88269674Y-113517122D03*
%TO.P,SW3,11,11*%
%TO.N,Net-(D9-K)*%
X83786864Y-110928864D03*
%TO.P,SW3,12,12*%
%TO.N,unconnected-(SW3-Pad12)*%
X81198606Y-106446054D03*
%TO.P,SW3,13,13*%
%TO.N,GND*%
X90857864Y-98857864D03*
%TO.P,SW3,14,14*%
%TO.N,+5V*%
X90857864Y-108857864D03*
%TD*%
D26*
%TO.P,J1,1,Pin_1*%
%TO.N,GND*%
X171000000Y-73500000D03*
D27*
%TO.P,J1,2,Pin_2*%
%TO.N,+5V*%
X171000000Y-71000000D03*
%TD*%
D28*
%TO.N,GND*%
X94500000Y-82000000D03*
X102500000Y-81000000D03*
X113000000Y-91500000D03*
X121000000Y-105500000D03*
X116500000Y-115000000D03*
X103500000Y-120500000D03*
%TO.N,Net-(D7-K)*%
X104000000Y-90000000D03*
%TO.N,Net-(D5-K)*%
X110500000Y-108000000D03*
%TO.N,Net-(D6-K)*%
X110000000Y-99500000D03*
%TO.N,Net-(D3-K)*%
X98000000Y-120500000D03*
%TO.N,Net-(D8-K)*%
X96500000Y-85500000D03*
%TO.N,Net-(D12-A)*%
X95000000Y-89500000D03*
%TO.N,Net-(D4-K)*%
X105122137Y-116000001D03*
%TD*%
D29*
%TO.N,+5V*%
X154000000Y-66460000D02*
X151460000Y-66460000D01*
D30*
%TO.N,/GPIO_24*%
X136260000Y-63920000D02*
X136260000Y-60500000D01*
X133720000Y-66460000D02*
X136260000Y-63920000D01*
%TO.N,/GPIO_23*%
X138800000Y-63920000D02*
X138800000Y-60500000D01*
X136260000Y-66460000D02*
X138800000Y-63920000D01*
%TO.N,/GPIO_18*%
X141340000Y-66460000D02*
X141340000Y-60500000D01*
%TO.N,/GPIO_15*%
X143880000Y-66460000D02*
X143880000Y-60500000D01*
%TO.N,/GPIO_14*%
X146420000Y-66460000D02*
X146420000Y-60500000D01*
%TO.N,/button_2*%
X156500000Y-79080000D02*
X146420000Y-69000000D01*
X156500000Y-111000000D02*
X156500000Y-79080000D01*
%TO.N,/LED2*%
X155500000Y-83160000D02*
X141340000Y-69000000D01*
X155500000Y-112000000D02*
X155500000Y-83160000D01*
%TO.N,/button_4*%
X153000000Y-83200000D02*
X138800000Y-69000000D01*
X153000000Y-116500000D02*
X153000000Y-83200000D01*
%TO.N,/LED4*%
X152000000Y-84500000D02*
X136500000Y-69000000D01*
X136500000Y-69000000D02*
X136260000Y-69000000D01*
X152000000Y-118000000D02*
X152000000Y-84500000D01*
%TO.N,/button_3*%
X134180000Y-72000000D02*
X131180000Y-69000000D01*
X138000000Y-72000000D02*
X134180000Y-72000000D01*
X151000000Y-85000000D02*
X138000000Y-72000000D01*
X151000000Y-120500000D02*
X151000000Y-85000000D01*
%TO.N,/LED3*%
X150000000Y-86000000D02*
X137500000Y-73500000D01*
X150000000Y-119000000D02*
X150000000Y-86000000D01*
X137500000Y-73500000D02*
X133140000Y-73500000D01*
X133140000Y-73500000D02*
X128640000Y-69000000D01*
%TO.N,/button_1*%
X132100000Y-75000000D02*
X126100000Y-69000000D01*
X137000000Y-75000000D02*
X132100000Y-75000000D01*
X146000000Y-84000000D02*
X137000000Y-75000000D01*
X146000000Y-115500000D02*
X146000000Y-84000000D01*
%TO.N,/LED1*%
X136000000Y-76500000D02*
X125980000Y-76500000D01*
X125980000Y-76500000D02*
X118480000Y-69000000D01*
X145000000Y-85500000D02*
X136000000Y-76500000D01*
X145000000Y-114000000D02*
X145000000Y-85500000D01*
%TO.N,Net-(J2-Pin_38)*%
X106360000Y-64500000D02*
X108320000Y-66460000D01*
X104500000Y-64500000D02*
X106360000Y-64500000D01*
X88269674Y-80730326D02*
X104500000Y-64500000D01*
X88269674Y-94198606D02*
X88269674Y-80730326D01*
%TO.N,Net-(J2-Pin_36)*%
X104000000Y-63500000D02*
X107900000Y-63500000D01*
X107900000Y-63500000D02*
X110860000Y-66460000D01*
X83786864Y-83713136D02*
X104000000Y-63500000D01*
X83786864Y-96786864D02*
X83786864Y-83713136D01*
%TO.N,Net-(J2-Pin_32)*%
X103500000Y-62500000D02*
X111980000Y-62500000D01*
X111980000Y-62500000D02*
X115940000Y-66460000D01*
X81198606Y-84801394D02*
X103500000Y-62500000D01*
X81198606Y-101269674D02*
X81198606Y-84801394D01*
%TO.N,/LED6*%
X132750000Y-78000000D02*
X142250000Y-87500000D01*
X124940000Y-78000000D02*
X132750000Y-78000000D01*
X115940000Y-69000000D02*
X124940000Y-78000000D01*
%TO.N,/LED1*%
X143500000Y-115500000D02*
X145000000Y-114000000D01*
%TO.N,/button_3*%
X146500000Y-125000000D02*
X151000000Y-120500000D01*
%TO.N,/LED4*%
X159000000Y-125000000D02*
X152000000Y-118000000D01*
%TO.N,/LED3*%
X144000000Y-125000000D02*
X150000000Y-119000000D01*
%TO.N,/switch_W*%
X157500000Y-77540000D02*
X148960000Y-69000000D01*
X157500000Y-96100000D02*
X157500000Y-77540000D01*
X161000000Y-99600000D02*
X157500000Y-96100000D01*
%TO.N,Net-(Q4-C)*%
X103000000Y-86000000D02*
X103000000Y-85000000D01*
X102000000Y-88500000D02*
X102000000Y-87000000D01*
X102000000Y-87000000D02*
X103000000Y-86000000D01*
%TO.N,Net-(J2-Pin_37)*%
X98000000Y-79500000D02*
X108320000Y-69180000D01*
X98000000Y-96715728D02*
X98000000Y-79500000D01*
X97928864Y-96786864D02*
X98000000Y-96715728D01*
X108320000Y-69180000D02*
X108320000Y-69000000D01*
%TO.N,Net-(J2-Pin_35)*%
X100500000Y-101252552D02*
X100500000Y-79360000D01*
X100517122Y-101269674D02*
X100500000Y-101252552D01*
X100500000Y-79360000D02*
X110860000Y-69000000D01*
%TO.N,Net-(J2-Pin_40)*%
X92000000Y-80240000D02*
X105780000Y-66460000D01*
X92000000Y-92752552D02*
X92000000Y-80240000D01*
X93446054Y-94198606D02*
X92000000Y-92752552D01*
%TO.N,/switch_B*%
X141000000Y-99600000D02*
X141000000Y-96600000D01*
X141000000Y-96600000D02*
X113400000Y-69000000D01*
%TO.N,/button_4*%
X161500000Y-125000000D02*
X153000000Y-116500000D01*
D29*
%TO.N,+5V*%
X159460000Y-66460000D02*
X154040000Y-66460000D01*
X163910600Y-70910600D02*
X159460000Y-66460000D01*
D30*
X164000000Y-70910600D02*
X163910600Y-70910600D01*
D29*
X170410600Y-70910600D02*
X164000000Y-70910600D01*
D30*
X170500000Y-71000000D02*
X170410600Y-70910600D01*
X171000000Y-71000000D02*
X170500000Y-71000000D01*
D29*
%TO.N,GND*%
X169500000Y-75000000D02*
X171000000Y-73500000D01*
X164000000Y-75000000D02*
X169500000Y-75000000D01*
D30*
%TO.N,/LED5*%
X162250000Y-79750000D02*
X162250000Y-87500000D01*
X151500000Y-69000000D02*
X162250000Y-79750000D01*
%TO.N,GND*%
X94500000Y-83500000D02*
X94500000Y-82000000D01*
X103000000Y-80500000D02*
X108000000Y-80500000D01*
X102500000Y-81000000D02*
X103000000Y-80500000D01*
X102050000Y-81450000D02*
X102500000Y-81000000D01*
X102050000Y-83125000D02*
X102050000Y-81450000D01*
X113500000Y-91000000D02*
X118050000Y-91000000D01*
X113000000Y-91500000D02*
X113500000Y-91000000D01*
X112600000Y-91900000D02*
X113000000Y-91500000D01*
X112600000Y-94000000D02*
X112600000Y-91900000D01*
X122500000Y-107000000D02*
X121000000Y-105500000D01*
X122500000Y-110500000D02*
X122500000Y-107000000D01*
X120950000Y-105550000D02*
X121000000Y-105500000D01*
X118875000Y-105550000D02*
X120950000Y-105550000D01*
X116500000Y-118500000D02*
X116500000Y-115000000D01*
X114500000Y-120500000D02*
X116500000Y-118500000D01*
X116450000Y-115050000D02*
X116500000Y-115000000D01*
X113875000Y-115050000D02*
X116450000Y-115050000D01*
X102000000Y-120500000D02*
X103500000Y-120500000D01*
%TO.N,Net-(D7-K)*%
X104000000Y-90000000D02*
X104000000Y-88500000D01*
%TO.N,Net-(D5-K)*%
X111500000Y-107000000D02*
X111500000Y-106500000D01*
X110500000Y-108000000D02*
X111500000Y-107000000D01*
%TO.N,Net-(D6-K)*%
X111500000Y-99500000D02*
X110000000Y-99500000D01*
%TO.N,Net-(D9-K)*%
X83500000Y-111215728D02*
X83786864Y-110928864D01*
X83500000Y-117500000D02*
X83500000Y-111215728D01*
X81500000Y-119500000D02*
X83500000Y-117500000D01*
%TO.N,Net-(D10-K)*%
X85000000Y-109500000D02*
X88269674Y-112769674D01*
X82687918Y-109500000D02*
X85000000Y-109500000D01*
X77500000Y-114687918D02*
X82687918Y-109500000D01*
X77500000Y-116000000D02*
X77500000Y-114687918D01*
X88269674Y-112769674D02*
X88269674Y-113517122D01*
%TO.N,Net-(D10-A)*%
X93446054Y-113446054D02*
X93446054Y-113517122D01*
X91500000Y-111500000D02*
X93446054Y-113446054D01*
X88500000Y-111500000D02*
X91500000Y-111500000D01*
X86000000Y-109000000D02*
X88500000Y-111500000D01*
X81700000Y-109000000D02*
X86000000Y-109000000D01*
X77500000Y-113200000D02*
X81700000Y-109000000D01*
%TO.N,Net-(D11-A)*%
X89428864Y-110928864D02*
X97928864Y-110928864D01*
X86700000Y-108200000D02*
X89428864Y-110928864D01*
X77500000Y-108200000D02*
X86700000Y-108200000D01*
%TO.N,Net-(D10-K)*%
X77500000Y-118300000D02*
X78700000Y-119500000D01*
X77500000Y-116000000D02*
X77500000Y-118300000D01*
%TO.N,Net-(D10-A)*%
X77500000Y-111000000D02*
X77500000Y-113200000D01*
%TO.N,Net-(D11-A)*%
X77500000Y-105500000D02*
X77500000Y-108200000D01*
%TO.N,Net-(D12-A)*%
X93228932Y-102700000D02*
X77500000Y-102700000D01*
X95000000Y-100928932D02*
X93228932Y-102700000D01*
%TO.N,Net-(D11-A)*%
X99571136Y-110928864D02*
X108000000Y-102500000D01*
X97928864Y-110928864D02*
X99571136Y-110928864D01*
X108000000Y-102500000D02*
X108000000Y-87500000D01*
%TO.N,Net-(D3-K)*%
X98000000Y-120500000D02*
X100000000Y-120500000D01*
%TO.N,Net-(D8-K)*%
X96500000Y-85500000D02*
X96500000Y-83500000D01*
%TO.N,Net-(D12-A)*%
X95000000Y-100928932D02*
X95000000Y-89500000D01*
X100517122Y-106446054D02*
X95000000Y-100928932D01*
%TO.N,Net-(Q2-B)*%
X119000000Y-109000000D02*
X120500000Y-110500000D01*
%TO.N,Net-(Q3-B)*%
X116500000Y-94000000D02*
X117500000Y-93000000D01*
X117500000Y-93000000D02*
X118050000Y-93000000D01*
%TO.N,Net-(Q4-B)*%
X106250000Y-82500000D02*
X108000000Y-82500000D01*
X105625000Y-83125000D02*
X106250000Y-82500000D01*
X105625000Y-83125000D02*
X103950000Y-83125000D01*
X106000000Y-83500000D02*
X105625000Y-83125000D01*
X108000000Y-85500000D02*
X106000000Y-83500000D01*
%TO.N,Net-(Q3-C)*%
X113550000Y-99450000D02*
X113500000Y-99500000D01*
X113550000Y-95875000D02*
X113550000Y-99450000D01*
%TO.N,Net-(Q3-B)*%
X116500000Y-94000000D02*
X114500000Y-94000000D01*
X118050000Y-95550000D02*
X116500000Y-94000000D01*
X118050000Y-95937500D02*
X118050000Y-95550000D01*
%TO.N,Net-(D10-A)*%
X116648660Y-97937500D02*
X118050000Y-97937500D01*
X101069038Y-113517122D02*
X116648660Y-97937500D01*
X93446054Y-113517122D02*
X101069038Y-113517122D01*
%TO.N,Net-(Q2-C)*%
X117000000Y-106500000D02*
X113500000Y-106500000D01*
%TO.N,Net-(Q2-B)*%
X119000000Y-109000000D02*
X119000000Y-107575000D01*
X119000000Y-107575000D02*
X118875000Y-107450000D01*
X117500000Y-110500000D02*
X119000000Y-109000000D01*
%TO.N,Net-(D10-K)*%
X111181878Y-114818122D02*
X115500000Y-110500000D01*
X88269674Y-113517122D02*
X89570674Y-114818122D01*
X89570674Y-114818122D02*
X111181878Y-114818122D01*
%TO.N,Net-(D4-K)*%
X106500000Y-116000000D02*
X105122137Y-116000001D01*
%TO.N,Net-(Q1-C)*%
X112000000Y-116000000D02*
X108500000Y-116000000D01*
%TO.N,Net-(Q1-B)*%
X112500000Y-120000000D02*
X113875000Y-118625000D01*
X113875000Y-118625000D02*
X113875000Y-116950000D01*
X112500000Y-120500000D02*
X112500000Y-120000000D01*
X109500000Y-120500000D02*
X112500000Y-120500000D01*
%TO.N,Net-(D9-K)*%
X106000000Y-119000000D02*
X107500000Y-120500000D01*
X91858000Y-119000000D02*
X106000000Y-119000000D01*
X83786864Y-110928864D02*
X91858000Y-119000000D01*
%TO.N,/LED2*%
X159000000Y-115500000D02*
X155500000Y-112000000D01*
%TO.N,/button_2*%
X156500000Y-111000000D02*
X161000000Y-115500000D01*
%TD*%
M02*
