%TF.GenerationSoftware,KiCad,Pcbnew,9.0.6*%
%TF.CreationDate,2025-12-07T15:07:03-05:00*%
%TF.ProjectId,IO_board,494f5f62-6f61-4726-942e-6b696361645f,rev?*%
%TF.SameCoordinates,Original*%
%TF.FileFunction,Legend,Top*%
%TF.FilePolarity,Positive*%
%FSLAX46Y46*%
G04 Gerber Fmt 4.6, Leading zero omitted, Abs format (unit mm)*
G04 Created by KiCad (PCBNEW 9.0.6) date 2025-12-07 15:07:03*
%MOMM*%
%LPD*%
G01*
G04 APERTURE LIST*
%ADD10C,0.200000*%
%ADD11C,0.150000*%
%ADD12C,0.120000*%
%ADD13C,0.152400*%
G04 APERTURE END LIST*
D10*
X153614838Y-64106517D02*
X153567219Y-64201755D01*
X153567219Y-64201755D02*
X153567219Y-64344612D01*
X153567219Y-64344612D02*
X153614838Y-64487469D01*
X153614838Y-64487469D02*
X153710076Y-64582707D01*
X153710076Y-64582707D02*
X153805314Y-64630326D01*
X153805314Y-64630326D02*
X153995790Y-64677945D01*
X153995790Y-64677945D02*
X154138647Y-64677945D01*
X154138647Y-64677945D02*
X154329123Y-64630326D01*
X154329123Y-64630326D02*
X154424361Y-64582707D01*
X154424361Y-64582707D02*
X154519600Y-64487469D01*
X154519600Y-64487469D02*
X154567219Y-64344612D01*
X154567219Y-64344612D02*
X154567219Y-64249374D01*
X154567219Y-64249374D02*
X154519600Y-64106517D01*
X154519600Y-64106517D02*
X154471980Y-64058898D01*
X154471980Y-64058898D02*
X154138647Y-64058898D01*
X154138647Y-64058898D02*
X154138647Y-64249374D01*
X154567219Y-63630326D02*
X153567219Y-63630326D01*
X153567219Y-63630326D02*
X154567219Y-63058898D01*
X154567219Y-63058898D02*
X153567219Y-63058898D01*
X154567219Y-62582707D02*
X153567219Y-62582707D01*
X153567219Y-62582707D02*
X153567219Y-62344612D01*
X153567219Y-62344612D02*
X153614838Y-62201755D01*
X153614838Y-62201755D02*
X153710076Y-62106517D01*
X153710076Y-62106517D02*
X153805314Y-62058898D01*
X153805314Y-62058898D02*
X153995790Y-62011279D01*
X153995790Y-62011279D02*
X154138647Y-62011279D01*
X154138647Y-62011279D02*
X154329123Y-62058898D01*
X154329123Y-62058898D02*
X154424361Y-62106517D01*
X154424361Y-62106517D02*
X154519600Y-62201755D01*
X154519600Y-62201755D02*
X154567219Y-62344612D01*
X154567219Y-62344612D02*
X154567219Y-62582707D01*
X151067219Y-64525564D02*
X151067219Y-63906517D01*
X151067219Y-63906517D02*
X151448171Y-64239850D01*
X151448171Y-64239850D02*
X151448171Y-64096993D01*
X151448171Y-64096993D02*
X151495790Y-64001755D01*
X151495790Y-64001755D02*
X151543409Y-63954136D01*
X151543409Y-63954136D02*
X151638647Y-63906517D01*
X151638647Y-63906517D02*
X151876742Y-63906517D01*
X151876742Y-63906517D02*
X151971980Y-63954136D01*
X151971980Y-63954136D02*
X152019600Y-64001755D01*
X152019600Y-64001755D02*
X152067219Y-64096993D01*
X152067219Y-64096993D02*
X152067219Y-64382707D01*
X152067219Y-64382707D02*
X152019600Y-64477945D01*
X152019600Y-64477945D02*
X151971980Y-64525564D01*
X151067219Y-63620802D02*
X152067219Y-63287469D01*
X152067219Y-63287469D02*
X151067219Y-62954136D01*
X151067219Y-62716040D02*
X151067219Y-62096993D01*
X151067219Y-62096993D02*
X151448171Y-62430326D01*
X151448171Y-62430326D02*
X151448171Y-62287469D01*
X151448171Y-62287469D02*
X151495790Y-62192231D01*
X151495790Y-62192231D02*
X151543409Y-62144612D01*
X151543409Y-62144612D02*
X151638647Y-62096993D01*
X151638647Y-62096993D02*
X151876742Y-62096993D01*
X151876742Y-62096993D02*
X151971980Y-62144612D01*
X151971980Y-62144612D02*
X152019600Y-62192231D01*
X152019600Y-62192231D02*
X152067219Y-62287469D01*
X152067219Y-62287469D02*
X152067219Y-62573183D01*
X152067219Y-62573183D02*
X152019600Y-62668421D01*
X152019600Y-62668421D02*
X151971980Y-62716040D01*
X148467219Y-63054136D02*
X148467219Y-63530326D01*
X148467219Y-63530326D02*
X148943409Y-63577945D01*
X148943409Y-63577945D02*
X148895790Y-63530326D01*
X148895790Y-63530326D02*
X148848171Y-63435088D01*
X148848171Y-63435088D02*
X148848171Y-63196993D01*
X148848171Y-63196993D02*
X148895790Y-63101755D01*
X148895790Y-63101755D02*
X148943409Y-63054136D01*
X148943409Y-63054136D02*
X149038647Y-63006517D01*
X149038647Y-63006517D02*
X149276742Y-63006517D01*
X149276742Y-63006517D02*
X149371980Y-63054136D01*
X149371980Y-63054136D02*
X149419600Y-63101755D01*
X149419600Y-63101755D02*
X149467219Y-63196993D01*
X149467219Y-63196993D02*
X149467219Y-63435088D01*
X149467219Y-63435088D02*
X149419600Y-63530326D01*
X149419600Y-63530326D02*
X149371980Y-63577945D01*
X148467219Y-62720802D02*
X149467219Y-62387469D01*
X149467219Y-62387469D02*
X148467219Y-62054136D01*
X146767219Y-63106517D02*
X146767219Y-63677945D01*
X146767219Y-63392231D02*
X145767219Y-63392231D01*
X145767219Y-63392231D02*
X145910076Y-63487469D01*
X145910076Y-63487469D02*
X146005314Y-63582707D01*
X146005314Y-63582707D02*
X146052933Y-63677945D01*
X146100552Y-62249374D02*
X146767219Y-62249374D01*
X145719600Y-62487469D02*
X146433885Y-62725564D01*
X146433885Y-62725564D02*
X146433885Y-62106517D01*
X144367219Y-63106517D02*
X144367219Y-63677945D01*
X144367219Y-63392231D02*
X143367219Y-63392231D01*
X143367219Y-63392231D02*
X143510076Y-63487469D01*
X143510076Y-63487469D02*
X143605314Y-63582707D01*
X143605314Y-63582707D02*
X143652933Y-63677945D01*
X143367219Y-62201755D02*
X143367219Y-62677945D01*
X143367219Y-62677945D02*
X143843409Y-62725564D01*
X143843409Y-62725564D02*
X143795790Y-62677945D01*
X143795790Y-62677945D02*
X143748171Y-62582707D01*
X143748171Y-62582707D02*
X143748171Y-62344612D01*
X143748171Y-62344612D02*
X143795790Y-62249374D01*
X143795790Y-62249374D02*
X143843409Y-62201755D01*
X143843409Y-62201755D02*
X143938647Y-62154136D01*
X143938647Y-62154136D02*
X144176742Y-62154136D01*
X144176742Y-62154136D02*
X144271980Y-62201755D01*
X144271980Y-62201755D02*
X144319600Y-62249374D01*
X144319600Y-62249374D02*
X144367219Y-62344612D01*
X144367219Y-62344612D02*
X144367219Y-62582707D01*
X144367219Y-62582707D02*
X144319600Y-62677945D01*
X144319600Y-62677945D02*
X144271980Y-62725564D01*
X141767219Y-63106517D02*
X141767219Y-63677945D01*
X141767219Y-63392231D02*
X140767219Y-63392231D01*
X140767219Y-63392231D02*
X140910076Y-63487469D01*
X140910076Y-63487469D02*
X141005314Y-63582707D01*
X141005314Y-63582707D02*
X141052933Y-63677945D01*
X141195790Y-62535088D02*
X141148171Y-62630326D01*
X141148171Y-62630326D02*
X141100552Y-62677945D01*
X141100552Y-62677945D02*
X141005314Y-62725564D01*
X141005314Y-62725564D02*
X140957695Y-62725564D01*
X140957695Y-62725564D02*
X140862457Y-62677945D01*
X140862457Y-62677945D02*
X140814838Y-62630326D01*
X140814838Y-62630326D02*
X140767219Y-62535088D01*
X140767219Y-62535088D02*
X140767219Y-62344612D01*
X140767219Y-62344612D02*
X140814838Y-62249374D01*
X140814838Y-62249374D02*
X140862457Y-62201755D01*
X140862457Y-62201755D02*
X140957695Y-62154136D01*
X140957695Y-62154136D02*
X141005314Y-62154136D01*
X141005314Y-62154136D02*
X141100552Y-62201755D01*
X141100552Y-62201755D02*
X141148171Y-62249374D01*
X141148171Y-62249374D02*
X141195790Y-62344612D01*
X141195790Y-62344612D02*
X141195790Y-62535088D01*
X141195790Y-62535088D02*
X141243409Y-62630326D01*
X141243409Y-62630326D02*
X141291028Y-62677945D01*
X141291028Y-62677945D02*
X141386266Y-62725564D01*
X141386266Y-62725564D02*
X141576742Y-62725564D01*
X141576742Y-62725564D02*
X141671980Y-62677945D01*
X141671980Y-62677945D02*
X141719600Y-62630326D01*
X141719600Y-62630326D02*
X141767219Y-62535088D01*
X141767219Y-62535088D02*
X141767219Y-62344612D01*
X141767219Y-62344612D02*
X141719600Y-62249374D01*
X141719600Y-62249374D02*
X141671980Y-62201755D01*
X141671980Y-62201755D02*
X141576742Y-62154136D01*
X141576742Y-62154136D02*
X141386266Y-62154136D01*
X141386266Y-62154136D02*
X141291028Y-62201755D01*
X141291028Y-62201755D02*
X141243409Y-62249374D01*
X141243409Y-62249374D02*
X141195790Y-62344612D01*
X138462457Y-63677945D02*
X138414838Y-63630326D01*
X138414838Y-63630326D02*
X138367219Y-63535088D01*
X138367219Y-63535088D02*
X138367219Y-63296993D01*
X138367219Y-63296993D02*
X138414838Y-63201755D01*
X138414838Y-63201755D02*
X138462457Y-63154136D01*
X138462457Y-63154136D02*
X138557695Y-63106517D01*
X138557695Y-63106517D02*
X138652933Y-63106517D01*
X138652933Y-63106517D02*
X138795790Y-63154136D01*
X138795790Y-63154136D02*
X139367219Y-63725564D01*
X139367219Y-63725564D02*
X139367219Y-63106517D01*
X138367219Y-62773183D02*
X138367219Y-62154136D01*
X138367219Y-62154136D02*
X138748171Y-62487469D01*
X138748171Y-62487469D02*
X138748171Y-62344612D01*
X138748171Y-62344612D02*
X138795790Y-62249374D01*
X138795790Y-62249374D02*
X138843409Y-62201755D01*
X138843409Y-62201755D02*
X138938647Y-62154136D01*
X138938647Y-62154136D02*
X139176742Y-62154136D01*
X139176742Y-62154136D02*
X139271980Y-62201755D01*
X139271980Y-62201755D02*
X139319600Y-62249374D01*
X139319600Y-62249374D02*
X139367219Y-62344612D01*
X139367219Y-62344612D02*
X139367219Y-62630326D01*
X139367219Y-62630326D02*
X139319600Y-62725564D01*
X139319600Y-62725564D02*
X139271980Y-62773183D01*
X135762457Y-63677945D02*
X135714838Y-63630326D01*
X135714838Y-63630326D02*
X135667219Y-63535088D01*
X135667219Y-63535088D02*
X135667219Y-63296993D01*
X135667219Y-63296993D02*
X135714838Y-63201755D01*
X135714838Y-63201755D02*
X135762457Y-63154136D01*
X135762457Y-63154136D02*
X135857695Y-63106517D01*
X135857695Y-63106517D02*
X135952933Y-63106517D01*
X135952933Y-63106517D02*
X136095790Y-63154136D01*
X136095790Y-63154136D02*
X136667219Y-63725564D01*
X136667219Y-63725564D02*
X136667219Y-63106517D01*
X136000552Y-62249374D02*
X136667219Y-62249374D01*
X135619600Y-62487469D02*
X136333885Y-62725564D01*
X136333885Y-62725564D02*
X136333885Y-62106517D01*
D11*
X102454819Y-68333333D02*
X103169104Y-68333333D01*
X103169104Y-68333333D02*
X103311961Y-68380952D01*
X103311961Y-68380952D02*
X103407200Y-68476190D01*
X103407200Y-68476190D02*
X103454819Y-68619047D01*
X103454819Y-68619047D02*
X103454819Y-68714285D01*
X102550057Y-67904761D02*
X102502438Y-67857142D01*
X102502438Y-67857142D02*
X102454819Y-67761904D01*
X102454819Y-67761904D02*
X102454819Y-67523809D01*
X102454819Y-67523809D02*
X102502438Y-67428571D01*
X102502438Y-67428571D02*
X102550057Y-67380952D01*
X102550057Y-67380952D02*
X102645295Y-67333333D01*
X102645295Y-67333333D02*
X102740533Y-67333333D01*
X102740533Y-67333333D02*
X102883390Y-67380952D01*
X102883390Y-67380952D02*
X103454819Y-67952380D01*
X103454819Y-67952380D02*
X103454819Y-67333333D01*
X160640419Y-72788633D02*
X160592800Y-72741014D01*
X160592800Y-72741014D02*
X160545180Y-72598157D01*
X160545180Y-72598157D02*
X160545180Y-72502919D01*
X160545180Y-72502919D02*
X160592800Y-72360062D01*
X160592800Y-72360062D02*
X160688038Y-72264824D01*
X160688038Y-72264824D02*
X160783276Y-72217205D01*
X160783276Y-72217205D02*
X160973752Y-72169586D01*
X160973752Y-72169586D02*
X161116609Y-72169586D01*
X161116609Y-72169586D02*
X161307085Y-72217205D01*
X161307085Y-72217205D02*
X161402323Y-72264824D01*
X161402323Y-72264824D02*
X161497561Y-72360062D01*
X161497561Y-72360062D02*
X161545180Y-72502919D01*
X161545180Y-72502919D02*
X161545180Y-72598157D01*
X161545180Y-72598157D02*
X161497561Y-72741014D01*
X161497561Y-72741014D02*
X161449942Y-72788633D01*
X160545180Y-73788633D02*
X161021371Y-73455300D01*
X160545180Y-73217205D02*
X161545180Y-73217205D01*
X161545180Y-73217205D02*
X161545180Y-73598157D01*
X161545180Y-73598157D02*
X161497561Y-73693395D01*
X161497561Y-73693395D02*
X161449942Y-73741014D01*
X161449942Y-73741014D02*
X161354704Y-73788633D01*
X161354704Y-73788633D02*
X161211847Y-73788633D01*
X161211847Y-73788633D02*
X161116609Y-73741014D01*
X161116609Y-73741014D02*
X161068990Y-73693395D01*
X161068990Y-73693395D02*
X161021371Y-73598157D01*
X161021371Y-73598157D02*
X161021371Y-73217205D01*
X160545180Y-74741014D02*
X160545180Y-74169586D01*
X160545180Y-74455300D02*
X161545180Y-74455300D01*
X161545180Y-74455300D02*
X161402323Y-74360062D01*
X161402323Y-74360062D02*
X161307085Y-74264824D01*
X161307085Y-74264824D02*
X161259466Y-74169586D01*
X155874819Y-60833333D02*
X156589104Y-60833333D01*
X156589104Y-60833333D02*
X156731961Y-60880952D01*
X156731961Y-60880952D02*
X156827200Y-60976190D01*
X156827200Y-60976190D02*
X156874819Y-61119047D01*
X156874819Y-61119047D02*
X156874819Y-61214285D01*
X155874819Y-60452380D02*
X155874819Y-59785714D01*
X155874819Y-59785714D02*
X156874819Y-60214285D01*
X143666666Y-121654819D02*
X143666666Y-122369104D01*
X143666666Y-122369104D02*
X143619047Y-122511961D01*
X143619047Y-122511961D02*
X143523809Y-122607200D01*
X143523809Y-122607200D02*
X143380952Y-122654819D01*
X143380952Y-122654819D02*
X143285714Y-122654819D01*
X144619047Y-121654819D02*
X144142857Y-121654819D01*
X144142857Y-121654819D02*
X144095238Y-122131009D01*
X144095238Y-122131009D02*
X144142857Y-122083390D01*
X144142857Y-122083390D02*
X144238095Y-122035771D01*
X144238095Y-122035771D02*
X144476190Y-122035771D01*
X144476190Y-122035771D02*
X144571428Y-122083390D01*
X144571428Y-122083390D02*
X144619047Y-122131009D01*
X144619047Y-122131009D02*
X144666666Y-122226247D01*
X144666666Y-122226247D02*
X144666666Y-122464342D01*
X144666666Y-122464342D02*
X144619047Y-122559580D01*
X144619047Y-122559580D02*
X144571428Y-122607200D01*
X144571428Y-122607200D02*
X144476190Y-122654819D01*
X144476190Y-122654819D02*
X144238095Y-122654819D01*
X144238095Y-122654819D02*
X144142857Y-122607200D01*
X144142857Y-122607200D02*
X144095238Y-122559580D01*
X143166666Y-112154819D02*
X143166666Y-112869104D01*
X143166666Y-112869104D02*
X143119047Y-113011961D01*
X143119047Y-113011961D02*
X143023809Y-113107200D01*
X143023809Y-113107200D02*
X142880952Y-113154819D01*
X142880952Y-113154819D02*
X142785714Y-113154819D01*
X143547619Y-112154819D02*
X144166666Y-112154819D01*
X144166666Y-112154819D02*
X143833333Y-112535771D01*
X143833333Y-112535771D02*
X143976190Y-112535771D01*
X143976190Y-112535771D02*
X144071428Y-112583390D01*
X144071428Y-112583390D02*
X144119047Y-112631009D01*
X144119047Y-112631009D02*
X144166666Y-112726247D01*
X144166666Y-112726247D02*
X144166666Y-112964342D01*
X144166666Y-112964342D02*
X144119047Y-113059580D01*
X144119047Y-113059580D02*
X144071428Y-113107200D01*
X144071428Y-113107200D02*
X143976190Y-113154819D01*
X143976190Y-113154819D02*
X143690476Y-113154819D01*
X143690476Y-113154819D02*
X143595238Y-113107200D01*
X143595238Y-113107200D02*
X143547619Y-113059580D01*
X158666666Y-112154819D02*
X158666666Y-112869104D01*
X158666666Y-112869104D02*
X158619047Y-113011961D01*
X158619047Y-113011961D02*
X158523809Y-113107200D01*
X158523809Y-113107200D02*
X158380952Y-113154819D01*
X158380952Y-113154819D02*
X158285714Y-113154819D01*
X159571428Y-112488152D02*
X159571428Y-113154819D01*
X159333333Y-112107200D02*
X159095238Y-112821485D01*
X159095238Y-112821485D02*
X159714285Y-112821485D01*
X158666666Y-121654819D02*
X158666666Y-122369104D01*
X158666666Y-122369104D02*
X158619047Y-122511961D01*
X158619047Y-122511961D02*
X158523809Y-122607200D01*
X158523809Y-122607200D02*
X158380952Y-122654819D01*
X158380952Y-122654819D02*
X158285714Y-122654819D01*
X159571428Y-121654819D02*
X159380952Y-121654819D01*
X159380952Y-121654819D02*
X159285714Y-121702438D01*
X159285714Y-121702438D02*
X159238095Y-121750057D01*
X159238095Y-121750057D02*
X159142857Y-121892914D01*
X159142857Y-121892914D02*
X159095238Y-122083390D01*
X159095238Y-122083390D02*
X159095238Y-122464342D01*
X159095238Y-122464342D02*
X159142857Y-122559580D01*
X159142857Y-122559580D02*
X159190476Y-122607200D01*
X159190476Y-122607200D02*
X159285714Y-122654819D01*
X159285714Y-122654819D02*
X159476190Y-122654819D01*
X159476190Y-122654819D02*
X159571428Y-122607200D01*
X159571428Y-122607200D02*
X159619047Y-122559580D01*
X159619047Y-122559580D02*
X159666666Y-122464342D01*
X159666666Y-122464342D02*
X159666666Y-122226247D01*
X159666666Y-122226247D02*
X159619047Y-122131009D01*
X159619047Y-122131009D02*
X159571428Y-122083390D01*
X159571428Y-122083390D02*
X159476190Y-122035771D01*
X159476190Y-122035771D02*
X159285714Y-122035771D01*
X159285714Y-122035771D02*
X159190476Y-122083390D01*
X159190476Y-122083390D02*
X159142857Y-122131009D01*
X159142857Y-122131009D02*
X159095238Y-122226247D01*
X104050057Y-81595238D02*
X104002438Y-81690476D01*
X104002438Y-81690476D02*
X103907200Y-81785714D01*
X103907200Y-81785714D02*
X103764342Y-81928571D01*
X103764342Y-81928571D02*
X103716723Y-82023809D01*
X103716723Y-82023809D02*
X103716723Y-82119047D01*
X103954819Y-82071428D02*
X103907200Y-82166666D01*
X103907200Y-82166666D02*
X103811961Y-82261904D01*
X103811961Y-82261904D02*
X103621485Y-82309523D01*
X103621485Y-82309523D02*
X103288152Y-82309523D01*
X103288152Y-82309523D02*
X103097676Y-82261904D01*
X103097676Y-82261904D02*
X103002438Y-82166666D01*
X103002438Y-82166666D02*
X102954819Y-82071428D01*
X102954819Y-82071428D02*
X102954819Y-81880952D01*
X102954819Y-81880952D02*
X103002438Y-81785714D01*
X103002438Y-81785714D02*
X103097676Y-81690476D01*
X103097676Y-81690476D02*
X103288152Y-81642857D01*
X103288152Y-81642857D02*
X103621485Y-81642857D01*
X103621485Y-81642857D02*
X103811961Y-81690476D01*
X103811961Y-81690476D02*
X103907200Y-81785714D01*
X103907200Y-81785714D02*
X103954819Y-81880952D01*
X103954819Y-81880952D02*
X103954819Y-82071428D01*
X103288152Y-80785714D02*
X103954819Y-80785714D01*
X102907200Y-81023809D02*
X103621485Y-81261904D01*
X103621485Y-81261904D02*
X103621485Y-80642857D01*
X115857142Y-112454819D02*
X115523809Y-111978628D01*
X115285714Y-112454819D02*
X115285714Y-111454819D01*
X115285714Y-111454819D02*
X115666666Y-111454819D01*
X115666666Y-111454819D02*
X115761904Y-111502438D01*
X115761904Y-111502438D02*
X115809523Y-111550057D01*
X115809523Y-111550057D02*
X115857142Y-111645295D01*
X115857142Y-111645295D02*
X115857142Y-111788152D01*
X115857142Y-111788152D02*
X115809523Y-111883390D01*
X115809523Y-111883390D02*
X115761904Y-111931009D01*
X115761904Y-111931009D02*
X115666666Y-111978628D01*
X115666666Y-111978628D02*
X115285714Y-111978628D01*
X116809523Y-112454819D02*
X116238095Y-112454819D01*
X116523809Y-112454819D02*
X116523809Y-111454819D01*
X116523809Y-111454819D02*
X116428571Y-111597676D01*
X116428571Y-111597676D02*
X116333333Y-111692914D01*
X116333333Y-111692914D02*
X116238095Y-111740533D01*
X117428571Y-111454819D02*
X117523809Y-111454819D01*
X117523809Y-111454819D02*
X117619047Y-111502438D01*
X117619047Y-111502438D02*
X117666666Y-111550057D01*
X117666666Y-111550057D02*
X117714285Y-111645295D01*
X117714285Y-111645295D02*
X117761904Y-111835771D01*
X117761904Y-111835771D02*
X117761904Y-112073866D01*
X117761904Y-112073866D02*
X117714285Y-112264342D01*
X117714285Y-112264342D02*
X117666666Y-112359580D01*
X117666666Y-112359580D02*
X117619047Y-112407200D01*
X117619047Y-112407200D02*
X117523809Y-112454819D01*
X117523809Y-112454819D02*
X117428571Y-112454819D01*
X117428571Y-112454819D02*
X117333333Y-112407200D01*
X117333333Y-112407200D02*
X117285714Y-112359580D01*
X117285714Y-112359580D02*
X117238095Y-112264342D01*
X117238095Y-112264342D02*
X117190476Y-112073866D01*
X117190476Y-112073866D02*
X117190476Y-111835771D01*
X117190476Y-111835771D02*
X117238095Y-111645295D01*
X117238095Y-111645295D02*
X117285714Y-111550057D01*
X117285714Y-111550057D02*
X117333333Y-111502438D01*
X117333333Y-111502438D02*
X117428571Y-111454819D01*
X120857142Y-112454819D02*
X120523809Y-111978628D01*
X120285714Y-112454819D02*
X120285714Y-111454819D01*
X120285714Y-111454819D02*
X120666666Y-111454819D01*
X120666666Y-111454819D02*
X120761904Y-111502438D01*
X120761904Y-111502438D02*
X120809523Y-111550057D01*
X120809523Y-111550057D02*
X120857142Y-111645295D01*
X120857142Y-111645295D02*
X120857142Y-111788152D01*
X120857142Y-111788152D02*
X120809523Y-111883390D01*
X120809523Y-111883390D02*
X120761904Y-111931009D01*
X120761904Y-111931009D02*
X120666666Y-111978628D01*
X120666666Y-111978628D02*
X120285714Y-111978628D01*
X121809523Y-112454819D02*
X121238095Y-112454819D01*
X121523809Y-112454819D02*
X121523809Y-111454819D01*
X121523809Y-111454819D02*
X121428571Y-111597676D01*
X121428571Y-111597676D02*
X121333333Y-111692914D01*
X121333333Y-111692914D02*
X121238095Y-111740533D01*
X122666666Y-111788152D02*
X122666666Y-112454819D01*
X122428571Y-111407200D02*
X122190476Y-112121485D01*
X122190476Y-112121485D02*
X122809523Y-112121485D01*
X120904761Y-107050057D02*
X120809523Y-107002438D01*
X120809523Y-107002438D02*
X120714285Y-106907200D01*
X120714285Y-106907200D02*
X120571428Y-106764342D01*
X120571428Y-106764342D02*
X120476190Y-106716723D01*
X120476190Y-106716723D02*
X120380952Y-106716723D01*
X120428571Y-106954819D02*
X120333333Y-106907200D01*
X120333333Y-106907200D02*
X120238095Y-106811961D01*
X120238095Y-106811961D02*
X120190476Y-106621485D01*
X120190476Y-106621485D02*
X120190476Y-106288152D01*
X120190476Y-106288152D02*
X120238095Y-106097676D01*
X120238095Y-106097676D02*
X120333333Y-106002438D01*
X120333333Y-106002438D02*
X120428571Y-105954819D01*
X120428571Y-105954819D02*
X120619047Y-105954819D01*
X120619047Y-105954819D02*
X120714285Y-106002438D01*
X120714285Y-106002438D02*
X120809523Y-106097676D01*
X120809523Y-106097676D02*
X120857142Y-106288152D01*
X120857142Y-106288152D02*
X120857142Y-106621485D01*
X120857142Y-106621485D02*
X120809523Y-106811961D01*
X120809523Y-106811961D02*
X120714285Y-106907200D01*
X120714285Y-106907200D02*
X120619047Y-106954819D01*
X120619047Y-106954819D02*
X120428571Y-106954819D01*
X121238095Y-106050057D02*
X121285714Y-106002438D01*
X121285714Y-106002438D02*
X121380952Y-105954819D01*
X121380952Y-105954819D02*
X121619047Y-105954819D01*
X121619047Y-105954819D02*
X121714285Y-106002438D01*
X121714285Y-106002438D02*
X121761904Y-106050057D01*
X121761904Y-106050057D02*
X121809523Y-106145295D01*
X121809523Y-106145295D02*
X121809523Y-106240533D01*
X121809523Y-106240533D02*
X121761904Y-106383390D01*
X121761904Y-106383390D02*
X121190476Y-106954819D01*
X121190476Y-106954819D02*
X121809523Y-106954819D01*
X112333333Y-98304819D02*
X112000000Y-97828628D01*
X111761905Y-98304819D02*
X111761905Y-97304819D01*
X111761905Y-97304819D02*
X112142857Y-97304819D01*
X112142857Y-97304819D02*
X112238095Y-97352438D01*
X112238095Y-97352438D02*
X112285714Y-97400057D01*
X112285714Y-97400057D02*
X112333333Y-97495295D01*
X112333333Y-97495295D02*
X112333333Y-97638152D01*
X112333333Y-97638152D02*
X112285714Y-97733390D01*
X112285714Y-97733390D02*
X112238095Y-97781009D01*
X112238095Y-97781009D02*
X112142857Y-97828628D01*
X112142857Y-97828628D02*
X111761905Y-97828628D01*
X113190476Y-97304819D02*
X113000000Y-97304819D01*
X113000000Y-97304819D02*
X112904762Y-97352438D01*
X112904762Y-97352438D02*
X112857143Y-97400057D01*
X112857143Y-97400057D02*
X112761905Y-97542914D01*
X112761905Y-97542914D02*
X112714286Y-97733390D01*
X112714286Y-97733390D02*
X112714286Y-98114342D01*
X112714286Y-98114342D02*
X112761905Y-98209580D01*
X112761905Y-98209580D02*
X112809524Y-98257200D01*
X112809524Y-98257200D02*
X112904762Y-98304819D01*
X112904762Y-98304819D02*
X113095238Y-98304819D01*
X113095238Y-98304819D02*
X113190476Y-98257200D01*
X113190476Y-98257200D02*
X113238095Y-98209580D01*
X113238095Y-98209580D02*
X113285714Y-98114342D01*
X113285714Y-98114342D02*
X113285714Y-97876247D01*
X113285714Y-97876247D02*
X113238095Y-97781009D01*
X113238095Y-97781009D02*
X113190476Y-97733390D01*
X113190476Y-97733390D02*
X113095238Y-97685771D01*
X113095238Y-97685771D02*
X112904762Y-97685771D01*
X112904762Y-97685771D02*
X112809524Y-97733390D01*
X112809524Y-97733390D02*
X112761905Y-97781009D01*
X112761905Y-97781009D02*
X112714286Y-97876247D01*
X107333333Y-114804819D02*
X107000000Y-114328628D01*
X106761905Y-114804819D02*
X106761905Y-113804819D01*
X106761905Y-113804819D02*
X107142857Y-113804819D01*
X107142857Y-113804819D02*
X107238095Y-113852438D01*
X107238095Y-113852438D02*
X107285714Y-113900057D01*
X107285714Y-113900057D02*
X107333333Y-113995295D01*
X107333333Y-113995295D02*
X107333333Y-114138152D01*
X107333333Y-114138152D02*
X107285714Y-114233390D01*
X107285714Y-114233390D02*
X107238095Y-114281009D01*
X107238095Y-114281009D02*
X107142857Y-114328628D01*
X107142857Y-114328628D02*
X106761905Y-114328628D01*
X108190476Y-114138152D02*
X108190476Y-114804819D01*
X107952381Y-113757200D02*
X107714286Y-114471485D01*
X107714286Y-114471485D02*
X108333333Y-114471485D01*
X109954819Y-87142857D02*
X109478628Y-87476190D01*
X109954819Y-87714285D02*
X108954819Y-87714285D01*
X108954819Y-87714285D02*
X108954819Y-87333333D01*
X108954819Y-87333333D02*
X109002438Y-87238095D01*
X109002438Y-87238095D02*
X109050057Y-87190476D01*
X109050057Y-87190476D02*
X109145295Y-87142857D01*
X109145295Y-87142857D02*
X109288152Y-87142857D01*
X109288152Y-87142857D02*
X109383390Y-87190476D01*
X109383390Y-87190476D02*
X109431009Y-87238095D01*
X109431009Y-87238095D02*
X109478628Y-87333333D01*
X109478628Y-87333333D02*
X109478628Y-87714285D01*
X109954819Y-86190476D02*
X109954819Y-86761904D01*
X109954819Y-86476190D02*
X108954819Y-86476190D01*
X108954819Y-86476190D02*
X109097676Y-86571428D01*
X109097676Y-86571428D02*
X109192914Y-86666666D01*
X109192914Y-86666666D02*
X109240533Y-86761904D01*
X109050057Y-85809523D02*
X109002438Y-85761904D01*
X109002438Y-85761904D02*
X108954819Y-85666666D01*
X108954819Y-85666666D02*
X108954819Y-85428571D01*
X108954819Y-85428571D02*
X109002438Y-85333333D01*
X109002438Y-85333333D02*
X109050057Y-85285714D01*
X109050057Y-85285714D02*
X109145295Y-85238095D01*
X109145295Y-85238095D02*
X109240533Y-85238095D01*
X109240533Y-85238095D02*
X109383390Y-85285714D01*
X109383390Y-85285714D02*
X109954819Y-85857142D01*
X109954819Y-85857142D02*
X109954819Y-85238095D01*
X108333333Y-122454819D02*
X108000000Y-121978628D01*
X107761905Y-122454819D02*
X107761905Y-121454819D01*
X107761905Y-121454819D02*
X108142857Y-121454819D01*
X108142857Y-121454819D02*
X108238095Y-121502438D01*
X108238095Y-121502438D02*
X108285714Y-121550057D01*
X108285714Y-121550057D02*
X108333333Y-121645295D01*
X108333333Y-121645295D02*
X108333333Y-121788152D01*
X108333333Y-121788152D02*
X108285714Y-121883390D01*
X108285714Y-121883390D02*
X108238095Y-121931009D01*
X108238095Y-121931009D02*
X108142857Y-121978628D01*
X108142857Y-121978628D02*
X107761905Y-121978628D01*
X108809524Y-122454819D02*
X109000000Y-122454819D01*
X109000000Y-122454819D02*
X109095238Y-122407200D01*
X109095238Y-122407200D02*
X109142857Y-122359580D01*
X109142857Y-122359580D02*
X109238095Y-122216723D01*
X109238095Y-122216723D02*
X109285714Y-122026247D01*
X109285714Y-122026247D02*
X109285714Y-121645295D01*
X109285714Y-121645295D02*
X109238095Y-121550057D01*
X109238095Y-121550057D02*
X109190476Y-121502438D01*
X109190476Y-121502438D02*
X109095238Y-121454819D01*
X109095238Y-121454819D02*
X108904762Y-121454819D01*
X108904762Y-121454819D02*
X108809524Y-121502438D01*
X108809524Y-121502438D02*
X108761905Y-121550057D01*
X108761905Y-121550057D02*
X108714286Y-121645295D01*
X108714286Y-121645295D02*
X108714286Y-121883390D01*
X108714286Y-121883390D02*
X108761905Y-121978628D01*
X108761905Y-121978628D02*
X108809524Y-122026247D01*
X108809524Y-122026247D02*
X108904762Y-122073866D01*
X108904762Y-122073866D02*
X109095238Y-122073866D01*
X109095238Y-122073866D02*
X109190476Y-122026247D01*
X109190476Y-122026247D02*
X109238095Y-121978628D01*
X109238095Y-121978628D02*
X109285714Y-121883390D01*
X111550057Y-95032738D02*
X111502438Y-95127976D01*
X111502438Y-95127976D02*
X111407200Y-95223214D01*
X111407200Y-95223214D02*
X111264342Y-95366071D01*
X111264342Y-95366071D02*
X111216723Y-95461309D01*
X111216723Y-95461309D02*
X111216723Y-95556547D01*
X111454819Y-95508928D02*
X111407200Y-95604166D01*
X111407200Y-95604166D02*
X111311961Y-95699404D01*
X111311961Y-95699404D02*
X111121485Y-95747023D01*
X111121485Y-95747023D02*
X110788152Y-95747023D01*
X110788152Y-95747023D02*
X110597676Y-95699404D01*
X110597676Y-95699404D02*
X110502438Y-95604166D01*
X110502438Y-95604166D02*
X110454819Y-95508928D01*
X110454819Y-95508928D02*
X110454819Y-95318452D01*
X110454819Y-95318452D02*
X110502438Y-95223214D01*
X110502438Y-95223214D02*
X110597676Y-95127976D01*
X110597676Y-95127976D02*
X110788152Y-95080357D01*
X110788152Y-95080357D02*
X111121485Y-95080357D01*
X111121485Y-95080357D02*
X111311961Y-95127976D01*
X111311961Y-95127976D02*
X111407200Y-95223214D01*
X111407200Y-95223214D02*
X111454819Y-95318452D01*
X111454819Y-95318452D02*
X111454819Y-95508928D01*
X110454819Y-94747023D02*
X110454819Y-94127976D01*
X110454819Y-94127976D02*
X110835771Y-94461309D01*
X110835771Y-94461309D02*
X110835771Y-94318452D01*
X110835771Y-94318452D02*
X110883390Y-94223214D01*
X110883390Y-94223214D02*
X110931009Y-94175595D01*
X110931009Y-94175595D02*
X111026247Y-94127976D01*
X111026247Y-94127976D02*
X111264342Y-94127976D01*
X111264342Y-94127976D02*
X111359580Y-94175595D01*
X111359580Y-94175595D02*
X111407200Y-94223214D01*
X111407200Y-94223214D02*
X111454819Y-94318452D01*
X111454819Y-94318452D02*
X111454819Y-94604166D01*
X111454819Y-94604166D02*
X111407200Y-94699404D01*
X111407200Y-94699404D02*
X111359580Y-94747023D01*
X112857142Y-122454819D02*
X112523809Y-121978628D01*
X112285714Y-122454819D02*
X112285714Y-121454819D01*
X112285714Y-121454819D02*
X112666666Y-121454819D01*
X112666666Y-121454819D02*
X112761904Y-121502438D01*
X112761904Y-121502438D02*
X112809523Y-121550057D01*
X112809523Y-121550057D02*
X112857142Y-121645295D01*
X112857142Y-121645295D02*
X112857142Y-121788152D01*
X112857142Y-121788152D02*
X112809523Y-121883390D01*
X112809523Y-121883390D02*
X112761904Y-121931009D01*
X112761904Y-121931009D02*
X112666666Y-121978628D01*
X112666666Y-121978628D02*
X112285714Y-121978628D01*
X113809523Y-122454819D02*
X113238095Y-122454819D01*
X113523809Y-122454819D02*
X113523809Y-121454819D01*
X113523809Y-121454819D02*
X113428571Y-121597676D01*
X113428571Y-121597676D02*
X113333333Y-121692914D01*
X113333333Y-121692914D02*
X113238095Y-121740533D01*
X114142857Y-121454819D02*
X114761904Y-121454819D01*
X114761904Y-121454819D02*
X114428571Y-121835771D01*
X114428571Y-121835771D02*
X114571428Y-121835771D01*
X114571428Y-121835771D02*
X114666666Y-121883390D01*
X114666666Y-121883390D02*
X114714285Y-121931009D01*
X114714285Y-121931009D02*
X114761904Y-122026247D01*
X114761904Y-122026247D02*
X114761904Y-122264342D01*
X114761904Y-122264342D02*
X114714285Y-122359580D01*
X114714285Y-122359580D02*
X114666666Y-122407200D01*
X114666666Y-122407200D02*
X114571428Y-122454819D01*
X114571428Y-122454819D02*
X114285714Y-122454819D01*
X114285714Y-122454819D02*
X114190476Y-122407200D01*
X114190476Y-122407200D02*
X114142857Y-122359580D01*
X95833333Y-82454819D02*
X95500000Y-81978628D01*
X95261905Y-82454819D02*
X95261905Y-81454819D01*
X95261905Y-81454819D02*
X95642857Y-81454819D01*
X95642857Y-81454819D02*
X95738095Y-81502438D01*
X95738095Y-81502438D02*
X95785714Y-81550057D01*
X95785714Y-81550057D02*
X95833333Y-81645295D01*
X95833333Y-81645295D02*
X95833333Y-81788152D01*
X95833333Y-81788152D02*
X95785714Y-81883390D01*
X95785714Y-81883390D02*
X95738095Y-81931009D01*
X95738095Y-81931009D02*
X95642857Y-81978628D01*
X95642857Y-81978628D02*
X95261905Y-81978628D01*
X96404762Y-81883390D02*
X96309524Y-81835771D01*
X96309524Y-81835771D02*
X96261905Y-81788152D01*
X96261905Y-81788152D02*
X96214286Y-81692914D01*
X96214286Y-81692914D02*
X96214286Y-81645295D01*
X96214286Y-81645295D02*
X96261905Y-81550057D01*
X96261905Y-81550057D02*
X96309524Y-81502438D01*
X96309524Y-81502438D02*
X96404762Y-81454819D01*
X96404762Y-81454819D02*
X96595238Y-81454819D01*
X96595238Y-81454819D02*
X96690476Y-81502438D01*
X96690476Y-81502438D02*
X96738095Y-81550057D01*
X96738095Y-81550057D02*
X96785714Y-81645295D01*
X96785714Y-81645295D02*
X96785714Y-81692914D01*
X96785714Y-81692914D02*
X96738095Y-81788152D01*
X96738095Y-81788152D02*
X96690476Y-81835771D01*
X96690476Y-81835771D02*
X96595238Y-81883390D01*
X96595238Y-81883390D02*
X96404762Y-81883390D01*
X96404762Y-81883390D02*
X96309524Y-81931009D01*
X96309524Y-81931009D02*
X96261905Y-81978628D01*
X96261905Y-81978628D02*
X96214286Y-82073866D01*
X96214286Y-82073866D02*
X96214286Y-82264342D01*
X96214286Y-82264342D02*
X96261905Y-82359580D01*
X96261905Y-82359580D02*
X96309524Y-82407200D01*
X96309524Y-82407200D02*
X96404762Y-82454819D01*
X96404762Y-82454819D02*
X96595238Y-82454819D01*
X96595238Y-82454819D02*
X96690476Y-82407200D01*
X96690476Y-82407200D02*
X96738095Y-82359580D01*
X96738095Y-82359580D02*
X96785714Y-82264342D01*
X96785714Y-82264342D02*
X96785714Y-82073866D01*
X96785714Y-82073866D02*
X96738095Y-81978628D01*
X96738095Y-81978628D02*
X96690476Y-81931009D01*
X96690476Y-81931009D02*
X96595238Y-81883390D01*
X112333333Y-105304819D02*
X112000000Y-104828628D01*
X111761905Y-105304819D02*
X111761905Y-104304819D01*
X111761905Y-104304819D02*
X112142857Y-104304819D01*
X112142857Y-104304819D02*
X112238095Y-104352438D01*
X112238095Y-104352438D02*
X112285714Y-104400057D01*
X112285714Y-104400057D02*
X112333333Y-104495295D01*
X112333333Y-104495295D02*
X112333333Y-104638152D01*
X112333333Y-104638152D02*
X112285714Y-104733390D01*
X112285714Y-104733390D02*
X112238095Y-104781009D01*
X112238095Y-104781009D02*
X112142857Y-104828628D01*
X112142857Y-104828628D02*
X111761905Y-104828628D01*
X113238095Y-104304819D02*
X112761905Y-104304819D01*
X112761905Y-104304819D02*
X112714286Y-104781009D01*
X112714286Y-104781009D02*
X112761905Y-104733390D01*
X112761905Y-104733390D02*
X112857143Y-104685771D01*
X112857143Y-104685771D02*
X113095238Y-104685771D01*
X113095238Y-104685771D02*
X113190476Y-104733390D01*
X113190476Y-104733390D02*
X113238095Y-104781009D01*
X113238095Y-104781009D02*
X113285714Y-104876247D01*
X113285714Y-104876247D02*
X113285714Y-105114342D01*
X113285714Y-105114342D02*
X113238095Y-105209580D01*
X113238095Y-105209580D02*
X113190476Y-105257200D01*
X113190476Y-105257200D02*
X113095238Y-105304819D01*
X113095238Y-105304819D02*
X112857143Y-105304819D01*
X112857143Y-105304819D02*
X112761905Y-105257200D01*
X112761905Y-105257200D02*
X112714286Y-105209580D01*
X79954819Y-110941285D02*
X78954819Y-110941285D01*
X78954819Y-110941285D02*
X78954819Y-110703190D01*
X78954819Y-110703190D02*
X79002438Y-110560333D01*
X79002438Y-110560333D02*
X79097676Y-110465095D01*
X79097676Y-110465095D02*
X79192914Y-110417476D01*
X79192914Y-110417476D02*
X79383390Y-110369857D01*
X79383390Y-110369857D02*
X79526247Y-110369857D01*
X79526247Y-110369857D02*
X79716723Y-110417476D01*
X79716723Y-110417476D02*
X79811961Y-110465095D01*
X79811961Y-110465095D02*
X79907200Y-110560333D01*
X79907200Y-110560333D02*
X79954819Y-110703190D01*
X79954819Y-110703190D02*
X79954819Y-110941285D01*
X79954819Y-109417476D02*
X79954819Y-109988904D01*
X79954819Y-109703190D02*
X78954819Y-109703190D01*
X78954819Y-109703190D02*
X79097676Y-109798428D01*
X79097676Y-109798428D02*
X79192914Y-109893666D01*
X79192914Y-109893666D02*
X79240533Y-109988904D01*
X79954819Y-108465095D02*
X79954819Y-109036523D01*
X79954819Y-108750809D02*
X78954819Y-108750809D01*
X78954819Y-108750809D02*
X79097676Y-108846047D01*
X79097676Y-108846047D02*
X79192914Y-108941285D01*
X79192914Y-108941285D02*
X79240533Y-109036523D01*
X77954819Y-101714285D02*
X76954819Y-101714285D01*
X76954819Y-101714285D02*
X76954819Y-101476190D01*
X76954819Y-101476190D02*
X77002438Y-101333333D01*
X77002438Y-101333333D02*
X77097676Y-101238095D01*
X77097676Y-101238095D02*
X77192914Y-101190476D01*
X77192914Y-101190476D02*
X77383390Y-101142857D01*
X77383390Y-101142857D02*
X77526247Y-101142857D01*
X77526247Y-101142857D02*
X77716723Y-101190476D01*
X77716723Y-101190476D02*
X77811961Y-101238095D01*
X77811961Y-101238095D02*
X77907200Y-101333333D01*
X77907200Y-101333333D02*
X77954819Y-101476190D01*
X77954819Y-101476190D02*
X77954819Y-101714285D01*
X77954819Y-100190476D02*
X77954819Y-100761904D01*
X77954819Y-100476190D02*
X76954819Y-100476190D01*
X76954819Y-100476190D02*
X77097676Y-100571428D01*
X77097676Y-100571428D02*
X77192914Y-100666666D01*
X77192914Y-100666666D02*
X77240533Y-100761904D01*
X77050057Y-99809523D02*
X77002438Y-99761904D01*
X77002438Y-99761904D02*
X76954819Y-99666666D01*
X76954819Y-99666666D02*
X76954819Y-99428571D01*
X76954819Y-99428571D02*
X77002438Y-99333333D01*
X77002438Y-99333333D02*
X77050057Y-99285714D01*
X77050057Y-99285714D02*
X77145295Y-99238095D01*
X77145295Y-99238095D02*
X77240533Y-99238095D01*
X77240533Y-99238095D02*
X77383390Y-99285714D01*
X77383390Y-99285714D02*
X77954819Y-99857142D01*
X77954819Y-99857142D02*
X77954819Y-99238095D01*
X79954819Y-115941285D02*
X78954819Y-115941285D01*
X78954819Y-115941285D02*
X78954819Y-115703190D01*
X78954819Y-115703190D02*
X79002438Y-115560333D01*
X79002438Y-115560333D02*
X79097676Y-115465095D01*
X79097676Y-115465095D02*
X79192914Y-115417476D01*
X79192914Y-115417476D02*
X79383390Y-115369857D01*
X79383390Y-115369857D02*
X79526247Y-115369857D01*
X79526247Y-115369857D02*
X79716723Y-115417476D01*
X79716723Y-115417476D02*
X79811961Y-115465095D01*
X79811961Y-115465095D02*
X79907200Y-115560333D01*
X79907200Y-115560333D02*
X79954819Y-115703190D01*
X79954819Y-115703190D02*
X79954819Y-115941285D01*
X79954819Y-114417476D02*
X79954819Y-114988904D01*
X79954819Y-114703190D02*
X78954819Y-114703190D01*
X78954819Y-114703190D02*
X79097676Y-114798428D01*
X79097676Y-114798428D02*
X79192914Y-114893666D01*
X79192914Y-114893666D02*
X79240533Y-114988904D01*
X78954819Y-113798428D02*
X78954819Y-113703190D01*
X78954819Y-113703190D02*
X79002438Y-113607952D01*
X79002438Y-113607952D02*
X79050057Y-113560333D01*
X79050057Y-113560333D02*
X79145295Y-113512714D01*
X79145295Y-113512714D02*
X79335771Y-113465095D01*
X79335771Y-113465095D02*
X79573866Y-113465095D01*
X79573866Y-113465095D02*
X79764342Y-113512714D01*
X79764342Y-113512714D02*
X79859580Y-113560333D01*
X79859580Y-113560333D02*
X79907200Y-113607952D01*
X79907200Y-113607952D02*
X79954819Y-113703190D01*
X79954819Y-113703190D02*
X79954819Y-113798428D01*
X79954819Y-113798428D02*
X79907200Y-113893666D01*
X79907200Y-113893666D02*
X79859580Y-113941285D01*
X79859580Y-113941285D02*
X79764342Y-113988904D01*
X79764342Y-113988904D02*
X79573866Y-114036523D01*
X79573866Y-114036523D02*
X79335771Y-114036523D01*
X79335771Y-114036523D02*
X79145295Y-113988904D01*
X79145295Y-113988904D02*
X79050057Y-113941285D01*
X79050057Y-113941285D02*
X79002438Y-113893666D01*
X79002438Y-113893666D02*
X78954819Y-113798428D01*
X109954819Y-82142857D02*
X109478628Y-82476190D01*
X109954819Y-82714285D02*
X108954819Y-82714285D01*
X108954819Y-82714285D02*
X108954819Y-82333333D01*
X108954819Y-82333333D02*
X109002438Y-82238095D01*
X109002438Y-82238095D02*
X109050057Y-82190476D01*
X109050057Y-82190476D02*
X109145295Y-82142857D01*
X109145295Y-82142857D02*
X109288152Y-82142857D01*
X109288152Y-82142857D02*
X109383390Y-82190476D01*
X109383390Y-82190476D02*
X109431009Y-82238095D01*
X109431009Y-82238095D02*
X109478628Y-82333333D01*
X109478628Y-82333333D02*
X109478628Y-82714285D01*
X109954819Y-81190476D02*
X109954819Y-81761904D01*
X109954819Y-81476190D02*
X108954819Y-81476190D01*
X108954819Y-81476190D02*
X109097676Y-81571428D01*
X109097676Y-81571428D02*
X109192914Y-81666666D01*
X109192914Y-81666666D02*
X109240533Y-81761904D01*
X108954819Y-80333333D02*
X108954819Y-80523809D01*
X108954819Y-80523809D02*
X109002438Y-80619047D01*
X109002438Y-80619047D02*
X109050057Y-80666666D01*
X109050057Y-80666666D02*
X109192914Y-80761904D01*
X109192914Y-80761904D02*
X109383390Y-80809523D01*
X109383390Y-80809523D02*
X109764342Y-80809523D01*
X109764342Y-80809523D02*
X109859580Y-80761904D01*
X109859580Y-80761904D02*
X109907200Y-80714285D01*
X109907200Y-80714285D02*
X109954819Y-80619047D01*
X109954819Y-80619047D02*
X109954819Y-80428571D01*
X109954819Y-80428571D02*
X109907200Y-80333333D01*
X109907200Y-80333333D02*
X109859580Y-80285714D01*
X109859580Y-80285714D02*
X109764342Y-80238095D01*
X109764342Y-80238095D02*
X109526247Y-80238095D01*
X109526247Y-80238095D02*
X109431009Y-80285714D01*
X109431009Y-80285714D02*
X109383390Y-80333333D01*
X109383390Y-80333333D02*
X109335771Y-80428571D01*
X109335771Y-80428571D02*
X109335771Y-80619047D01*
X109335771Y-80619047D02*
X109383390Y-80714285D01*
X109383390Y-80714285D02*
X109431009Y-80761904D01*
X109431009Y-80761904D02*
X109526247Y-80809523D01*
X115904761Y-116550057D02*
X115809523Y-116502438D01*
X115809523Y-116502438D02*
X115714285Y-116407200D01*
X115714285Y-116407200D02*
X115571428Y-116264342D01*
X115571428Y-116264342D02*
X115476190Y-116216723D01*
X115476190Y-116216723D02*
X115380952Y-116216723D01*
X115428571Y-116454819D02*
X115333333Y-116407200D01*
X115333333Y-116407200D02*
X115238095Y-116311961D01*
X115238095Y-116311961D02*
X115190476Y-116121485D01*
X115190476Y-116121485D02*
X115190476Y-115788152D01*
X115190476Y-115788152D02*
X115238095Y-115597676D01*
X115238095Y-115597676D02*
X115333333Y-115502438D01*
X115333333Y-115502438D02*
X115428571Y-115454819D01*
X115428571Y-115454819D02*
X115619047Y-115454819D01*
X115619047Y-115454819D02*
X115714285Y-115502438D01*
X115714285Y-115502438D02*
X115809523Y-115597676D01*
X115809523Y-115597676D02*
X115857142Y-115788152D01*
X115857142Y-115788152D02*
X115857142Y-116121485D01*
X115857142Y-116121485D02*
X115809523Y-116311961D01*
X115809523Y-116311961D02*
X115714285Y-116407200D01*
X115714285Y-116407200D02*
X115619047Y-116454819D01*
X115619047Y-116454819D02*
X115428571Y-116454819D01*
X116809523Y-116454819D02*
X116238095Y-116454819D01*
X116523809Y-116454819D02*
X116523809Y-115454819D01*
X116523809Y-115454819D02*
X116428571Y-115597676D01*
X116428571Y-115597676D02*
X116333333Y-115692914D01*
X116333333Y-115692914D02*
X116238095Y-115740533D01*
X102833333Y-90604819D02*
X102500000Y-90128628D01*
X102261905Y-90604819D02*
X102261905Y-89604819D01*
X102261905Y-89604819D02*
X102642857Y-89604819D01*
X102642857Y-89604819D02*
X102738095Y-89652438D01*
X102738095Y-89652438D02*
X102785714Y-89700057D01*
X102785714Y-89700057D02*
X102833333Y-89795295D01*
X102833333Y-89795295D02*
X102833333Y-89938152D01*
X102833333Y-89938152D02*
X102785714Y-90033390D01*
X102785714Y-90033390D02*
X102738095Y-90081009D01*
X102738095Y-90081009D02*
X102642857Y-90128628D01*
X102642857Y-90128628D02*
X102261905Y-90128628D01*
X103166667Y-89604819D02*
X103833333Y-89604819D01*
X103833333Y-89604819D02*
X103404762Y-90604819D01*
X119954819Y-92642857D02*
X119478628Y-92976190D01*
X119954819Y-93214285D02*
X118954819Y-93214285D01*
X118954819Y-93214285D02*
X118954819Y-92833333D01*
X118954819Y-92833333D02*
X119002438Y-92738095D01*
X119002438Y-92738095D02*
X119050057Y-92690476D01*
X119050057Y-92690476D02*
X119145295Y-92642857D01*
X119145295Y-92642857D02*
X119288152Y-92642857D01*
X119288152Y-92642857D02*
X119383390Y-92690476D01*
X119383390Y-92690476D02*
X119431009Y-92738095D01*
X119431009Y-92738095D02*
X119478628Y-92833333D01*
X119478628Y-92833333D02*
X119478628Y-93214285D01*
X119954819Y-91690476D02*
X119954819Y-92261904D01*
X119954819Y-91976190D02*
X118954819Y-91976190D01*
X118954819Y-91976190D02*
X119097676Y-92071428D01*
X119097676Y-92071428D02*
X119192914Y-92166666D01*
X119192914Y-92166666D02*
X119240533Y-92261904D01*
X118954819Y-90785714D02*
X118954819Y-91261904D01*
X118954819Y-91261904D02*
X119431009Y-91309523D01*
X119431009Y-91309523D02*
X119383390Y-91261904D01*
X119383390Y-91261904D02*
X119335771Y-91166666D01*
X119335771Y-91166666D02*
X119335771Y-90928571D01*
X119335771Y-90928571D02*
X119383390Y-90833333D01*
X119383390Y-90833333D02*
X119431009Y-90785714D01*
X119431009Y-90785714D02*
X119526247Y-90738095D01*
X119526247Y-90738095D02*
X119764342Y-90738095D01*
X119764342Y-90738095D02*
X119859580Y-90785714D01*
X119859580Y-90785714D02*
X119907200Y-90833333D01*
X119907200Y-90833333D02*
X119954819Y-90928571D01*
X119954819Y-90928571D02*
X119954819Y-91166666D01*
X119954819Y-91166666D02*
X119907200Y-91261904D01*
X119907200Y-91261904D02*
X119859580Y-91309523D01*
X120454819Y-97580357D02*
X119978628Y-97913690D01*
X120454819Y-98151785D02*
X119454819Y-98151785D01*
X119454819Y-98151785D02*
X119454819Y-97770833D01*
X119454819Y-97770833D02*
X119502438Y-97675595D01*
X119502438Y-97675595D02*
X119550057Y-97627976D01*
X119550057Y-97627976D02*
X119645295Y-97580357D01*
X119645295Y-97580357D02*
X119788152Y-97580357D01*
X119788152Y-97580357D02*
X119883390Y-97627976D01*
X119883390Y-97627976D02*
X119931009Y-97675595D01*
X119931009Y-97675595D02*
X119978628Y-97770833D01*
X119978628Y-97770833D02*
X119978628Y-98151785D01*
X120454819Y-96627976D02*
X120454819Y-97199404D01*
X120454819Y-96913690D02*
X119454819Y-96913690D01*
X119454819Y-96913690D02*
X119597676Y-97008928D01*
X119597676Y-97008928D02*
X119692914Y-97104166D01*
X119692914Y-97104166D02*
X119740533Y-97199404D01*
X120454819Y-95675595D02*
X120454819Y-96247023D01*
X120454819Y-95961309D02*
X119454819Y-95961309D01*
X119454819Y-95961309D02*
X119597676Y-96056547D01*
X119597676Y-96056547D02*
X119692914Y-96151785D01*
X119692914Y-96151785D02*
X119740533Y-96247023D01*
X79488905Y-121859819D02*
X79488905Y-120859819D01*
X79488905Y-120859819D02*
X79727000Y-120859819D01*
X79727000Y-120859819D02*
X79869857Y-120907438D01*
X79869857Y-120907438D02*
X79965095Y-121002676D01*
X79965095Y-121002676D02*
X80012714Y-121097914D01*
X80012714Y-121097914D02*
X80060333Y-121288390D01*
X80060333Y-121288390D02*
X80060333Y-121431247D01*
X80060333Y-121431247D02*
X80012714Y-121621723D01*
X80012714Y-121621723D02*
X79965095Y-121716961D01*
X79965095Y-121716961D02*
X79869857Y-121812200D01*
X79869857Y-121812200D02*
X79727000Y-121859819D01*
X79727000Y-121859819D02*
X79488905Y-121859819D01*
X80536524Y-121859819D02*
X80727000Y-121859819D01*
X80727000Y-121859819D02*
X80822238Y-121812200D01*
X80822238Y-121812200D02*
X80869857Y-121764580D01*
X80869857Y-121764580D02*
X80965095Y-121621723D01*
X80965095Y-121621723D02*
X81012714Y-121431247D01*
X81012714Y-121431247D02*
X81012714Y-121050295D01*
X81012714Y-121050295D02*
X80965095Y-120955057D01*
X80965095Y-120955057D02*
X80917476Y-120907438D01*
X80917476Y-120907438D02*
X80822238Y-120859819D01*
X80822238Y-120859819D02*
X80631762Y-120859819D01*
X80631762Y-120859819D02*
X80536524Y-120907438D01*
X80536524Y-120907438D02*
X80488905Y-120955057D01*
X80488905Y-120955057D02*
X80441286Y-121050295D01*
X80441286Y-121050295D02*
X80441286Y-121288390D01*
X80441286Y-121288390D02*
X80488905Y-121383628D01*
X80488905Y-121383628D02*
X80536524Y-121431247D01*
X80536524Y-121431247D02*
X80631762Y-121478866D01*
X80631762Y-121478866D02*
X80822238Y-121478866D01*
X80822238Y-121478866D02*
X80917476Y-121431247D01*
X80917476Y-121431247D02*
X80965095Y-121383628D01*
X80965095Y-121383628D02*
X81012714Y-121288390D01*
X100833333Y-122454819D02*
X100500000Y-121978628D01*
X100261905Y-122454819D02*
X100261905Y-121454819D01*
X100261905Y-121454819D02*
X100642857Y-121454819D01*
X100642857Y-121454819D02*
X100738095Y-121502438D01*
X100738095Y-121502438D02*
X100785714Y-121550057D01*
X100785714Y-121550057D02*
X100833333Y-121645295D01*
X100833333Y-121645295D02*
X100833333Y-121788152D01*
X100833333Y-121788152D02*
X100785714Y-121883390D01*
X100785714Y-121883390D02*
X100738095Y-121931009D01*
X100738095Y-121931009D02*
X100642857Y-121978628D01*
X100642857Y-121978628D02*
X100261905Y-121978628D01*
X101166667Y-121454819D02*
X101785714Y-121454819D01*
X101785714Y-121454819D02*
X101452381Y-121835771D01*
X101452381Y-121835771D02*
X101595238Y-121835771D01*
X101595238Y-121835771D02*
X101690476Y-121883390D01*
X101690476Y-121883390D02*
X101738095Y-121931009D01*
X101738095Y-121931009D02*
X101785714Y-122026247D01*
X101785714Y-122026247D02*
X101785714Y-122264342D01*
X101785714Y-122264342D02*
X101738095Y-122359580D01*
X101738095Y-122359580D02*
X101690476Y-122407200D01*
X101690476Y-122407200D02*
X101595238Y-122454819D01*
X101595238Y-122454819D02*
X101309524Y-122454819D01*
X101309524Y-122454819D02*
X101214286Y-122407200D01*
X101214286Y-122407200D02*
X101166667Y-122359580D01*
X167654819Y-72583333D02*
X168369104Y-72583333D01*
X168369104Y-72583333D02*
X168511961Y-72630952D01*
X168511961Y-72630952D02*
X168607200Y-72726190D01*
X168607200Y-72726190D02*
X168654819Y-72869047D01*
X168654819Y-72869047D02*
X168654819Y-72964285D01*
X168654819Y-71583333D02*
X168654819Y-72154761D01*
X168654819Y-71869047D02*
X167654819Y-71869047D01*
X167654819Y-71869047D02*
X167797676Y-71964285D01*
X167797676Y-71964285D02*
X167892914Y-72059523D01*
X167892914Y-72059523D02*
X167940533Y-72154761D01*
D12*
%TO.C,J2*%
X104360000Y-70380000D02*
X104360000Y-65080000D01*
X152730000Y-70380000D02*
X104360000Y-70380000D01*
X152730000Y-70380000D02*
X152730000Y-67730000D01*
X154000000Y-70380000D02*
X155380000Y-70380000D01*
X155380000Y-70380000D02*
X155380000Y-69000000D01*
X152730000Y-67730000D02*
X155380000Y-67730000D01*
X155380000Y-67730000D02*
X155380000Y-65080000D01*
X155380000Y-65080000D02*
X104360000Y-65080000D01*
D13*
%TO.C,CR1*%
X164635000Y-68154700D02*
X163365000Y-68154700D01*
X164000000Y-68154700D02*
X164635000Y-68916700D01*
X164000000Y-68154700D02*
X164508000Y-68916700D01*
X164000000Y-68154700D02*
X164381000Y-68916700D01*
X164000000Y-68154700D02*
X164254000Y-68916700D01*
X164000000Y-68154700D02*
X164127000Y-68916700D01*
X164000000Y-68154700D02*
X163873000Y-68916700D01*
X164000000Y-68154700D02*
X163746000Y-68916700D01*
X164000000Y-68154700D02*
X163619000Y-68916700D01*
X164000000Y-68154700D02*
X163492000Y-68916700D01*
X164000000Y-68154700D02*
X163365000Y-68916700D01*
X164635000Y-68916700D02*
X163365000Y-68916700D01*
X164000000Y-69170700D02*
X164000000Y-67900700D01*
X166108200Y-70529600D02*
X165463040Y-70529600D01*
X162536960Y-70529600D02*
X161891800Y-70529600D01*
X161891800Y-70529600D02*
X161891800Y-75381000D01*
X166108200Y-75381000D02*
X166108200Y-70529600D01*
X165463040Y-75381000D02*
X166108200Y-75381000D01*
X161891800Y-75381000D02*
X162536960Y-75381000D01*
D12*
%TO.C,J7*%
X155420000Y-59120000D02*
X155420000Y-60500000D01*
X154040000Y-59120000D02*
X155420000Y-59120000D01*
X152770000Y-59120000D02*
X134880000Y-59120000D01*
X152770000Y-59120000D02*
X152770000Y-61880000D01*
X134880000Y-59120000D02*
X134880000Y-61880000D01*
X152770000Y-61880000D02*
X134880000Y-61880000D01*
%TO.C,J5*%
X138590000Y-125110000D02*
X138590000Y-127610000D01*
X138590000Y-127610000D02*
X141090000Y-127610000D01*
X138890000Y-123290000D02*
X138890000Y-127310000D01*
X138890000Y-125000000D02*
X139390000Y-125000000D01*
X138890000Y-125810000D02*
X139890000Y-125810000D01*
X138890000Y-127310000D02*
X149110000Y-127310000D01*
X139390000Y-123790000D02*
X148610000Y-123790000D01*
X139390000Y-125000000D02*
X139390000Y-123790000D01*
X139890000Y-125810000D02*
X139890000Y-127310000D01*
X148110000Y-125810000D02*
X148110000Y-127310000D01*
X148610000Y-123790000D02*
X148610000Y-125000000D01*
X148610000Y-125000000D02*
X149110000Y-125000000D01*
X149110000Y-123290000D02*
X138890000Y-123290000D01*
X149110000Y-125810000D02*
X148110000Y-125810000D01*
X149110000Y-127310000D02*
X149110000Y-123290000D01*
%TO.C,J3*%
X148610000Y-117810000D02*
X148610000Y-113790000D01*
X148610000Y-116310000D02*
X147610000Y-116310000D01*
X148610000Y-113790000D02*
X138390000Y-113790000D01*
X148110000Y-115500000D02*
X148610000Y-115500000D01*
X148110000Y-114290000D02*
X148110000Y-115500000D01*
X147610000Y-116310000D02*
X147610000Y-117810000D01*
X139390000Y-116310000D02*
X139390000Y-117810000D01*
X138890000Y-115500000D02*
X138890000Y-114290000D01*
X138890000Y-114290000D02*
X148110000Y-114290000D01*
X138390000Y-117810000D02*
X148610000Y-117810000D01*
X138390000Y-116310000D02*
X139390000Y-116310000D01*
X138390000Y-115500000D02*
X138890000Y-115500000D01*
X138390000Y-113790000D02*
X138390000Y-117810000D01*
X138090000Y-118110000D02*
X140590000Y-118110000D01*
X138090000Y-115610000D02*
X138090000Y-118110000D01*
%TO.C,J4*%
X153590000Y-115610000D02*
X153590000Y-118110000D01*
X153590000Y-118110000D02*
X156090000Y-118110000D01*
X153890000Y-113790000D02*
X153890000Y-117810000D01*
X153890000Y-115500000D02*
X154390000Y-115500000D01*
X153890000Y-116310000D02*
X154890000Y-116310000D01*
X153890000Y-117810000D02*
X164110000Y-117810000D01*
X154390000Y-114290000D02*
X163610000Y-114290000D01*
X154390000Y-115500000D02*
X154390000Y-114290000D01*
X154890000Y-116310000D02*
X154890000Y-117810000D01*
X163110000Y-116310000D02*
X163110000Y-117810000D01*
X163610000Y-114290000D02*
X163610000Y-115500000D01*
X163610000Y-115500000D02*
X164110000Y-115500000D01*
X164110000Y-113790000D02*
X153890000Y-113790000D01*
X164110000Y-116310000D02*
X163110000Y-116310000D01*
X164110000Y-117810000D02*
X164110000Y-113790000D01*
%TO.C,J6*%
X153590000Y-125110000D02*
X153590000Y-127610000D01*
X153590000Y-127610000D02*
X156090000Y-127610000D01*
X153890000Y-123290000D02*
X153890000Y-127310000D01*
X153890000Y-125000000D02*
X154390000Y-125000000D01*
X153890000Y-125810000D02*
X154890000Y-125810000D01*
X153890000Y-127310000D02*
X164110000Y-127310000D01*
X154390000Y-123790000D02*
X163610000Y-123790000D01*
X154390000Y-125000000D02*
X154390000Y-123790000D01*
X154890000Y-125810000D02*
X154890000Y-127310000D01*
X163110000Y-125810000D02*
X163110000Y-127310000D01*
X163610000Y-123790000D02*
X163610000Y-125000000D01*
X163610000Y-125000000D02*
X164110000Y-125000000D01*
X164110000Y-123290000D02*
X153890000Y-123290000D01*
X164110000Y-125810000D02*
X163110000Y-125810000D01*
X164110000Y-127310000D02*
X164110000Y-123290000D01*
%TO.C,Q4*%
X104560000Y-83302500D02*
X104560000Y-84822500D01*
X104510000Y-83302500D02*
X104560000Y-83302500D01*
X102610000Y-83302500D02*
X103390000Y-83302500D01*
X101440000Y-83302500D02*
X101490000Y-83302500D01*
X104560000Y-84822500D02*
X103560000Y-84822500D01*
X102440000Y-84822500D02*
X101440000Y-84822500D01*
X101440000Y-84822500D02*
X101440000Y-83302500D01*
X103380000Y-82762500D02*
X103050000Y-83002500D01*
X103050000Y-82522500D01*
X103380000Y-82762500D01*
G36*
X103380000Y-82762500D02*
G01*
X103050000Y-83002500D01*
X103050000Y-82522500D01*
X103380000Y-82762500D01*
G37*
%TO.C,R10*%
X116272936Y-111235000D02*
X116727064Y-111235000D01*
X116272936Y-109765000D02*
X116727064Y-109765000D01*
%TO.C,R14*%
X121272936Y-109765000D02*
X121727064Y-109765000D01*
X121272936Y-111235000D02*
X121727064Y-111235000D01*
%TO.C,Q2*%
X118697500Y-108060000D02*
X117177500Y-108060000D01*
X118697500Y-108010000D02*
X118697500Y-108060000D01*
X118697500Y-106110000D02*
X118697500Y-106890000D01*
X118697500Y-104940000D02*
X118697500Y-104990000D01*
X117177500Y-108060000D02*
X117177500Y-107060000D01*
X117177500Y-105940000D02*
X117177500Y-104940000D01*
X117177500Y-104940000D02*
X118697500Y-104940000D01*
X119237500Y-106880000D02*
X118997500Y-106550000D01*
X119477500Y-106550000D01*
X119237500Y-106880000D01*
G36*
X119237500Y-106880000D02*
G01*
X118997500Y-106550000D01*
X119477500Y-106550000D01*
X119237500Y-106880000D01*
G37*
%TO.C,R6*%
X112272936Y-98765000D02*
X112727064Y-98765000D01*
X112272936Y-100235000D02*
X112727064Y-100235000D01*
%TO.C,R4*%
X107272936Y-115265000D02*
X107727064Y-115265000D01*
X107272936Y-116735000D02*
X107727064Y-116735000D01*
%TO.C,R12*%
X107265000Y-86727064D02*
X107265000Y-86272936D01*
X108735000Y-86727064D02*
X108735000Y-86272936D01*
%TO.C,R9*%
X108272936Y-119765000D02*
X108727064Y-119765000D01*
X108272936Y-121235000D02*
X108727064Y-121235000D01*
%TO.C,Q3*%
X115110000Y-94177500D02*
X115110000Y-95697500D01*
X115060000Y-94177500D02*
X115110000Y-94177500D01*
X113160000Y-94177500D02*
X113940000Y-94177500D01*
X111990000Y-94177500D02*
X112040000Y-94177500D01*
X115110000Y-95697500D02*
X114110000Y-95697500D01*
X112990000Y-95697500D02*
X111990000Y-95697500D01*
X111990000Y-95697500D02*
X111990000Y-94177500D01*
X113930000Y-93637500D02*
X113600000Y-93877500D01*
X113600000Y-93397500D01*
X113930000Y-93637500D01*
G36*
X113930000Y-93637500D02*
G01*
X113600000Y-93877500D01*
X113600000Y-93397500D01*
X113930000Y-93637500D01*
G37*
%TO.C,R13*%
X113272936Y-119765000D02*
X113727064Y-119765000D01*
X113272936Y-121235000D02*
X113727064Y-121235000D01*
%TO.C,R8*%
X95727064Y-84235000D02*
X95272936Y-84235000D01*
X95727064Y-82765000D02*
X95272936Y-82765000D01*
%TO.C,R5*%
X112272936Y-105765000D02*
X112727064Y-105765000D01*
X112272936Y-107235000D02*
X112727064Y-107235000D01*
%TO.C,D11*%
X76500000Y-111810000D02*
X78500000Y-111810000D01*
X76500000Y-111810000D02*
X76500000Y-107950000D01*
X78500000Y-111810000D02*
X78500000Y-107950000D01*
%TO.C,D12*%
X78500000Y-106310000D02*
X78500000Y-102450000D01*
X76500000Y-106310000D02*
X76500000Y-102450000D01*
X76500000Y-106310000D02*
X78500000Y-106310000D01*
%TO.C,D10*%
X76500000Y-116810000D02*
X78500000Y-116810000D01*
X76500000Y-116810000D02*
X76500000Y-112950000D01*
X78500000Y-116810000D02*
X78500000Y-112950000D01*
%TO.C,R16*%
X107265000Y-81727064D02*
X107265000Y-81272936D01*
X108735000Y-81727064D02*
X108735000Y-81272936D01*
%TO.C,Q1*%
X113697500Y-117560000D02*
X112177500Y-117560000D01*
X113697500Y-117510000D02*
X113697500Y-117560000D01*
X113697500Y-115610000D02*
X113697500Y-116390000D01*
X113697500Y-114440000D02*
X113697500Y-114490000D01*
X112177500Y-117560000D02*
X112177500Y-116560000D01*
X112177500Y-115440000D02*
X112177500Y-114440000D01*
X112177500Y-114440000D02*
X113697500Y-114440000D01*
X114237500Y-116380000D02*
X113997500Y-116050000D01*
X114477500Y-116050000D01*
X114237500Y-116380000D01*
G36*
X114237500Y-116380000D02*
G01*
X113997500Y-116050000D01*
X114477500Y-116050000D01*
X114237500Y-116380000D01*
G37*
%TO.C,R7*%
X103227064Y-89235000D02*
X102772936Y-89235000D01*
X103227064Y-87765000D02*
X102772936Y-87765000D01*
%TO.C,R15*%
X117315000Y-92227064D02*
X117315000Y-91772936D01*
X118785000Y-92227064D02*
X118785000Y-91772936D01*
%TO.C,R11*%
X117315000Y-97164564D02*
X117315000Y-96710436D01*
X118785000Y-97164564D02*
X118785000Y-96710436D01*
%TO.C,D9*%
X82310000Y-120500000D02*
X82310000Y-118500000D01*
X82310000Y-120500000D02*
X78450000Y-120500000D01*
X82310000Y-118500000D02*
X78450000Y-118500000D01*
%TO.C,R3*%
X100772936Y-119765000D02*
X101227064Y-119765000D01*
X100772936Y-121235000D02*
X101227064Y-121235000D01*
%TO.C,J1*%
X171110000Y-76410000D02*
X173610000Y-76410000D01*
X173610000Y-76410000D02*
X173610000Y-73910000D01*
X169290000Y-76110000D02*
X173310000Y-76110000D01*
X171000000Y-76110000D02*
X171000000Y-75610000D01*
X171810000Y-76110000D02*
X171810000Y-75110000D01*
X173310000Y-76110000D02*
X173310000Y-68390000D01*
X169790000Y-75610000D02*
X169790000Y-68890000D01*
X171000000Y-75610000D02*
X169790000Y-75610000D01*
X171810000Y-75110000D02*
X173310000Y-75110000D01*
X171810000Y-69390000D02*
X173310000Y-69390000D01*
X169790000Y-68890000D02*
X171000000Y-68890000D01*
X171000000Y-68890000D02*
X171000000Y-68390000D01*
X169290000Y-68390000D02*
X169290000Y-76110000D01*
X171810000Y-68390000D02*
X171810000Y-69390000D01*
X173310000Y-68390000D02*
X169290000Y-68390000D01*
%TD*%
M02*
